M48
; DRILL file {KiCad 8.0.6} date 2025-01-12T20:29:38+0600
; FORMAT={-:-/ absolute / inch / decimal}
; #@! TF.CreationDate,2025-01-12T20:29:38+06:00
; #@! TF.GenerationSoftware,Kicad,Pcbnew,8.0.6
; #@! TF.FileFunction,Plated,1,10,PTH
FMAT,2
INCH
; #@! TA.AperFunction,Plated,PTH,ViaDrill
T1C0.0059
; #@! TA.AperFunction,Plated,PTH,ViaDrill
T2C0.0118
; #@! TA.AperFunction,Plated,PTH,ViaDrill
T3C0.0138
; #@! TA.AperFunction,Plated,PTH,ComponentDrill
T4C0.0236
; #@! TA.AperFunction,Plated,PTH,ComponentDrill
T5C0.0256
; #@! TA.AperFunction,Plated,PTH,ComponentDrill
T6C0.0276
; #@! TA.AperFunction,Plated,PTH,ComponentDrill
T7C0.0315
; #@! TA.AperFunction,Plated,PTH,ComponentDrill
T8C0.0354
; #@! TA.AperFunction,Plated,PTH,ComponentDrill
T9C0.0413
; #@! TA.AperFunction,Plated,PTH,ComponentDrill
T10C0.0433
; #@! TA.AperFunction,Plated,PTH,ComponentDrill
T11C0.0650
%
G90
G05
T1
X4.639Y-4.028
X4.6575Y-3.9354
X4.6776Y-3.9862
X4.6783Y-4.0287
X4.7264Y-4.0283
X4.7382Y-4.1114
X4.7425Y-3.4689
X4.7728Y-3.9622
X4.7732Y-3.9299
X4.7776Y-3.4209
X4.7949Y-4.2839
X4.8106Y-3.2232
X4.8138Y-3.8453
X4.8154Y-3.4854
X4.8165Y-3.3549
X4.8173Y-4.1319
X4.8183Y-3.8791
X4.8185Y-3.3248
X4.8185Y-3.387
X4.8193Y-3.4201
X4.8209Y-3.5189
X4.8215Y-3.2657
X4.8264Y-4.2543
X4.8421Y-3.2232
X4.8449Y-3.8421
X4.8469Y-3.7453
X4.8488Y-3.8794
X4.8488Y-4.0079
X4.8488Y-4.1004
X4.8488Y-4.1331
X4.8516Y-3.3319
X4.8524Y-4.2181
X4.8528Y-3.2646
X4.8531Y-3.5189
X4.861Y-4.2555
X4.8657Y-4.4583
X4.8713Y-3.4157
X4.872Y-3.3571
X4.8768Y-3.8453
X4.8789Y-3.951
X4.8799Y-4.1335
X4.8803Y-4.1004
X4.8807Y-3.8799
X4.8838Y-3.485
X4.8846Y-3.2654
X4.8848Y-3.327
X4.885Y-3.5177
X4.8852Y-3.2341
X4.9083Y-3.8449
X4.9116Y-3.8797
X4.9118Y-4.1
X4.9118Y-4.1331
X4.9122Y-3.9421
X4.9157Y-3.4855
X4.9161Y-3.2331
X4.9173Y-3.2661
X4.9173Y-3.5176
X4.939Y-4.4587
X4.9429Y-4.1335
X4.9437Y-4.1
X4.9472Y-3.485
X4.9484Y-3.5176
X4.9638Y-3.208
X4.9661Y-3.3618
X4.9743Y-3.8789
X4.9746Y-3.9112
X4.9787Y-3.2646
X4.9787Y-3.2965
X5.0058Y-3.8799
X5.0063Y-3.9429
X5.0063Y-4.1
X5.0068Y-4.0379
X5.0098Y-3.4217
X5.0102Y-3.265
X5.0102Y-3.2956
X5.0102Y-3.328
X5.0118Y-3.4858
X5.0315Y-3.2118
X5.0354Y-3.8272
X5.037Y-3.985
X5.0374Y-3.9433
X5.0378Y-3.8791
X5.0378Y-4.1008
X5.0386Y-4.0374
X5.0415Y-3.4219
X5.0417Y-3.3276
X5.042Y-3.4853
X5.0421Y-3.2646
X5.0421Y-3.535
X5.0465Y-2.5929
X5.0469Y-2.6303
X5.0689Y-3.8795
X5.069Y-4.0691
X5.0693Y-4.1004
X5.0728Y-3.4535
X5.0732Y-3.2646
X5.0732Y-3.485
X5.0972Y-3.8425
X5.1005Y-3.9112
X5.1012Y-4.1323
X5.1035Y-3.5189
X5.1051Y-3.2961
X5.1063Y-3.2315
X5.1305Y-3.8478
X5.1315Y-3.4173
X5.132Y-4.0691
X5.1323Y-4.0374
X5.1323Y-4.1
X5.1323Y-4.1319
X5.1327Y-3.8799
X5.1335Y-3.9437
X5.1361Y-3.4529
X5.1361Y-3.5177
X5.1365Y-3.2648
X5.1367Y-3.485
X5.1378Y-3.3291
X5.1386Y-3.2311
X5.1567Y-2.5091
X5.1567Y-2.5512
X5.1638Y-3.8808
X5.1638Y-4.1004
X5.164Y-4.0691
X5.1646Y-3.8433
X5.1654Y-3.9445
X5.1654Y-4.1327
X5.1663Y-3.9128
X5.1675Y-3.2643
X5.1677Y-3.2956
X5.1677Y-3.4535
X5.168Y-3.4853
X5.1685Y-3.5185
X5.1697Y-3.2311
X5.1697Y-3.3299
X5.1909Y-2.6677
X5.1949Y-4.1004
X5.1953Y-4.0374
X5.1955Y-3.8802
X5.1957Y-3.8465
X5.1965Y-4.1335
X5.1992Y-3.2642
X5.2001Y-3.4874
X5.2004Y-3.5185
X5.2016Y-3.2315
X5.2035Y-2.5539
X5.2087Y-4.3138
X5.2091Y-4.3413
X5.2094Y-4.3685
X5.2094Y-4.3992
X5.2094Y-4.4295
X5.2098Y-4.4575
X5.227Y-3.8457
X5.227Y-3.8802
X5.227Y-4.1002
X5.2307Y-3.265
X5.2312Y-3.4858
X5.2335Y-3.2303
X5.2413Y-2.5543
X5.2425Y-4.3807
X5.2429Y-4.1413
X5.2453Y-3.398
X5.2465Y-3.5232
X5.2575Y-3.9437
X5.2583Y-3.9118
X5.2598Y-3.8469
X5.2622Y-3.2965
X5.2622Y-3.3276
X5.2638Y-3.2311
X5.2748Y-4.1437
X5.2756Y-4.3803
X5.2783Y-3.5244
X5.2921Y-3.8457
X5.2953Y-3.2311
X5.3083Y-4.3803
X5.3217Y-3.0854
X5.322Y-4.1012
X5.3228Y-3.5146
X5.3232Y-4.1335
X5.324Y-3.8461
X5.3248Y-3.485
X5.3272Y-3.2315
X5.363Y-4.315
X5.363Y-4.6764
X5.3634Y-4.3425
X5.3638Y-4.3697
X5.3638Y-4.4004
X5.3752Y-2.8531
X5.3768Y-2.9535
X5.4425Y-2.8197
X5.4555Y-3.8433
X5.465Y-3.6878
X5.4736Y-3.6091
X5.4941Y-3.5917
X5.5051Y-3.8433
X5.5122Y-3.5362
X5.5138Y-3.6102
X5.5165Y-3.6878
X5.5217Y-3.7311
X5.537Y-3.5539
X5.5531Y-3.8409
X5.5539Y-3.6843
X5.5539Y-3.8862
X5.5543Y-3.5374
X5.5563Y-3.7303
X5.5575Y-3.5717
X5.5728Y-3.5531
X5.5913Y-3.5384
X5.5929Y-3.5717
X5.5963Y-3.8875
X5.5965Y-3.7311
X5.602Y-3.8406
X5.6138Y-4.6898
X5.6154Y-3.6972
X5.622Y-3.5717
X5.624Y-3.7287
X5.6281Y-3.8862
X5.6306Y-3.4156
X5.6496Y-2.5268
X5.6618Y-3.2366
X5.6693Y-3.713
X5.6701Y-3.8386
X5.6831Y-2.5059
X5.6835Y-2.5571
X5.687Y-3.2094
X5.7005Y-3.7777
X5.7008Y-3.5878
X5.7008Y-3.6484
X5.7012Y-3.839
X5.7016Y-3.461
X5.7016Y-3.7134
X5.7016Y-3.9335
X5.7016Y-3.5232
X5.7017Y-3.9026
X5.702Y-3.5559
X5.7138Y-2.5063
X5.715Y-2.5575
X5.7173Y-3.3559
X5.732Y-3.8099
X5.7323Y-3.5555
X5.7327Y-3.4925
X5.7327Y-3.8382
X5.7331Y-3.5878
X5.7331Y-3.8712
X5.7331Y-3.6189
X5.7331Y-3.6815
X5.7331Y-3.7126
X5.7331Y-3.7447
X5.7335Y-3.7764
X5.7337Y-3.4608
X5.7338Y-3.524
X5.7339Y-3.6506
X5.7441Y-2.5248
X5.761Y-3.0902
X5.7614Y-4.5961
X5.7622Y-3.8094
X5.7638Y-3.65
X5.7638Y-3.839
X5.7642Y-3.4295
X5.7642Y-3.713
X5.7642Y-3.902
X5.7646Y-3.4614
X5.7646Y-3.5248
X5.7646Y-3.5551
X5.7646Y-3.6811
X5.7649Y-3.7449
X5.7652Y-3.5872
X5.7653Y-3.776
X5.7657Y-3.6197
X5.7772Y-2.5067
X5.7776Y-2.5571
X5.7776Y-2.8232
X5.7811Y-4.0165
X5.7917Y-3.2425
X5.7955Y-3.4927
X5.7957Y-3.4606
X5.7957Y-3.7114
X5.7959Y-3.4289
X5.7959Y-3.7439
X5.7959Y-3.8699
X5.7961Y-3.5244
X5.7961Y-3.5555
X5.7961Y-3.6807
X5.7962Y-3.6191
X5.7964Y-3.5874
X5.7964Y-3.7764
X5.7965Y-3.6496
X5.7966Y-3.8077
X5.8083Y-2.5083
X5.826Y-4.6189
X5.8268Y-3.524
X5.827Y-3.7132
X5.8272Y-3.1925
X5.8272Y-3.5551
X5.8272Y-3.8394
X5.8274Y-3.2211
X5.8276Y-3.6492
X5.8276Y-3.4603
X5.8276Y-3.7764
X5.8276Y-3.9654
X5.8277Y-3.4919
X5.828Y-3.4295
X5.8283Y-3.587
X5.8287Y-3.1634
X5.8287Y-3.8063
X5.8402Y-2.5272
X5.8413Y-4.3303
X5.8417Y-4.3579
X5.8421Y-4.385
X5.8421Y-4.4157
X5.8421Y-4.4461
X5.8583Y-3.4614
X5.8587Y-3.4929
X5.8591Y-3.65
X5.8591Y-3.6177
X5.8591Y-3.6815
X5.8591Y-3.7445
X5.8591Y-3.8075
X5.8592Y-3.4289
X5.8597Y-3.5869
X5.8598Y-3.839
X5.8599Y-3.5555
X5.8602Y-2.937
X5.8697Y-2.5571
X5.8732Y-2.5
X5.874Y-3.2469
X5.8748Y-3.3476
X5.8799Y-4.2315
X5.8815Y-4.3866
X5.8902Y-3.587
X5.8905Y-3.4933
X5.8906Y-3.461
X5.8906Y-3.5236
X5.8906Y-3.6819
X5.8906Y-3.7445
X5.8906Y-3.8071
X5.8909Y-3.4299
X5.8909Y-3.6488
X5.9031Y-2.5602
X5.9146Y-4.3862
X5.9209Y-3.4622
X5.922Y-3.4295
X5.922Y-3.524
X5.922Y-3.6496
X5.922Y-3.6819
X5.922Y-3.713
X5.922Y-3.776
X5.922Y-3.8075
X5.922Y-3.902
X5.9224Y-3.5874
X5.9226Y-3.4927
X5.9346Y-2.526
X5.9378Y-3.3535
X5.9382Y-3.3252
X5.9386Y-4.0217
X5.9472Y-4.3862
X5.9508Y-3.2669
X5.9531Y-3.2937
X5.9531Y-3.461
X5.9535Y-3.5866
X5.9535Y-3.65
X5.9535Y-3.6815
X5.9535Y-3.713
X5.9535Y-3.7445
X5.9535Y-3.9024
X5.9539Y-3.4925
X5.9539Y-3.6181
X5.9551Y-3.2386
X5.965Y-2.5055
X5.9654Y-2.5646
X5.9693Y-3.3248
X5.9693Y-3.3539
X5.985Y-3.4295
X5.985Y-3.461
X5.985Y-3.524
X5.985Y-3.5555
X5.985Y-3.7445
X5.985Y-3.776
X5.985Y-3.8701
X5.9854Y-3.65
X5.987Y-3.4913
X5.9953Y-2.5669
X5.9992Y-2.5051
X6.0008Y-3.3539
X6.0012Y-3.3252
X6.0155Y-3.9354
X6.0161Y-3.8386
X6.0162Y-3.8064
X6.0163Y-3.7128
X6.0165Y-3.6492
X6.0165Y-3.4295
X6.0165Y-3.4925
X6.0165Y-3.587
X6.0166Y-3.7438
X6.0169Y-3.6811
X6.0171Y-3.5238
X6.0283Y-2.5295
X6.0311Y-4.4642
X6.0323Y-3.3535
X6.0327Y-3.3264
X6.0327Y-4.6673
X6.0384Y-4.108
X6.0411Y-4.0463
X6.0476Y-3.4929
X6.0476Y-3.5874
X6.048Y-3.4606
X6.048Y-3.5244
X6.048Y-3.5555
X6.048Y-3.9331
X6.0484Y-3.4291
X6.0484Y-3.7764
X6.0565Y-4.0899
X6.0606Y-2.5634
X6.061Y-2.5008
X6.064Y-3.3539
X6.0642Y-3.3248
X6.0667Y-4.0463
X6.0787Y-3.6508
X6.0788Y-3.4606
X6.0791Y-3.5862
X6.0793Y-3.5561
X6.0795Y-3.524
X6.0795Y-3.7441
X6.0795Y-3.9024
X6.0795Y-3.7132
X6.0797Y-3.6821
X6.0801Y-3.4293
X6.0803Y-3.6185
X6.0803Y-3.4917
X6.0913Y-2.5646
X6.0917Y-2.5051
X6.0957Y-4.0039
X6.0965Y-3.3539
X6.1098Y-3.9008
X6.1102Y-3.6508
X6.1104Y-3.5864
X6.1106Y-3.3307
X6.1106Y-3.4606
X6.1106Y-3.8075
X6.111Y-3.5238
X6.111Y-3.7122
X6.111Y-3.9327
X6.1114Y-3.4287
X6.1116Y-3.4924
X6.1116Y-3.6183
X6.1118Y-3.7445
X6.1206Y-4.2321
X6.122Y-4.0921
X6.1228Y-2.5335
X6.126Y-4.1339
X6.1274Y-3.3539
X6.1292Y-2.8476
X6.1295Y-3.0969
X6.1386Y-4.214
X6.1413Y-3.8717
X6.1415Y-3.5238
X6.1417Y-3.65
X6.1421Y-3.8079
X6.1421Y-3.713
X6.1425Y-3.587
X6.1425Y-3.9331
X6.1429Y-3.4606
X6.1429Y-3.5551
X6.1429Y-3.3039
X6.1429Y-3.4925
X6.1429Y-3.6185
X6.1431Y-3.4289
X6.1482Y-4.0581
X6.1531Y-2.5654
X6.1587Y-2.5079
X6.1618Y-3.076
X6.1663Y-4.04
X6.1693Y-2.8283
X6.1732Y-3.713
X6.1736Y-3.6819
X6.174Y-3.4921
X6.174Y-3.65
X6.174Y-3.5232
X6.1744Y-3.8709
X6.1744Y-3.5555
X6.1744Y-3.587
X6.1748Y-3.9335
X6.1854Y-2.5661
X6.1882Y-2.5094
X6.1886Y-3.3256
X6.1894Y-3.3524
X6.1917Y-3.0441
X6.1957Y-2.8319
X6.1976Y-2.7878
X6.2Y-2.887
X6.2047Y-3.839
X6.2047Y-3.9335
X6.2051Y-3.4921
X6.2051Y-3.5236
X6.2051Y-3.6185
X6.2054Y-3.4604
X6.2055Y-3.5874
X6.2055Y-3.65
X6.2055Y-3.713
X6.2055Y-3.7437
X6.2063Y-3.5555
X6.2169Y-2.928
X6.2203Y-2.5331
X6.2228Y-4.6291
X6.228Y-2.828
X6.2289Y-2.8624
X6.2291Y-2.8866
X6.2291Y-3.1
X6.2352Y-4.0415
X6.2366Y-2.7886
X6.237Y-3.4614
X6.237Y-3.4921
X6.237Y-3.524
X6.237Y-3.9016
X6.237Y-3.9642
X6.2372Y-3.7766
X6.2374Y-3.9331
X6.2437Y-2.702
X6.2476Y-2.5661
X6.2476Y-2.9272
X6.2512Y-2.5024
X6.2533Y-4.0234
X6.2543Y-4.6567
X6.2665Y-2.7906
X6.2669Y-2.8177
X6.2677Y-2.8417
X6.2728Y-3.0988
X6.2752Y-3.6657
X6.2752Y-3.8232
X6.278Y-4.0063
X6.2801Y-2.5673
X6.285Y-4.6563
X6.2854Y-3.3673
X6.3118Y-2.5339
X6.3177Y-3.3673
X6.3323Y-4.6421
X6.3442Y-3.9207
X6.3442Y-3.9463
X6.3451Y-2.5607
X6.3457Y-3.8577
X6.3457Y-3.8833
X6.3465Y-2.5083
X6.3528Y-3.0965
X6.3535Y-2.8945
X6.3575Y-2.7185
X6.3693Y-4.1874
X6.3707Y-2.5607
X6.3713Y-3.902
X6.3764Y-4.6622
X6.3772Y-2.5087
X6.3889Y-3.7328
X6.3929Y-2.7693
X6.3976Y-2.839
X6.4063Y-2.5311
X6.407Y-3.7147
X6.4073Y-4.0675
X6.4075Y-3.4161
X6.4115Y-3.8391
X6.4115Y-3.8647
X6.4161Y-3.5236
X6.4398Y-2.5587
X6.4402Y-2.5047
X6.4685Y-2.5646
X6.4703Y-2.5039
X6.489Y-3.8138
X6.4898Y-3.8469
X6.4929Y-4.2157
X6.5008Y-2.5276
X6.5016Y-2.9516
X6.524Y-2.8673
X6.5358Y-2.5575
X6.5386Y-3.3921
X6.5402Y-3.2941
X6.5437Y-3.4937
X6.5539Y-4.3102
X6.5543Y-4.3496
X6.5555Y-4.3799
X6.5563Y-2.8673
X6.5673Y-2.5571
X6.5689Y-3.3913
X6.5736Y-4.4114
X6.5752Y-3.1535
X6.578Y-3.2929
X6.5858Y-3.0886
X6.5933Y-2.5283
X6.6087Y-3.2425
X6.6268Y-2.5016
X6.6272Y-2.5602
X6.6472Y-3.022
X6.65Y-3.4417
X6.6508Y-3.3402
X6.6543Y-3.7031
X6.6579Y-2.561
X6.6591Y-2.5016
X6.6642Y-3.2453
X6.6681Y-2.9472
X6.6783Y-3.3528
X6.6854Y-3.0295
X6.6898Y-2.535
X6.6917Y-4.3669
X6.6937Y-4.4445
X6.6941Y-4.4039
X6.7018Y-4.6652
X6.7165Y-3.4291
X6.7217Y-2.5594
X6.722Y-2.5008
X6.7268Y-3.5264
X6.7343Y-3.3933
X6.752Y-2.5606
X6.7531Y-2.5012
X6.7598Y-3.739
X6.7622Y-3.5264
X6.7622Y-3.7823
X6.7626Y-3.8311
X6.7839Y-2.5354
X6.7846Y-2.9244
X6.8157Y-2.5654
X6.8161Y-2.5024
X6.8295Y-4.2492
X6.8476Y-2.5031
X6.8476Y-2.5646
X6.852Y-4.6638
X6.863Y-3.8398
X6.8726Y-3.8687
X6.8772Y-3.7028
X6.8795Y-2.5626
X6.8839Y-4.2031
X6.8843Y-3.5087
X6.8894Y-3.5374
X6.8907Y-3.8506
X6.9063Y-4.0063
X6.9067Y-3.2283
X6.9106Y-3.2555
X6.924Y-4.4429
X6.9346Y-3.1004
X6.9465Y-3.0697
X6.9539Y-3.0429
X6.9606Y-4.5953
X6.9717Y-2.6937
X6.9791Y-2.726
X6.9815Y-3.0346
X6.9846Y-3.4642
X6.9902Y-4.4433
X6.9933Y-3.0042
X7.0146Y-3.6413
X7.0209Y-3.589
X7.0248Y-3.0201
X7.0252Y-4.4374
X7.0335Y-4.6406
X7.0394Y-2.9827
X7.0488Y-3.6409
X7.0604Y-2.9514
X7.0909Y-2.7339
X7.0909Y-3.0319
X7.0984Y-3.3492
X7.1055Y-2.7575
X7.1063Y-4.6709
X7.1169Y-2.7185
X7.1283Y-2.8902
X7.1437Y-4.6524
X7.1657Y-3.3567
X7.1756Y-3.6677
X7.1925Y-4.5276
X7.1945Y-4.5559
X7.2028Y-3.226
X7.2083Y-3.7583
X7.2087Y-3.1465
X7.2094Y-3.6677
X7.2228Y-4.0972
X7.2228Y-4.135
X7.2299Y-2.826
X7.2335Y-3.8547
X7.2445Y-3.9335
X7.2567Y-3.8413
X7.2626Y-3.8122
X7.2642Y-3.8949
X7.2654Y-4.4169
X7.2661Y-4.4465
X7.285Y-3.9303
X7.2856Y-3.7388
X7.2874Y-4.3705
X7.2972Y-4.4157
X7.298Y-4.4453
X7.3205Y-4.3717
X7.3248Y-3.5886
X7.3299Y-4.4157
X7.3307Y-4.4453
X7.3382Y-3.9197
X7.3429Y-3.6972
X7.3681Y-2.7409
X7.4075Y-3.7012
X7.413Y-3.4953
X7.4134Y-3.6614
X7.4319Y-3.5953
X7.4421Y-4.0051
X7.4476Y-3.6988
X7.4634Y-3.5929
X7.4642Y-4.0433
X7.4665Y-2.7457
X7.483Y-4.0125
X7.4866Y-3.6992
X7.4913Y-3.5673
X7.5551Y-4.0709
X7.5724Y-4.6902
X7.574Y-4.724
X7.5811Y-4.0709
X7.5819Y-4.1516
X7.6106Y-4.0705
X7.647Y-3.812
X7.6516Y-4.0252
X7.7055Y-4.5224
X7.7067Y-4.5559
X7.7079Y-4.5984
X7.7094Y-4.6374
X7.7146Y-3.8531
X7.7331Y-3.8945
X7.7388Y-3.8392
X7.7388Y-3.8648
X7.7677Y-4.4024
X7.8071Y-4.402
X7.8307Y-3.5524
X7.8331Y-3.5945
X7.8598Y-3.9098
X7.9116Y-4.0166
X7.9372Y-4.0166
T2
X4.5437Y-3.3748
X4.5441Y-3.189
X4.5445Y-3.2795
X4.5449Y-3.5638
X4.5457Y-3.4709
X4.5465Y-3.0657
X4.5795Y-4.448
X4.5811Y-4.2854
X4.6285Y-2.8545
X4.6299Y-3.0177
X4.7181Y-3.1272
X4.7272Y-3.0831
X4.728Y-4.4118
X4.7602Y-4.3555
X4.8067Y-3.1252
X4.8472Y-2.9283
X4.8657Y-3.0819
X4.8697Y-2.4028
X4.898Y-2.75
X4.9256Y-2.4039
X4.9512Y-2.7488
X4.961Y-3.0622
X4.9669Y-4.313
X4.9689Y-4.3543
X4.9776Y-2.4039
X4.9791Y-4.6413
X4.9803Y-4.6772
X5.0161Y-4.3579
X5.0165Y-2.7882
X5.0173Y-4.313
X5.024Y-4.702
X5.0276Y-3.0626
X5.0606Y-4.6185
X5.0638Y-4.7035
X5.0835Y-2.8646
X5.1173Y-3.0752
X5.1291Y-2.8638
X5.1752Y-2.8654
X5.189Y-2.7193
X5.2177Y-2.8642
X5.2866Y-2.7535
X5.2882Y-4.6594
X5.2894Y-4.6189
X5.3071Y-2.6429
X5.3075Y-2.4366
X5.3193Y-3.0461
X5.322Y-3.1169
X5.326Y-4.5299
X5.3421Y-4.7248
X5.3567Y-3.1413
X5.3697Y-4.5307
X5.3972Y-3.1429
X5.4012Y-2.3929
X5.411Y-2.5094
X5.4437Y-3.0394
X5.4531Y-2.5091
X5.4606Y-2.3929
X5.4917Y-2.6969
X5.4933Y-2.7421
X5.5063Y-4.6287
X5.5492Y-2.9587
X5.5508Y-2.9043
X5.5508Y-2.9965
X5.5535Y-2.8531
X5.5571Y-3.2039
X5.5984Y-4.3232
X5.6016Y-4.365
X5.602Y-2.9866
X5.6028Y-2.8626
X5.6055Y-2.9256
X5.6256Y-4.6134
X5.6287Y-4.6575
X5.6504Y-4.3661
X5.6508Y-4.322
X5.6618Y-3.1839
X5.6961Y-2.9287
X5.6969Y-2.8622
X5.7008Y-2.989
X5.7102Y-4.6252
X5.7114Y-3.2366
X5.7413Y-3.0602
X5.7634Y-3.2287
X5.8135Y-4.272
X5.8484Y-3.0445
X5.8496Y-3.0929
X5.9126Y-2.8161
X5.9138Y-2.8531
X5.9425Y-4.6224
X5.9886Y-4.6276
X6.0291Y-4.6272
X6.0866Y-3.1441
X6.0953Y-4.3138
X6.1283Y-4.6087
X6.189Y-4.6496
X6.2941Y-3.1413
X6.3173Y-4.6091
X6.3476Y-4.3028
X6.3476Y-4.3413
X6.3843Y-4.3039
X6.3846Y-4.3413
X6.3894Y-2.8063
X6.4063Y-3.0319
X6.4169Y-4.6209
X6.4236Y-3.3921
X6.4264Y-3.4417
X6.4283Y-3.4941
X6.4543Y-3.9063
X6.4567Y-3.7398
X6.4571Y-3.9433
X6.4583Y-3.7776
X6.4988Y-2.9083
X6.5425Y-4.1835
X6.5465Y-4.2248
X6.561Y-2.7469
X6.5815Y-4.1831
X6.5862Y-4.2236
X6.6039Y-4.3189
X6.6114Y-3.1146
X6.6122Y-3.0654
X6.6256Y-3.526
X6.6295Y-4.1835
X6.6327Y-3.8327
X6.6335Y-3.7831
X6.635Y-4.6197
X6.6437Y-4.3201
X6.6524Y-3.8732
X6.6528Y-3.7528
X6.6626Y-3.5256
X6.6669Y-4.2154
X6.6803Y-3.2209
X6.6803Y-4.6091
X6.6984Y-2.9681
X6.7189Y-4.6094
X6.7228Y-3.2906
X6.7386Y-3.0079
X6.7677Y-3.2909
X6.772Y-3.4654
X6.7728Y-3.9244
X6.8039Y-3.8453
X6.8039Y-4.1433
X6.8083Y-3.5283
X6.822Y-4.4799
X6.8268Y-3.4661
X6.8283Y-2.8512
X6.8406Y-3.6988
X6.8461Y-3.5283
X6.865Y-3.9047
X6.8654Y-4.0031
X6.8705Y-4.2343
X6.8787Y-3.4654
X6.885Y-2.8516
X6.8858Y-4.4748
X6.9083Y-2.4465
X6.9177Y-4.7402
X6.9283Y-3.898
X6.9323Y-3.4646
X6.935Y-3.9335
X6.937Y-3.7051
X6.9386Y-3.9819
X6.9406Y-2.8504
X6.9413Y-3.7827
X6.9717Y-2.5811
X6.9736Y-4.063
X6.9858Y-2.852
X7.0087Y-4.1465
X7.0118Y-3.1839
X7.0122Y-3.1433
X7.0122Y-3.2272
X7.0323Y-4.3406
X7.0327Y-4.3811
X7.0575Y-3.1433
X7.0575Y-3.2272
X7.0575Y-3.5449
X7.0602Y-3.5894
X7.0803Y-4.3795
X7.0811Y-4.2323
X7.0815Y-4.3417
X7.0866Y-3.4709
X7.0996Y-3.1831
X7.1Y-3.1425
X7.1Y-3.2264
X7.1004Y-2.9283
X7.1161Y-4.2319
X7.1398Y-3.7201
X7.1402Y-4.6008
X7.1406Y-3.7583
X7.1594Y-4.0244
X7.1614Y-3.3193
X7.1701Y-4.2268
X7.1732Y-3.4307
X7.1732Y-3.776
X7.1831Y-3.7193
X7.1839Y-3.0878
X7.185Y-2.9217
X7.1894Y-3.0449
X7.2008Y-4.0236
X7.2059Y-2.7508
X7.2264Y-3.8134
X7.2272Y-3.0059
X7.2272Y-3.9
X7.2335Y-3.4717
X7.2402Y-3.7406
X7.2461Y-4.0724
X7.2787Y-3.5878
X7.2858Y-4.074
X7.3008Y-4.1736
X7.3031Y-4.237
X7.3039Y-2.7913
X7.3134Y-2.7425
X7.3272Y-3.15
X7.3657Y-4.6213
X7.3685Y-4.6618
X7.3748Y-4.5614
X7.3902Y-3.6043
X7.3957Y-4.0681
X7.3969Y-4.1031
X7.4161Y-2.7457
X7.4283Y-4.5657
X7.4287Y-4.2689
X7.4307Y-4.3091
X7.4327Y-3.8087
X7.4346Y-3.8697
X7.465Y-3.9819
X7.4783Y-4.2681
X7.4815Y-4.3063
X7.5114Y-2.7461
X7.5142Y-3.9917
X7.5209Y-3.8087
X7.5228Y-3.8697
X7.548Y-3.5685
X7.5504Y-4.2705
X7.5539Y-4.3122
X7.5929Y-4.3114
X7.5961Y-4.2705
X7.5988Y-3.6012
X7.6098Y-3.724
X7.6224Y-3.8433
X7.6563Y-3.0146
X7.6626Y-3.313
X7.6768Y-3.9579
X7.6823Y-3.7157
X7.6941Y-3.2461
X7.6988Y-3.0791
X7.7067Y-3.572
X7.7094Y-3.1551
X7.7197Y-3.9531
X7.7646Y-3.9516
X7.7685Y-3.7524
X7.7972Y-3.6559
X7.7976Y-3.6177
X7.8748Y-4.0374
X7.9476Y-3.2331
X7.9933Y-4.0354
X8.0142Y-4.4346
T3
X4.4685Y-2.5591
X4.4685Y-2.7559
X4.4685Y-2.9528
X4.4685Y-3.1496
X4.4685Y-3.3465
X4.4685Y-3.5433
X4.4685Y-3.7402
X4.4685Y-3.9173
X4.4685Y-4.1339
X4.4685Y-4.3307
X4.4685Y-4.5276
X4.7244Y-2.3031
X4.7244Y-4.8622
X4.9213Y-2.3031
X4.9213Y-4.8622
X5.1181Y-2.3031
X5.1181Y-4.8622
X5.315Y-2.3031
X5.315Y-4.8622
X5.5118Y-2.3031
X5.5118Y-4.8622
X5.7087Y-2.3031
X5.7087Y-4.8622
X5.9055Y-2.3031
X5.9055Y-4.8622
X6.1024Y-2.3031
X6.1024Y-4.8622
X6.2992Y-2.3031
X6.2992Y-4.8622
X6.4961Y-2.3031
X6.4961Y-4.8622
X6.6929Y-2.3031
X6.6929Y-4.8622
X6.8898Y-2.3031
X6.8898Y-4.8622
X7.0866Y-2.3031
X7.0866Y-4.8622
X7.2835Y-2.3031
X7.2835Y-4.8622
X7.4803Y-2.3031
X7.4803Y-4.8622
X7.6772Y-2.3031
X7.6772Y-4.8622
X7.874Y-2.3031
X7.874Y-4.8622
X8.1413Y-2.5598
X8.1413Y-2.7567
X8.1413Y-2.9535
X8.1413Y-3.1504
X8.1413Y-3.3472
X8.1413Y-3.5441
X8.1413Y-3.7409
X8.1413Y-3.9378
X8.1413Y-4.1346
X8.1496Y-4.3307
X8.1496Y-4.5276
T5
X8.0382Y-4.2398
X8.0382Y-4.3972
T6
X7.8169Y-3.7709
X7.8169Y-3.8339
X7.8169Y-3.8969
X7.8642Y-3.8024
X7.8642Y-3.8654
T8
X7.4315Y-3.0055
X7.4315Y-3.1055
X7.4315Y-3.2055
X7.4315Y-3.3055
X7.4315Y-3.4055
X7.5315Y-2.9555
X7.5315Y-3.0555
X7.5315Y-3.1555
X7.5315Y-3.2555
X7.5315Y-3.3555
T9
X7.9744Y-2.9195
X7.9744Y-3.0195
X7.9744Y-3.3411
X7.9744Y-3.4411
T10
X7.1496Y-2.5488
X7.2496Y-2.5488
X7.3496Y-2.5488
X7.4496Y-2.5488
X7.5496Y-2.5488
X7.6496Y-2.5488
T11
X7.6614Y-2.8754
X7.6614Y-3.4852
T4
G00X8.0138Y-3.6902
M15
G01X8.0531Y-3.6902
M16
G05
G00X8.0138Y-3.9776
M15
G01X8.0531Y-3.9776
M16
G05
T7
G00X7.6531Y-4.296
M15
G01X7.6531Y-4.4101
M16
G05
G00X7.724Y-4.168
M15
G01X7.8382Y-4.168
M16
G05
G00X7.8972Y-4.4101
M15
G01X7.8972Y-4.296
M16
G05
M30
