%TF.GenerationSoftware,KiCad,Pcbnew,8.0.6*%
%TF.CreationDate,2025-01-12T20:29:38+06:00*%
%TF.ProjectId,zynq_soc_board_v1,7a796e71-5f73-46f6-935f-626f6172645f,rev?*%
%TF.SameCoordinates,Original*%
%TF.FileFunction,Legend,Bot*%
%TF.FilePolarity,Positive*%
%FSLAX46Y46*%
G04 Gerber Fmt 4.6, Leading zero omitted, Abs format (unit mm)*
G04 Created by KiCad (PCBNEW 8.0.6) date 2025-01-12 20:29:38*
%MOMM*%
%LPD*%
G01*
G04 APERTURE LIST*
G04 Aperture macros list*
%AMRoundRect*
0 Rectangle with rounded corners*
0 $1 Rounding radius*
0 $2 $3 $4 $5 $6 $7 $8 $9 X,Y pos of 4 corners*
0 Add a 4 corners polygon primitive as box body*
4,1,4,$2,$3,$4,$5,$6,$7,$8,$9,$2,$3,0*
0 Add four circle primitives for the rounded corners*
1,1,$1+$1,$2,$3*
1,1,$1+$1,$4,$5*
1,1,$1+$1,$6,$7*
1,1,$1+$1,$8,$9*
0 Add four rect primitives between the rounded corners*
20,1,$1+$1,$2,$3,$4,$5,0*
20,1,$1+$1,$4,$5,$6,$7,0*
20,1,$1+$1,$6,$7,$8,$9,0*
20,1,$1+$1,$8,$9,$2,$3,0*%
%AMRotRect*
0 Rectangle, with rotation*
0 The origin of the aperture is its center*
0 $1 length*
0 $2 width*
0 $3 Rotation angle, in degrees counterclockwise*
0 Add horizontal line*
21,1,$1,$2,0,0,$3*%
G04 Aperture macros list end*
%ADD10C,0.150000*%
%ADD11C,0.050000*%
%ADD12C,0.120000*%
%ADD13C,0.250000*%
%ADD14C,0.300000*%
%ADD15C,0.100000*%
%ADD16C,0.400000*%
%ADD17C,0.200000*%
%ADD18C,0.000000*%
%ADD19C,0.175000*%
%ADD20C,3.200000*%
%ADD21C,2.000000*%
%ADD22C,3.250000*%
%ADD23C,1.750000*%
%ADD24C,1.900000*%
%ADD25C,2.700000*%
%ADD26C,1.100000*%
%ADD27O,2.100000X1.100000*%
%ADD28O,2.000000X4.600000*%
%ADD29O,4.600000X2.000000*%
%ADD30R,0.370000X0.320000*%
%ADD31RoundRect,0.135000X-0.135000X-0.185000X0.135000X-0.185000X0.135000X0.185000X-0.135000X0.185000X0*%
%ADD32R,0.320000X0.370000*%
%ADD33R,0.320000X0.300000*%
%ADD34O,1.950000X0.570000*%
%ADD35R,0.300000X0.320000*%
%ADD36RoundRect,0.140000X0.140000X0.170000X-0.140000X0.170000X-0.140000X-0.170000X0.140000X-0.170000X0*%
%ADD37RoundRect,0.140000X-0.170000X0.140000X-0.170000X-0.140000X0.170000X-0.140000X0.170000X0.140000X0*%
%ADD38RoundRect,0.100000X-0.130000X-0.100000X0.130000X-0.100000X0.130000X0.100000X-0.130000X0.100000X0*%
%ADD39RotRect,0.370000X0.320000X45.000000*%
%ADD40RoundRect,0.100000X-0.100000X0.130000X-0.100000X-0.130000X0.100000X-0.130000X0.100000X0.130000X0*%
%ADD41RoundRect,0.100000X0.130000X0.100000X-0.130000X0.100000X-0.130000X-0.100000X0.130000X-0.100000X0*%
%ADD42RotRect,0.370000X0.320000X135.000000*%
%ADD43RoundRect,0.250000X-0.325000X-0.650000X0.325000X-0.650000X0.325000X0.650000X-0.325000X0.650000X0*%
%ADD44RoundRect,0.140000X0.170000X-0.140000X0.170000X0.140000X-0.170000X0.140000X-0.170000X-0.140000X0*%
%ADD45RoundRect,0.140000X-0.140000X-0.170000X0.140000X-0.170000X0.140000X0.170000X-0.140000X0.170000X0*%
%ADD46RoundRect,0.135000X0.185000X-0.135000X0.185000X0.135000X-0.185000X0.135000X-0.185000X-0.135000X0*%
%ADD47RoundRect,0.075000X0.225000X0.275000X-0.225000X0.275000X-0.225000X-0.275000X0.225000X-0.275000X0*%
%ADD48C,0.650000*%
%ADD49R,1.900000X1.500000*%
%ADD50R,1.900000X1.900000*%
%ADD51R,1.350000X0.400000*%
%ADD52RoundRect,0.250000X0.325000X0.650000X-0.325000X0.650000X-0.325000X-0.650000X0.325000X-0.650000X0*%
%ADD53R,0.540000X0.790000*%
%ADD54R,0.660000X0.280000*%
%ADD55R,1.500000X2.300000*%
%ADD56RoundRect,0.135000X-0.185000X0.135000X-0.185000X-0.135000X0.185000X-0.135000X0.185000X0.135000X0*%
%ADD57R,1.410000X1.350000*%
%ADD58RoundRect,0.147500X-0.147500X-0.172500X0.147500X-0.172500X0.147500X0.172500X-0.147500X0.172500X0*%
%ADD59RotRect,0.370000X0.320000X225.000000*%
%ADD60RoundRect,0.075000X0.275000X-0.225000X0.275000X0.225000X-0.275000X0.225000X-0.275000X-0.225000X0*%
%ADD61R,0.750000X1.000000*%
%ADD62R,1.350000X1.410000*%
%ADD63RoundRect,0.135000X0.135000X0.185000X-0.135000X0.185000X-0.135000X-0.185000X0.135000X-0.185000X0*%
%ADD64R,0.500000X2.000000*%
%ADD65R,0.580000X0.280000*%
%ADD66RoundRect,0.147500X0.147500X0.172500X-0.147500X0.172500X-0.147500X-0.172500X0.147500X-0.172500X0*%
%ADD67RoundRect,0.250000X-0.650000X0.325000X-0.650000X-0.325000X0.650000X-0.325000X0.650000X0.325000X0*%
%ADD68RoundRect,0.040000X-0.410000X-0.360000X0.410000X-0.360000X0.410000X0.360000X-0.410000X0.360000X0*%
%ADD69RoundRect,0.056500X-1.163500X0.508500X-1.163500X-0.508500X1.163500X-0.508500X1.163500X0.508500X0*%
G04 APERTURE END LIST*
D10*
X146952628Y-91248571D02*
X146981200Y-91219999D01*
X146981200Y-91219999D02*
X147009771Y-91134285D01*
X147009771Y-91134285D02*
X147009771Y-91077142D01*
X147009771Y-91077142D02*
X146981200Y-90991428D01*
X146981200Y-90991428D02*
X146924057Y-90934285D01*
X146924057Y-90934285D02*
X146866914Y-90905714D01*
X146866914Y-90905714D02*
X146752628Y-90877142D01*
X146752628Y-90877142D02*
X146666914Y-90877142D01*
X146666914Y-90877142D02*
X146552628Y-90905714D01*
X146552628Y-90905714D02*
X146495485Y-90934285D01*
X146495485Y-90934285D02*
X146438342Y-90991428D01*
X146438342Y-90991428D02*
X146409771Y-91077142D01*
X146409771Y-91077142D02*
X146409771Y-91134285D01*
X146409771Y-91134285D02*
X146438342Y-91219999D01*
X146438342Y-91219999D02*
X146466914Y-91248571D01*
X146409771Y-91762857D02*
X146409771Y-91648571D01*
X146409771Y-91648571D02*
X146438342Y-91591428D01*
X146438342Y-91591428D02*
X146466914Y-91562857D01*
X146466914Y-91562857D02*
X146552628Y-91505714D01*
X146552628Y-91505714D02*
X146666914Y-91477142D01*
X146666914Y-91477142D02*
X146895485Y-91477142D01*
X146895485Y-91477142D02*
X146952628Y-91505714D01*
X146952628Y-91505714D02*
X146981200Y-91534285D01*
X146981200Y-91534285D02*
X147009771Y-91591428D01*
X147009771Y-91591428D02*
X147009771Y-91705714D01*
X147009771Y-91705714D02*
X146981200Y-91762857D01*
X146981200Y-91762857D02*
X146952628Y-91791428D01*
X146952628Y-91791428D02*
X146895485Y-91819999D01*
X146895485Y-91819999D02*
X146752628Y-91819999D01*
X146752628Y-91819999D02*
X146695485Y-91791428D01*
X146695485Y-91791428D02*
X146666914Y-91762857D01*
X146666914Y-91762857D02*
X146638342Y-91705714D01*
X146638342Y-91705714D02*
X146638342Y-91591428D01*
X146638342Y-91591428D02*
X146666914Y-91534285D01*
X146666914Y-91534285D02*
X146695485Y-91505714D01*
X146695485Y-91505714D02*
X146752628Y-91477142D01*
X147009771Y-92391428D02*
X147009771Y-92048571D01*
X147009771Y-92220000D02*
X146409771Y-92220000D01*
X146409771Y-92220000D02*
X146495485Y-92162857D01*
X146495485Y-92162857D02*
X146552628Y-92105714D01*
X146552628Y-92105714D02*
X146581200Y-92048571D01*
X146466914Y-92620000D02*
X146438342Y-92648572D01*
X146438342Y-92648572D02*
X146409771Y-92705715D01*
X146409771Y-92705715D02*
X146409771Y-92848572D01*
X146409771Y-92848572D02*
X146438342Y-92905715D01*
X146438342Y-92905715D02*
X146466914Y-92934286D01*
X146466914Y-92934286D02*
X146524057Y-92962857D01*
X146524057Y-92962857D02*
X146581200Y-92962857D01*
X146581200Y-92962857D02*
X146666914Y-92934286D01*
X146666914Y-92934286D02*
X147009771Y-92591429D01*
X147009771Y-92591429D02*
X147009771Y-92962857D01*
X131662628Y-98558571D02*
X131691200Y-98529999D01*
X131691200Y-98529999D02*
X131719771Y-98444285D01*
X131719771Y-98444285D02*
X131719771Y-98387142D01*
X131719771Y-98387142D02*
X131691200Y-98301428D01*
X131691200Y-98301428D02*
X131634057Y-98244285D01*
X131634057Y-98244285D02*
X131576914Y-98215714D01*
X131576914Y-98215714D02*
X131462628Y-98187142D01*
X131462628Y-98187142D02*
X131376914Y-98187142D01*
X131376914Y-98187142D02*
X131262628Y-98215714D01*
X131262628Y-98215714D02*
X131205485Y-98244285D01*
X131205485Y-98244285D02*
X131148342Y-98301428D01*
X131148342Y-98301428D02*
X131119771Y-98387142D01*
X131119771Y-98387142D02*
X131119771Y-98444285D01*
X131119771Y-98444285D02*
X131148342Y-98529999D01*
X131148342Y-98529999D02*
X131176914Y-98558571D01*
X131119771Y-98758571D02*
X131119771Y-99158571D01*
X131119771Y-99158571D02*
X131719771Y-98901428D01*
X131119771Y-99330000D02*
X131119771Y-99701428D01*
X131119771Y-99701428D02*
X131348342Y-99501428D01*
X131348342Y-99501428D02*
X131348342Y-99587143D01*
X131348342Y-99587143D02*
X131376914Y-99644286D01*
X131376914Y-99644286D02*
X131405485Y-99672857D01*
X131405485Y-99672857D02*
X131462628Y-99701428D01*
X131462628Y-99701428D02*
X131605485Y-99701428D01*
X131605485Y-99701428D02*
X131662628Y-99672857D01*
X131662628Y-99672857D02*
X131691200Y-99644286D01*
X131691200Y-99644286D02*
X131719771Y-99587143D01*
X131719771Y-99587143D02*
X131719771Y-99415714D01*
X131719771Y-99415714D02*
X131691200Y-99358571D01*
X131691200Y-99358571D02*
X131662628Y-99330000D01*
X131176914Y-99930000D02*
X131148342Y-99958572D01*
X131148342Y-99958572D02*
X131119771Y-100015715D01*
X131119771Y-100015715D02*
X131119771Y-100158572D01*
X131119771Y-100158572D02*
X131148342Y-100215715D01*
X131148342Y-100215715D02*
X131176914Y-100244286D01*
X131176914Y-100244286D02*
X131234057Y-100272857D01*
X131234057Y-100272857D02*
X131291200Y-100272857D01*
X131291200Y-100272857D02*
X131376914Y-100244286D01*
X131376914Y-100244286D02*
X131719771Y-99901429D01*
X131719771Y-99901429D02*
X131719771Y-100272857D01*
X178489771Y-110278571D02*
X178204057Y-110078571D01*
X178489771Y-109935714D02*
X177889771Y-109935714D01*
X177889771Y-109935714D02*
X177889771Y-110164285D01*
X177889771Y-110164285D02*
X177918342Y-110221428D01*
X177918342Y-110221428D02*
X177946914Y-110249999D01*
X177946914Y-110249999D02*
X178004057Y-110278571D01*
X178004057Y-110278571D02*
X178089771Y-110278571D01*
X178089771Y-110278571D02*
X178146914Y-110249999D01*
X178146914Y-110249999D02*
X178175485Y-110221428D01*
X178175485Y-110221428D02*
X178204057Y-110164285D01*
X178204057Y-110164285D02*
X178204057Y-109935714D01*
X177889771Y-110478571D02*
X177889771Y-110849999D01*
X177889771Y-110849999D02*
X178118342Y-110649999D01*
X178118342Y-110649999D02*
X178118342Y-110735714D01*
X178118342Y-110735714D02*
X178146914Y-110792857D01*
X178146914Y-110792857D02*
X178175485Y-110821428D01*
X178175485Y-110821428D02*
X178232628Y-110849999D01*
X178232628Y-110849999D02*
X178375485Y-110849999D01*
X178375485Y-110849999D02*
X178432628Y-110821428D01*
X178432628Y-110821428D02*
X178461200Y-110792857D01*
X178461200Y-110792857D02*
X178489771Y-110735714D01*
X178489771Y-110735714D02*
X178489771Y-110564285D01*
X178489771Y-110564285D02*
X178461200Y-110507142D01*
X178461200Y-110507142D02*
X178432628Y-110478571D01*
X177946914Y-111078571D02*
X177918342Y-111107143D01*
X177918342Y-111107143D02*
X177889771Y-111164286D01*
X177889771Y-111164286D02*
X177889771Y-111307143D01*
X177889771Y-111307143D02*
X177918342Y-111364286D01*
X177918342Y-111364286D02*
X177946914Y-111392857D01*
X177946914Y-111392857D02*
X178004057Y-111421428D01*
X178004057Y-111421428D02*
X178061200Y-111421428D01*
X178061200Y-111421428D02*
X178146914Y-111392857D01*
X178146914Y-111392857D02*
X178489771Y-111050000D01*
X178489771Y-111050000D02*
X178489771Y-111421428D01*
X177889771Y-111964286D02*
X177889771Y-111678572D01*
X177889771Y-111678572D02*
X178175485Y-111650000D01*
X178175485Y-111650000D02*
X178146914Y-111678572D01*
X178146914Y-111678572D02*
X178118342Y-111735715D01*
X178118342Y-111735715D02*
X178118342Y-111878572D01*
X178118342Y-111878572D02*
X178146914Y-111935715D01*
X178146914Y-111935715D02*
X178175485Y-111964286D01*
X178175485Y-111964286D02*
X178232628Y-111992857D01*
X178232628Y-111992857D02*
X178375485Y-111992857D01*
X178375485Y-111992857D02*
X178432628Y-111964286D01*
X178432628Y-111964286D02*
X178461200Y-111935715D01*
X178461200Y-111935715D02*
X178489771Y-111878572D01*
X178489771Y-111878572D02*
X178489771Y-111735715D01*
X178489771Y-111735715D02*
X178461200Y-111678572D01*
X178461200Y-111678572D02*
X178432628Y-111650000D01*
D11*
%TO.C,C718*%
X133170000Y-89820000D02*
X133530000Y-89820000D01*
X133170000Y-90430000D02*
X133170000Y-89820000D01*
X133530000Y-90430000D02*
X133170000Y-90430000D01*
X133860000Y-90430000D02*
X134220000Y-90430000D01*
X134220000Y-89810000D02*
X133860000Y-89810000D01*
X134220000Y-90430000D02*
X134220000Y-89810000D01*
D12*
%TO.C,R326*%
X178713641Y-106780000D02*
X178406359Y-106780000D01*
X178713641Y-107540000D02*
X178406359Y-107540000D01*
D11*
%TO.C,C226*%
X146090000Y-97800000D02*
X146090000Y-98160000D01*
X146100000Y-98850000D02*
X146100000Y-98490000D01*
X146710000Y-97800000D02*
X146090000Y-97800000D01*
X146710000Y-98160000D02*
X146710000Y-97800000D01*
X146710000Y-98490000D02*
X146710000Y-98850000D01*
X146710000Y-98850000D02*
X146100000Y-98850000D01*
%TO.C,R606*%
X125660000Y-79515000D02*
X126310000Y-79515000D01*
X125660000Y-79965000D02*
X125660000Y-79515000D01*
X125660000Y-80295000D02*
X125660000Y-80745000D01*
X125660000Y-80745000D02*
X126320000Y-80735000D01*
X126310000Y-79515000D02*
X126310000Y-79965000D01*
X126320000Y-80735000D02*
X126320000Y-80285000D01*
%TO.C,C612*%
X147720000Y-91370000D02*
X148330000Y-91370000D01*
X147720000Y-91730000D02*
X147720000Y-91370000D01*
X147720000Y-92060000D02*
X147720000Y-92420000D01*
X147720000Y-92420000D02*
X148340000Y-92420000D01*
X148330000Y-91370000D02*
X148330000Y-91730000D01*
X148340000Y-92420000D02*
X148340000Y-92060000D01*
D13*
%TO.C,U301*%
X172155000Y-109775000D02*
X172155000Y-104775000D01*
X172925000Y-104775000D02*
X172155000Y-104775000D01*
X174385000Y-104775000D02*
X175155000Y-104775000D01*
X175155000Y-109775000D02*
X172155000Y-109775000D01*
X175155000Y-109775000D02*
X175155000Y-104775000D01*
X172925000Y-104775000D02*
G75*
G02*
X172925111Y-104787740I730000J-10D01*
G01*
D14*
X174825000Y-105495000D02*
G75*
G02*
X174525000Y-105495000I-150000J0D01*
G01*
X174525000Y-105495000D02*
G75*
G02*
X174825000Y-105495000I150000J0D01*
G01*
D11*
%TO.C,R609*%
X117345000Y-90990000D02*
X117795000Y-90990000D01*
X117345000Y-91640000D02*
X117345000Y-90990000D01*
X117795000Y-91640000D02*
X117345000Y-91640000D01*
X118125000Y-91640000D02*
X118575000Y-91640000D01*
X118565000Y-90980000D02*
X118115000Y-90980000D01*
X118575000Y-91640000D02*
X118565000Y-90980000D01*
%TO.C,R623*%
X117365000Y-87770000D02*
X117815000Y-87770000D01*
X117365000Y-88420000D02*
X117365000Y-87770000D01*
X117815000Y-88420000D02*
X117365000Y-88420000D01*
X118145000Y-88420000D02*
X118595000Y-88420000D01*
X118585000Y-87760000D02*
X118135000Y-87760000D01*
X118595000Y-88420000D02*
X118585000Y-87760000D01*
D12*
%TO.C,C405*%
X142282164Y-81020000D02*
X142497836Y-81020000D01*
X142282164Y-81740000D02*
X142497836Y-81740000D01*
D11*
%TO.C,C227*%
X146680000Y-97220000D02*
X147040000Y-97220000D01*
X146680000Y-97830000D02*
X146680000Y-97220000D01*
X147040000Y-97830000D02*
X146680000Y-97830000D01*
X147370000Y-97830000D02*
X147730000Y-97830000D01*
X147730000Y-97210000D02*
X147370000Y-97210000D01*
X147730000Y-97830000D02*
X147730000Y-97210000D01*
%TO.C,C701*%
X129620000Y-80980000D02*
X129980000Y-80980000D01*
X129620000Y-81590000D02*
X129620000Y-80980000D01*
X129980000Y-81590000D02*
X129620000Y-81590000D01*
X130310000Y-81590000D02*
X130670000Y-81590000D01*
X130670000Y-80970000D02*
X130310000Y-80970000D01*
X130670000Y-81590000D02*
X130670000Y-80970000D01*
%TO.C,C244*%
X155930000Y-98640000D02*
X155930000Y-99260000D01*
X155930000Y-99260000D02*
X156290000Y-99260000D01*
X156290000Y-98640000D02*
X155930000Y-98640000D01*
X156620000Y-98640000D02*
X156980000Y-98640000D01*
X156980000Y-98640000D02*
X156980000Y-99250000D01*
X156980000Y-99250000D02*
X156620000Y-99250000D01*
D12*
%TO.C,C409*%
X159210000Y-73897836D02*
X159210000Y-73682164D01*
X159930000Y-73897836D02*
X159930000Y-73682164D01*
D11*
%TO.C,R608*%
X117365000Y-83810000D02*
X117815000Y-83810000D01*
X117365000Y-84460000D02*
X117365000Y-83810000D01*
X117815000Y-84460000D02*
X117365000Y-84460000D01*
X118145000Y-84460000D02*
X118595000Y-84460000D01*
X118585000Y-83800000D02*
X118135000Y-83800000D01*
X118595000Y-84460000D02*
X118585000Y-83800000D01*
%TO.C,C709*%
X134380000Y-80980000D02*
X134380000Y-81600000D01*
X134380000Y-81600000D02*
X134740000Y-81600000D01*
X134740000Y-80980000D02*
X134380000Y-80980000D01*
X135070000Y-80980000D02*
X135430000Y-80980000D01*
X135430000Y-80980000D02*
X135430000Y-81590000D01*
X135430000Y-81590000D02*
X135070000Y-81590000D01*
%TO.C,C228*%
X145000000Y-86810000D02*
X145360000Y-86810000D01*
X145000000Y-87420000D02*
X145000000Y-86810000D01*
X145360000Y-87420000D02*
X145000000Y-87420000D01*
X145690000Y-87420000D02*
X146050000Y-87420000D01*
X146050000Y-86800000D02*
X145690000Y-86800000D01*
X146050000Y-87420000D02*
X146050000Y-86800000D01*
%TO.C,C231*%
X147492182Y-93613554D02*
X147746741Y-93358995D01*
X147923518Y-94044889D02*
X147492182Y-93613554D01*
X148178076Y-93790330D02*
X147923518Y-94044889D01*
X148227573Y-92864020D02*
X147973015Y-93118579D01*
X148411421Y-93556985D02*
X148665980Y-93302427D01*
X148665980Y-93302427D02*
X148227573Y-92864020D01*
%TO.C,R619*%
X117365000Y-84610000D02*
X117815000Y-84610000D01*
X117365000Y-85260000D02*
X117365000Y-84610000D01*
X117815000Y-85260000D02*
X117365000Y-85260000D01*
X118145000Y-85260000D02*
X118595000Y-85260000D01*
X118585000Y-84600000D02*
X118135000Y-84600000D01*
X118595000Y-85260000D02*
X118585000Y-84600000D01*
%TO.C,C217*%
X149550000Y-90260000D02*
X149910000Y-90260000D01*
X149550000Y-90870000D02*
X149550000Y-90260000D01*
X149910000Y-90870000D02*
X149550000Y-90870000D01*
X150240000Y-90870000D02*
X150600000Y-90870000D01*
X150600000Y-90250000D02*
X150240000Y-90250000D01*
X150600000Y-90870000D02*
X150600000Y-90250000D01*
%TO.C,C215*%
X148213101Y-89381508D02*
X148467660Y-89636066D01*
X148651508Y-88943101D02*
X148213101Y-89381508D01*
X148906066Y-89197660D02*
X148651508Y-88943101D01*
X148962635Y-90116899D02*
X148708076Y-89862340D01*
X149139411Y-89431005D02*
X149393970Y-89685563D01*
X149393970Y-89685563D02*
X148962635Y-90116899D01*
%TO.C,R610*%
X117365000Y-90210000D02*
X117815000Y-90210000D01*
X117365000Y-90860000D02*
X117365000Y-90210000D01*
X117815000Y-90860000D02*
X117365000Y-90860000D01*
X118145000Y-90860000D02*
X118595000Y-90860000D01*
X118585000Y-90200000D02*
X118135000Y-90200000D01*
X118595000Y-90860000D02*
X118585000Y-90200000D01*
D12*
%TO.C,C212*%
X170136252Y-111910000D02*
X168713748Y-111910000D01*
X170136252Y-110090000D02*
X168713748Y-110090000D01*
%TO.C,C903*%
X187830000Y-95207836D02*
X187830000Y-94992164D01*
X188550000Y-95207836D02*
X188550000Y-94992164D01*
D11*
%TO.C,C218*%
X149550000Y-91810000D02*
X149910000Y-91810000D01*
X149550000Y-92420000D02*
X149550000Y-91810000D01*
X149910000Y-92420000D02*
X149550000Y-92420000D01*
X150240000Y-92420000D02*
X150600000Y-92420000D01*
X150600000Y-91800000D02*
X150240000Y-91800000D01*
X150600000Y-92420000D02*
X150600000Y-91800000D01*
D12*
%TO.C,C408*%
X156160000Y-73742164D02*
X156160000Y-73957836D01*
X156880000Y-73742164D02*
X156880000Y-73957836D01*
D11*
%TO.C,C242*%
X150320000Y-99520000D02*
X150320000Y-100140000D01*
X150320000Y-100140000D02*
X150680000Y-100140000D01*
X150680000Y-99520000D02*
X150320000Y-99520000D01*
X151010000Y-99520000D02*
X151370000Y-99520000D01*
X151370000Y-99520000D02*
X151370000Y-100130000D01*
X151370000Y-100130000D02*
X151010000Y-100130000D01*
D12*
%TO.C,C816*%
X185847836Y-76430000D02*
X185632164Y-76430000D01*
X185847836Y-77150000D02*
X185632164Y-77150000D01*
D11*
%TO.C,R621*%
X117345000Y-86200000D02*
X117795000Y-86200000D01*
X117345000Y-86850000D02*
X117345000Y-86200000D01*
X117795000Y-86850000D02*
X117345000Y-86850000D01*
X118125000Y-86850000D02*
X118575000Y-86850000D01*
X118565000Y-86190000D02*
X118115000Y-86190000D01*
X118575000Y-86850000D02*
X118565000Y-86190000D01*
%TO.C,C607*%
X115930000Y-85390000D02*
X115930000Y-86010000D01*
X115930000Y-86010000D02*
X116290000Y-86010000D01*
X116290000Y-85390000D02*
X115930000Y-85390000D01*
X116620000Y-85390000D02*
X116980000Y-85390000D01*
X116980000Y-85390000D02*
X116980000Y-86000000D01*
X116980000Y-86000000D02*
X116620000Y-86000000D01*
D12*
%TO.C,R324*%
X178760000Y-108546359D02*
X178760000Y-108853641D01*
X179520000Y-108546359D02*
X179520000Y-108853641D01*
D11*
%TO.C,R617*%
X117365000Y-89400000D02*
X117815000Y-89400000D01*
X117365000Y-90050000D02*
X117365000Y-89400000D01*
X117815000Y-90050000D02*
X117365000Y-90050000D01*
X118145000Y-90050000D02*
X118595000Y-90050000D01*
X118585000Y-89390000D02*
X118135000Y-89390000D01*
X118595000Y-90050000D02*
X118585000Y-89390000D01*
D12*
%TO.C,C804*%
X181842164Y-81340000D02*
X182057836Y-81340000D01*
X181842164Y-82060000D02*
X182057836Y-82060000D01*
D13*
%TO.C,J301*%
X203500000Y-107960000D02*
X203500000Y-105930000D01*
X203500000Y-113430000D02*
X203500000Y-111430000D01*
X205140000Y-113430000D02*
X203500000Y-113430000D01*
X205200000Y-105930000D02*
X203500000Y-105930000D01*
X207440000Y-105970000D02*
X208380000Y-105970000D01*
X208380000Y-105970000D02*
X208570000Y-105780000D01*
X208450000Y-113430000D02*
X207510000Y-113430000D01*
X208480000Y-113430000D02*
X208450000Y-113430000D01*
X208570000Y-105780000D02*
X208630000Y-105780000D01*
X208630000Y-105780000D02*
X208630000Y-113580000D01*
X208630000Y-113580000D02*
X208480000Y-113430000D01*
D11*
%TO.C,C206*%
X153100000Y-92560000D02*
X153100000Y-92920000D01*
X153110000Y-93610000D02*
X153110000Y-93250000D01*
X153720000Y-92560000D02*
X153100000Y-92560000D01*
X153720000Y-92920000D02*
X153720000Y-92560000D01*
X153720000Y-93250000D02*
X153720000Y-93610000D01*
X153720000Y-93610000D02*
X153110000Y-93610000D01*
D12*
%TO.C,C316*%
X169000000Y-105837836D02*
X169000000Y-105622164D01*
X169720000Y-105837836D02*
X169720000Y-105622164D01*
%TO.C,C248*%
X173933748Y-110210000D02*
X175356252Y-110210000D01*
X173933748Y-112030000D02*
X175356252Y-112030000D01*
D11*
%TO.C,C703*%
X122050000Y-80910000D02*
X122050000Y-81530000D01*
X122050000Y-81530000D02*
X122410000Y-81530000D01*
X122410000Y-80910000D02*
X122050000Y-80910000D01*
X122740000Y-80910000D02*
X123100000Y-80910000D01*
X123100000Y-80910000D02*
X123100000Y-81520000D01*
X123100000Y-81520000D02*
X122740000Y-81520000D01*
%TO.C,C601*%
X127340000Y-78340000D02*
X127340000Y-78700000D01*
X127350000Y-79390000D02*
X127350000Y-79030000D01*
X127960000Y-78340000D02*
X127340000Y-78340000D01*
X127960000Y-78700000D02*
X127960000Y-78340000D01*
X127960000Y-79030000D02*
X127960000Y-79390000D01*
X127960000Y-79390000D02*
X127350000Y-79390000D01*
%TO.C,C717*%
X131190000Y-89700000D02*
X131190000Y-90320000D01*
X131190000Y-90320000D02*
X131550000Y-90320000D01*
X131550000Y-89700000D02*
X131190000Y-89700000D01*
X131880000Y-89700000D02*
X132240000Y-89700000D01*
X132240000Y-89700000D02*
X132240000Y-90310000D01*
X132240000Y-90310000D02*
X131880000Y-90310000D01*
D12*
%TO.C,C817*%
X185817836Y-75490000D02*
X185602164Y-75490000D01*
X185817836Y-76210000D02*
X185602164Y-76210000D01*
%TO.C,R328*%
X176670000Y-99266359D02*
X176670000Y-99573641D01*
X177430000Y-99266359D02*
X177430000Y-99573641D01*
%TO.C,C236*%
X156517836Y-94690000D02*
X156302164Y-94690000D01*
X156517836Y-95410000D02*
X156302164Y-95410000D01*
%TO.C,C801*%
X176737836Y-82500000D02*
X176522164Y-82500000D01*
X176737836Y-83220000D02*
X176522164Y-83220000D01*
%TO.C,C901*%
X192172164Y-97290000D02*
X192387836Y-97290000D01*
X192172164Y-98010000D02*
X192387836Y-98010000D01*
D11*
%TO.C,C720*%
X129570000Y-87580000D02*
X130180000Y-87580000D01*
X129570000Y-87940000D02*
X129570000Y-87580000D01*
X129570000Y-88270000D02*
X129570000Y-88630000D01*
X129570000Y-88630000D02*
X130190000Y-88630000D01*
X130180000Y-87580000D02*
X130180000Y-87940000D01*
X130190000Y-88630000D02*
X130190000Y-88270000D01*
D10*
%TO.C,D901*%
X196840000Y-95730000D02*
X196840000Y-96520000D01*
X196840000Y-97770000D02*
X196840000Y-96980000D01*
X197690000Y-95580000D02*
X196990000Y-95580000D01*
X197690000Y-97920000D02*
X196990000Y-97920000D01*
X197840000Y-96520000D02*
X197840000Y-95730000D01*
X197840000Y-96980000D02*
X197840000Y-97770000D01*
X196840000Y-95730000D02*
G75*
G02*
X196990000Y-95580000I150000J0D01*
G01*
X196990000Y-97920000D02*
G75*
G02*
X196840000Y-97770000I0J150000D01*
G01*
X197690000Y-95580000D02*
G75*
G02*
X197840000Y-95730000I0J-150000D01*
G01*
X197840000Y-97770000D02*
G75*
G02*
X197690000Y-97920000I-150000J0D01*
G01*
D12*
%TO.C,C247*%
X153072164Y-98850000D02*
X153287836Y-98850000D01*
X153072164Y-99570000D02*
X153287836Y-99570000D01*
D11*
%TO.C,C715*%
X127180000Y-88770000D02*
X127540000Y-88770000D01*
X127180000Y-89380000D02*
X127180000Y-88770000D01*
X127540000Y-89380000D02*
X127180000Y-89380000D01*
X127870000Y-89380000D02*
X128230000Y-89380000D01*
X128230000Y-88760000D02*
X127870000Y-88760000D01*
X128230000Y-89380000D02*
X128230000Y-88760000D01*
D10*
%TO.C,U100*%
X183900000Y-105260000D02*
X187060000Y-105260000D01*
X183900000Y-105510000D02*
X183900000Y-105260000D01*
X183900000Y-108170000D02*
X183900000Y-108420000D01*
X183900000Y-108420000D02*
X187060000Y-108420000D01*
X187060000Y-105260000D02*
X187060000Y-105510000D01*
X187060000Y-108420000D02*
X187060000Y-108170000D01*
X187590000Y-105840000D02*
G75*
G02*
X187450000Y-105840000I-70000J0D01*
G01*
X187450000Y-105840000D02*
G75*
G02*
X187590000Y-105840000I70000J0D01*
G01*
D12*
%TO.C,C216*%
X145780000Y-83502164D02*
X145780000Y-83717836D01*
X146500000Y-83502164D02*
X146500000Y-83717836D01*
%TO.C,R101*%
X186690000Y-109973641D02*
X186690000Y-109666359D01*
X187450000Y-109973641D02*
X187450000Y-109666359D01*
D11*
%TO.C,C613*%
X147423101Y-95302635D02*
X147677660Y-95048076D01*
X147854437Y-95733970D02*
X147423101Y-95302635D01*
X148108995Y-95479411D02*
X147854437Y-95733970D01*
X148158492Y-94553101D02*
X147903934Y-94807660D01*
X148342340Y-95246066D02*
X148596899Y-94991508D01*
X148596899Y-94991508D02*
X148158492Y-94553101D01*
%TO.C,R604*%
X117325000Y-85420000D02*
X117775000Y-85420000D01*
X117325000Y-86070000D02*
X117325000Y-85420000D01*
X117775000Y-86070000D02*
X117325000Y-86070000D01*
X118105000Y-86070000D02*
X118555000Y-86070000D01*
X118545000Y-85410000D02*
X118095000Y-85410000D01*
X118555000Y-86070000D02*
X118545000Y-85410000D01*
%TO.C,C245*%
X147980000Y-97750000D02*
X147980000Y-98370000D01*
X147980000Y-98370000D02*
X148340000Y-98370000D01*
X148340000Y-97750000D02*
X147980000Y-97750000D01*
X148670000Y-97750000D02*
X149030000Y-97750000D01*
X149030000Y-97750000D02*
X149030000Y-98360000D01*
X149030000Y-98360000D02*
X148670000Y-98360000D01*
%TO.C,C710*%
X131880000Y-83150000D02*
X131880000Y-83770000D01*
X131880000Y-83770000D02*
X132240000Y-83770000D01*
X132240000Y-83150000D02*
X131880000Y-83150000D01*
X132570000Y-83150000D02*
X132930000Y-83150000D01*
X132930000Y-83150000D02*
X132930000Y-83760000D01*
X132930000Y-83760000D02*
X132570000Y-83760000D01*
D12*
%TO.C,C224*%
X192293748Y-116870000D02*
X193716252Y-116870000D01*
X192293748Y-118690000D02*
X193716252Y-118690000D01*
D11*
%TO.C,C719*%
X135460000Y-88350000D02*
X136070000Y-88350000D01*
X135460000Y-88710000D02*
X135460000Y-88350000D01*
X135460000Y-89040000D02*
X135460000Y-89400000D01*
X135460000Y-89400000D02*
X136080000Y-89400000D01*
X136070000Y-88350000D02*
X136070000Y-88710000D01*
X136080000Y-89400000D02*
X136080000Y-89040000D01*
D12*
%TO.C,R427*%
X150810000Y-86843641D02*
X150810000Y-86536359D01*
X151570000Y-86843641D02*
X151570000Y-86536359D01*
D10*
%TO.C,C103*%
X183690000Y-105220000D02*
X183690000Y-103720000D01*
X183840000Y-103570000D02*
X185250000Y-103570000D01*
X185250000Y-105370000D02*
X183840000Y-105370000D01*
X186050000Y-105370000D02*
X187460000Y-105370000D01*
X187460000Y-103570000D02*
X186050000Y-103570000D01*
X187610000Y-105220000D02*
X187610000Y-103720000D01*
X183690000Y-103720000D02*
G75*
G02*
X183840000Y-103570000I150000J0D01*
G01*
X183840000Y-105370000D02*
G75*
G02*
X183690000Y-105220000I0J150000D01*
G01*
X187460000Y-103570000D02*
G75*
G02*
X187610000Y-103720000I0J-150000D01*
G01*
X187610000Y-105220000D02*
G75*
G02*
X187460000Y-105370000I-150000J0D01*
G01*
D12*
%TO.C,R400*%
X148600000Y-83813641D02*
X148600000Y-83506359D01*
X149360000Y-83813641D02*
X149360000Y-83506359D01*
D11*
%TO.C,C708*%
X132810000Y-80980000D02*
X132810000Y-81600000D01*
X132810000Y-81600000D02*
X133170000Y-81600000D01*
X133170000Y-80980000D02*
X132810000Y-80980000D01*
X133500000Y-80980000D02*
X133860000Y-80980000D01*
X133860000Y-80980000D02*
X133860000Y-81590000D01*
X133860000Y-81590000D02*
X133500000Y-81590000D01*
D12*
%TO.C,R403*%
X182823641Y-117790000D02*
X182516359Y-117790000D01*
X182823641Y-118550000D02*
X182516359Y-118550000D01*
D15*
%TO.C,D306*%
X201477500Y-103320000D02*
G75*
G02*
X201377500Y-103320000I-50000J0D01*
G01*
X201377500Y-103320000D02*
G75*
G02*
X201477500Y-103320000I50000J0D01*
G01*
D11*
%TO.C,C239*%
X157860000Y-90140000D02*
X158470000Y-90140000D01*
X157860000Y-90500000D02*
X157860000Y-90140000D01*
X157860000Y-90830000D02*
X157860000Y-91190000D01*
X157860000Y-91190000D02*
X158480000Y-91190000D01*
X158470000Y-90140000D02*
X158470000Y-90500000D01*
X158480000Y-91190000D02*
X158480000Y-90830000D01*
D12*
%TO.C,C608*%
X128910000Y-78482164D02*
X128910000Y-78697836D01*
X129630000Y-78482164D02*
X129630000Y-78697836D01*
%TO.C,R903*%
X195423641Y-98410000D02*
X195116359Y-98410000D01*
X195423641Y-99170000D02*
X195116359Y-99170000D01*
%TO.C,C413*%
X160300000Y-73917836D02*
X160300000Y-73702164D01*
X161020000Y-73917836D02*
X161020000Y-73702164D01*
%TO.C,C802*%
X176727836Y-81310000D02*
X176512164Y-81310000D01*
X176727836Y-82030000D02*
X176512164Y-82030000D01*
%TO.C,C815*%
X182810000Y-89142164D02*
X182810000Y-89357836D01*
X183530000Y-89142164D02*
X183530000Y-89357836D01*
D11*
%TO.C,C603*%
X125700000Y-78300000D02*
X125700000Y-78660000D01*
X125710000Y-79350000D02*
X125710000Y-78990000D01*
X126320000Y-78300000D02*
X125700000Y-78300000D01*
X126320000Y-78660000D02*
X126320000Y-78300000D01*
X126320000Y-78990000D02*
X126320000Y-79350000D01*
X126320000Y-79350000D02*
X125710000Y-79350000D01*
%TO.C,C241*%
X155080000Y-92960000D02*
X155080000Y-93580000D01*
X155080000Y-93580000D02*
X155440000Y-93580000D01*
X155440000Y-92960000D02*
X155080000Y-92960000D01*
X155770000Y-92960000D02*
X156130000Y-92960000D01*
X156130000Y-92960000D02*
X156130000Y-93570000D01*
X156130000Y-93570000D02*
X155770000Y-93570000D01*
%TO.C,R600*%
X127035000Y-85680000D02*
X127485000Y-85680000D01*
X127035000Y-86330000D02*
X127035000Y-85680000D01*
X127485000Y-86330000D02*
X127035000Y-86330000D01*
X127815000Y-86330000D02*
X128265000Y-86330000D01*
X128255000Y-85670000D02*
X127805000Y-85670000D01*
X128265000Y-86330000D02*
X128255000Y-85670000D01*
%TO.C,C211*%
X146813101Y-101508492D02*
X147251508Y-101946899D01*
X147067660Y-101253934D02*
X146813101Y-101508492D01*
X147251508Y-101946899D02*
X147506066Y-101692340D01*
X147301005Y-101020589D02*
X147555563Y-100766030D01*
X147555563Y-100766030D02*
X147986899Y-101197365D01*
X147986899Y-101197365D02*
X147732340Y-101451924D01*
D12*
%TO.C,C200*%
X138223748Y-111020000D02*
X139646252Y-111020000D01*
X138223748Y-112840000D02*
X139646252Y-112840000D01*
%TO.C,C407*%
X155070000Y-73732164D02*
X155070000Y-73947836D01*
X155790000Y-73732164D02*
X155790000Y-73947836D01*
%TO.C,C805*%
X181852164Y-79990000D02*
X182067836Y-79990000D01*
X181852164Y-80710000D02*
X182067836Y-80710000D01*
%TO.C,C233*%
X138183748Y-109900000D02*
X139606252Y-109900000D01*
X138183748Y-108080000D02*
X139606252Y-108080000D01*
D11*
%TO.C,R622*%
X117375000Y-83010000D02*
X117825000Y-83010000D01*
X117375000Y-83660000D02*
X117375000Y-83010000D01*
X117825000Y-83660000D02*
X117375000Y-83660000D01*
X118155000Y-83660000D02*
X118605000Y-83660000D01*
X118595000Y-83000000D02*
X118145000Y-83000000D01*
X118605000Y-83660000D02*
X118595000Y-83000000D01*
%TO.C,C711*%
X133980000Y-83590000D02*
X134590000Y-83590000D01*
X133980000Y-83950000D02*
X133980000Y-83590000D01*
X133980000Y-84280000D02*
X133980000Y-84640000D01*
X133980000Y-84640000D02*
X134600000Y-84640000D01*
X134590000Y-83590000D02*
X134590000Y-83950000D01*
X134600000Y-84640000D02*
X134600000Y-84280000D01*
%TO.C,C238*%
X152720000Y-100220000D02*
X152720000Y-100840000D01*
X152720000Y-100840000D02*
X153080000Y-100840000D01*
X153080000Y-100220000D02*
X152720000Y-100220000D01*
X153410000Y-100220000D02*
X153770000Y-100220000D01*
X153770000Y-100220000D02*
X153770000Y-100830000D01*
X153770000Y-100830000D02*
X153410000Y-100830000D01*
%TO.C,R404*%
X146620000Y-82885000D02*
X147270000Y-82885000D01*
X146620000Y-83335000D02*
X146620000Y-82885000D01*
X146620000Y-83665000D02*
X146620000Y-84115000D01*
X146620000Y-84115000D02*
X147280000Y-84105000D01*
X147270000Y-82885000D02*
X147270000Y-83335000D01*
X147280000Y-84105000D02*
X147280000Y-83655000D01*
D10*
%TO.C,D305*%
X196080000Y-110510000D02*
X196080000Y-108750000D01*
X196280000Y-110510000D02*
X196080000Y-110510000D01*
X197330000Y-110510000D02*
X197540000Y-110510000D01*
X197540000Y-109160000D02*
X196080000Y-109160000D01*
X197540000Y-110510000D02*
X197540000Y-108750000D01*
D11*
%TO.C,R624*%
X128090000Y-79505000D02*
X128740000Y-79505000D01*
X128090000Y-79955000D02*
X128090000Y-79505000D01*
X128090000Y-80285000D02*
X128090000Y-80735000D01*
X128090000Y-80735000D02*
X128750000Y-80725000D01*
X128740000Y-79505000D02*
X128740000Y-79955000D01*
X128750000Y-80725000D02*
X128750000Y-80275000D01*
D10*
%TO.C,C100*%
X188290000Y-103490000D02*
X188290000Y-104900000D01*
X188290000Y-107110000D02*
X188290000Y-105700000D01*
X189940000Y-103340000D02*
X188440000Y-103340000D01*
X189940000Y-107260000D02*
X188440000Y-107260000D01*
X190090000Y-104900000D02*
X190090000Y-103490000D01*
X190090000Y-105700000D02*
X190090000Y-107110000D01*
X188290000Y-103490000D02*
G75*
G02*
X188440000Y-103340000I150000J0D01*
G01*
X188440000Y-107260000D02*
G75*
G02*
X188290000Y-107110000I0J150000D01*
G01*
X189940000Y-103340000D02*
G75*
G02*
X190090000Y-103490000I0J-150000D01*
G01*
X190090000Y-107110000D02*
G75*
G02*
X189940000Y-107260000I-150000J0D01*
G01*
D12*
%TO.C,C402*%
X182562164Y-116540000D02*
X182777836Y-116540000D01*
X182562164Y-117260000D02*
X182777836Y-117260000D01*
D11*
%TO.C,C713*%
X122280000Y-89640000D02*
X122280000Y-90260000D01*
X122280000Y-90260000D02*
X122640000Y-90260000D01*
X122640000Y-89640000D02*
X122280000Y-89640000D01*
X122970000Y-89640000D02*
X123330000Y-89640000D01*
X123330000Y-89640000D02*
X123330000Y-90250000D01*
X123330000Y-90250000D02*
X122970000Y-90250000D01*
D12*
%TO.C,R325*%
X177650000Y-108556359D02*
X177650000Y-108863641D01*
X178410000Y-108556359D02*
X178410000Y-108863641D01*
%TO.C,C611*%
X116152164Y-94940000D02*
X116367836Y-94940000D01*
X116152164Y-95660000D02*
X116367836Y-95660000D01*
%TO.C,C204*%
X138133748Y-105580000D02*
X139556252Y-105580000D01*
X138133748Y-107400000D02*
X139556252Y-107400000D01*
%TO.C,R334*%
X170126359Y-95700000D02*
X170433641Y-95700000D01*
X170126359Y-96460000D02*
X170433641Y-96460000D01*
D11*
%TO.C,C721*%
X131910000Y-87730000D02*
X132270000Y-87730000D01*
X131910000Y-88340000D02*
X131910000Y-87730000D01*
X132270000Y-88340000D02*
X131910000Y-88340000D01*
X132600000Y-88340000D02*
X132960000Y-88340000D01*
X132960000Y-87720000D02*
X132600000Y-87720000D01*
X132960000Y-88340000D02*
X132960000Y-87720000D01*
D12*
%TO.C,C232*%
X149297836Y-96260000D02*
X149082164Y-96260000D01*
X149297836Y-95540000D02*
X149082164Y-95540000D01*
%TO.C,C302*%
X196920000Y-112962164D02*
X196920000Y-113177836D01*
X197640000Y-112962164D02*
X197640000Y-113177836D01*
%TO.C,R100*%
X183586359Y-110990000D02*
X183893641Y-110990000D01*
X183586359Y-111750000D02*
X183893641Y-111750000D01*
D11*
%TO.C,R611*%
X117365000Y-81440000D02*
X117815000Y-81440000D01*
X117365000Y-82090000D02*
X117365000Y-81440000D01*
X117815000Y-82090000D02*
X117365000Y-82090000D01*
X118145000Y-82090000D02*
X118595000Y-82090000D01*
X118585000Y-81430000D02*
X118135000Y-81430000D01*
X118595000Y-82090000D02*
X118585000Y-81430000D01*
D12*
%TO.C,C403*%
X180967836Y-113110000D02*
X180752164Y-113110000D01*
X180967836Y-113830000D02*
X180752164Y-113830000D01*
%TO.C,C237*%
X158630000Y-90617836D02*
X158630000Y-90402164D01*
X159350000Y-90617836D02*
X159350000Y-90402164D01*
D11*
%TO.C,C722*%
X125850000Y-103820000D02*
X125850000Y-104440000D01*
X125850000Y-104440000D02*
X126210000Y-104440000D01*
X126210000Y-103820000D02*
X125850000Y-103820000D01*
X126540000Y-103820000D02*
X126900000Y-103820000D01*
X126900000Y-103820000D02*
X126900000Y-104430000D01*
X126900000Y-104430000D02*
X126540000Y-104430000D01*
D14*
%TO.C,J1001*%
X139990000Y-114430000D02*
X139990000Y-120930000D01*
X139990000Y-114430000D02*
X142740000Y-114430000D01*
X139990000Y-120930000D02*
X142740000Y-120930000D01*
X175740000Y-114430000D02*
X178490000Y-114430000D01*
X175740000Y-120930000D02*
X178490000Y-120930000D01*
X178490000Y-114430000D02*
X178490000Y-120930000D01*
D16*
X175890000Y-113680000D02*
G75*
G02*
X175590000Y-113680000I-150000J0D01*
G01*
X175590000Y-113680000D02*
G75*
G02*
X175890000Y-113680000I150000J0D01*
G01*
D11*
%TO.C,C706*%
X127990000Y-82010000D02*
X127990000Y-82630000D01*
X127990000Y-82630000D02*
X128350000Y-82630000D01*
X128350000Y-82010000D02*
X127990000Y-82010000D01*
X128680000Y-82010000D02*
X129040000Y-82010000D01*
X129040000Y-82010000D02*
X129040000Y-82620000D01*
X129040000Y-82620000D02*
X128680000Y-82620000D01*
%TO.C,C714*%
X123960000Y-89630000D02*
X123960000Y-90250000D01*
X123960000Y-90250000D02*
X124320000Y-90250000D01*
X124320000Y-89630000D02*
X123960000Y-89630000D01*
X124650000Y-89630000D02*
X125010000Y-89630000D01*
X125010000Y-89630000D02*
X125010000Y-90240000D01*
X125010000Y-90240000D02*
X124650000Y-90240000D01*
D12*
%TO.C,R420*%
X146246359Y-79840000D02*
X146553641Y-79840000D01*
X146246359Y-80600000D02*
X146553641Y-80600000D01*
D11*
%TO.C,C705*%
X126350000Y-82030000D02*
X126350000Y-82650000D01*
X126350000Y-82650000D02*
X126710000Y-82650000D01*
X126710000Y-82030000D02*
X126350000Y-82030000D01*
X127040000Y-82030000D02*
X127400000Y-82030000D01*
X127400000Y-82030000D02*
X127400000Y-82640000D01*
X127400000Y-82640000D02*
X127040000Y-82640000D01*
D12*
%TO.C,C813*%
X187020000Y-89102164D02*
X187020000Y-89317836D01*
X187740000Y-89102164D02*
X187740000Y-89317836D01*
%TO.C,C819*%
X185837836Y-77710000D02*
X185622164Y-77710000D01*
X185837836Y-78430000D02*
X185622164Y-78430000D01*
D11*
%TO.C,R612*%
X124890000Y-79515000D02*
X125540000Y-79515000D01*
X124890000Y-79965000D02*
X124890000Y-79515000D01*
X124890000Y-80295000D02*
X124890000Y-80745000D01*
X124890000Y-80745000D02*
X125550000Y-80735000D01*
X125540000Y-79515000D02*
X125540000Y-79965000D01*
X125550000Y-80735000D02*
X125550000Y-80285000D01*
D12*
%TO.C,C410*%
X156072164Y-70820000D02*
X156287836Y-70820000D01*
X156072164Y-71540000D02*
X156287836Y-71540000D01*
%TO.C,C301*%
X197930000Y-112942164D02*
X197930000Y-113157836D01*
X198650000Y-112942164D02*
X198650000Y-113157836D01*
%TO.C,C803*%
X176697836Y-79060000D02*
X176482164Y-79060000D01*
X176697836Y-79780000D02*
X176482164Y-79780000D01*
D11*
%TO.C,C600*%
X115920000Y-80680000D02*
X115920000Y-81300000D01*
X115920000Y-81300000D02*
X116280000Y-81300000D01*
X116280000Y-80680000D02*
X115920000Y-80680000D01*
X116610000Y-80680000D02*
X116970000Y-80680000D01*
X116970000Y-80680000D02*
X116970000Y-81290000D01*
X116970000Y-81290000D02*
X116610000Y-81290000D01*
%TO.C,C219*%
X150700000Y-95600000D02*
X151060000Y-95600000D01*
X150700000Y-96210000D02*
X150700000Y-95600000D01*
X151060000Y-96210000D02*
X150700000Y-96210000D01*
X151390000Y-96210000D02*
X151750000Y-96210000D01*
X151750000Y-95590000D02*
X151390000Y-95590000D01*
X151750000Y-96210000D02*
X151750000Y-95590000D01*
D12*
%TO.C,R401*%
X147530000Y-83486359D02*
X147530000Y-83793641D01*
X148290000Y-83486359D02*
X148290000Y-83793641D01*
%TO.C,R335*%
X170146359Y-96970000D02*
X170453641Y-96970000D01*
X170146359Y-97730000D02*
X170453641Y-97730000D01*
D11*
%TO.C,C606*%
X115900000Y-87850000D02*
X115900000Y-88470000D01*
X115900000Y-88470000D02*
X116260000Y-88470000D01*
X116260000Y-87850000D02*
X115900000Y-87850000D01*
X116590000Y-87850000D02*
X116950000Y-87850000D01*
X116950000Y-87850000D02*
X116950000Y-88460000D01*
X116950000Y-88460000D02*
X116590000Y-88460000D01*
D12*
%TO.C,C818*%
X185827836Y-78670000D02*
X185612164Y-78670000D01*
X185827836Y-79390000D02*
X185612164Y-79390000D01*
%TO.C,C213*%
X154742164Y-86010000D02*
X154957836Y-86010000D01*
X154742164Y-86730000D02*
X154957836Y-86730000D01*
%TO.C,R102*%
X185560000Y-109656359D02*
X185560000Y-109963641D01*
X186320000Y-109656359D02*
X186320000Y-109963641D01*
D10*
%TO.C,U400*%
X180330000Y-114270000D02*
X181680000Y-114270000D01*
X180330000Y-115010000D02*
X180330000Y-115270000D01*
X180330000Y-116020000D02*
X181680000Y-116020000D01*
D17*
X182180000Y-114200000D02*
G75*
G02*
X181980000Y-114200000I-100000J0D01*
G01*
X181980000Y-114200000D02*
G75*
G02*
X182180000Y-114200000I100000J0D01*
G01*
D15*
%TO.C,D307*%
X201640000Y-103340000D02*
G75*
G02*
X201540000Y-103340000I-50000J0D01*
G01*
X201540000Y-103340000D02*
G75*
G02*
X201640000Y-103340000I50000J0D01*
G01*
D12*
%TO.C,C223*%
X149942164Y-97850000D02*
X150157836Y-97850000D01*
X149942164Y-98570000D02*
X150157836Y-98570000D01*
D11*
%TO.C,R601*%
X117365000Y-94140000D02*
X117815000Y-94140000D01*
X117365000Y-94790000D02*
X117365000Y-94140000D01*
X117815000Y-94790000D02*
X117365000Y-94790000D01*
X118145000Y-94790000D02*
X118595000Y-94790000D01*
X118585000Y-94130000D02*
X118135000Y-94130000D01*
X118595000Y-94790000D02*
X118585000Y-94130000D01*
D12*
%TO.C,C229*%
X144042164Y-94880000D02*
X144257836Y-94880000D01*
X144042164Y-95600000D02*
X144257836Y-95600000D01*
D11*
%TO.C,C203*%
X152294020Y-90202427D02*
X152548579Y-90456985D01*
X152732427Y-89764020D02*
X152294020Y-90202427D01*
X152986985Y-90018579D02*
X152732427Y-89764020D01*
X153043554Y-90937818D02*
X152788995Y-90683259D01*
X153220330Y-90251924D02*
X153474889Y-90506482D01*
X153474889Y-90506482D02*
X153043554Y-90937818D01*
%TO.C,C704*%
X123950000Y-81290000D02*
X123950000Y-81910000D01*
X123950000Y-81910000D02*
X124310000Y-81910000D01*
X124310000Y-81290000D02*
X123950000Y-81290000D01*
X124640000Y-81290000D02*
X125000000Y-81290000D01*
X125000000Y-81290000D02*
X125000000Y-81900000D01*
X125000000Y-81900000D02*
X124640000Y-81900000D01*
%TO.C,R614*%
X117345000Y-79840000D02*
X117795000Y-79840000D01*
X117345000Y-80490000D02*
X117345000Y-79840000D01*
X117795000Y-80490000D02*
X117345000Y-80490000D01*
X118125000Y-80490000D02*
X118575000Y-80490000D01*
X118565000Y-79830000D02*
X118115000Y-79830000D01*
X118575000Y-80490000D02*
X118565000Y-79830000D01*
D12*
%TO.C,R327*%
X179443641Y-105550000D02*
X179136359Y-105550000D01*
X179443641Y-106310000D02*
X179136359Y-106310000D01*
%TO.C,C400*%
X150870000Y-89782164D02*
X150870000Y-89997836D01*
X151590000Y-89782164D02*
X151590000Y-89997836D01*
%TO.C,C800*%
X174232164Y-82490000D02*
X174447836Y-82490000D01*
X174232164Y-83210000D02*
X174447836Y-83210000D01*
%TO.C,C102*%
X184430000Y-109907836D02*
X184430000Y-109692164D01*
X185150000Y-109907836D02*
X185150000Y-109692164D01*
D14*
%TO.C,J1000*%
X139870000Y-61060000D02*
X139870000Y-67560000D01*
X139870000Y-61060000D02*
X142620000Y-61060000D01*
X139870000Y-67560000D02*
X142620000Y-67560000D01*
X175620000Y-61060000D02*
X178370000Y-61060000D01*
X175620000Y-67560000D02*
X178370000Y-67560000D01*
X178370000Y-61060000D02*
X178370000Y-67560000D01*
D16*
X175770000Y-60310000D02*
G75*
G02*
X175470000Y-60310000I-150000J0D01*
G01*
X175470000Y-60310000D02*
G75*
G02*
X175770000Y-60310000I150000J0D01*
G01*
D11*
%TO.C,R405*%
X169625000Y-94720000D02*
X170075000Y-94720000D01*
X169625000Y-95370000D02*
X169625000Y-94720000D01*
X170075000Y-95370000D02*
X169625000Y-95370000D01*
X170405000Y-95370000D02*
X170855000Y-95370000D01*
X170845000Y-94710000D02*
X170395000Y-94710000D01*
X170855000Y-95370000D02*
X170845000Y-94710000D01*
%TO.C,C225*%
X144333101Y-93471508D02*
X144587660Y-93726066D01*
X144771508Y-93033101D02*
X144333101Y-93471508D01*
X145026066Y-93287660D02*
X144771508Y-93033101D01*
X145082635Y-94206899D02*
X144828076Y-93952340D01*
X145259411Y-93521005D02*
X145513970Y-93775563D01*
X145513970Y-93775563D02*
X145082635Y-94206899D01*
D12*
%TO.C,C904*%
X188840000Y-95197836D02*
X188840000Y-94982164D01*
X189560000Y-95197836D02*
X189560000Y-94982164D01*
%TO.C,C101*%
X183400000Y-109877836D02*
X183400000Y-109662164D01*
X184120000Y-109877836D02*
X184120000Y-109662164D01*
D11*
%TO.C,R615*%
X117355000Y-91750000D02*
X117805000Y-91750000D01*
X117355000Y-92400000D02*
X117355000Y-91750000D01*
X117805000Y-92400000D02*
X117355000Y-92400000D01*
X118135000Y-92400000D02*
X118585000Y-92400000D01*
X118575000Y-91740000D02*
X118125000Y-91740000D01*
X118585000Y-92400000D02*
X118575000Y-91740000D01*
%TO.C,C222*%
X149480000Y-97120000D02*
X149480000Y-97740000D01*
X149480000Y-97740000D02*
X149840000Y-97740000D01*
X149840000Y-97120000D02*
X149480000Y-97120000D01*
X150170000Y-97120000D02*
X150530000Y-97120000D01*
X150530000Y-97120000D02*
X150530000Y-97730000D01*
X150530000Y-97730000D02*
X150170000Y-97730000D01*
%TO.C,R613*%
X117345000Y-92540000D02*
X117795000Y-92540000D01*
X117345000Y-93190000D02*
X117345000Y-92540000D01*
X117795000Y-93190000D02*
X117345000Y-93190000D01*
X118125000Y-93190000D02*
X118575000Y-93190000D01*
X118565000Y-92530000D02*
X118115000Y-92530000D01*
X118575000Y-93190000D02*
X118565000Y-92530000D01*
%TO.C,R607*%
X117365000Y-93350000D02*
X117815000Y-93350000D01*
X117365000Y-94000000D02*
X117365000Y-93350000D01*
X117815000Y-94000000D02*
X117365000Y-94000000D01*
X118145000Y-94000000D02*
X118595000Y-94000000D01*
X118585000Y-93340000D02*
X118135000Y-93340000D01*
X118595000Y-94000000D02*
X118585000Y-93340000D01*
D12*
%TO.C,C246*%
X157347836Y-100320000D02*
X157132164Y-100320000D01*
X157347836Y-101040000D02*
X157132164Y-101040000D01*
%TO.C,C812*%
X185980000Y-89112164D02*
X185980000Y-89327836D01*
X186700000Y-89112164D02*
X186700000Y-89327836D01*
D11*
%TO.C,R627*%
X144610000Y-91315000D02*
X145260000Y-91315000D01*
X144610000Y-91765000D02*
X144610000Y-91315000D01*
X144610000Y-92095000D02*
X144610000Y-92545000D01*
X144610000Y-92545000D02*
X145270000Y-92535000D01*
X145260000Y-91315000D02*
X145260000Y-91765000D01*
X145270000Y-92535000D02*
X145270000Y-92085000D01*
%TO.C,C604*%
X115900000Y-92590000D02*
X115900000Y-93210000D01*
X115900000Y-93210000D02*
X116260000Y-93210000D01*
X116260000Y-92590000D02*
X115900000Y-92590000D01*
X116590000Y-92590000D02*
X116950000Y-92590000D01*
X116950000Y-92590000D02*
X116950000Y-93200000D01*
X116950000Y-93200000D02*
X116590000Y-93200000D01*
%TO.C,C716*%
X129520000Y-89690000D02*
X129880000Y-89690000D01*
X129520000Y-90300000D02*
X129520000Y-89690000D01*
X129880000Y-90300000D02*
X129520000Y-90300000D01*
X130210000Y-90300000D02*
X130570000Y-90300000D01*
X130570000Y-89680000D02*
X130210000Y-89680000D01*
X130570000Y-90300000D02*
X130570000Y-89680000D01*
D10*
%TO.C,D903*%
X193550000Y-103370000D02*
X193550000Y-105130000D01*
X193550000Y-104720000D02*
X195010000Y-104720000D01*
X193760000Y-103370000D02*
X193550000Y-103370000D01*
X194810000Y-103370000D02*
X195010000Y-103370000D01*
X195010000Y-103370000D02*
X195010000Y-105130000D01*
D11*
%TO.C,C602*%
X115930000Y-83000000D02*
X115930000Y-83620000D01*
X115930000Y-83620000D02*
X116290000Y-83620000D01*
X116290000Y-83000000D02*
X115930000Y-83000000D01*
X116620000Y-83000000D02*
X116980000Y-83000000D01*
X116980000Y-83000000D02*
X116980000Y-83610000D01*
X116980000Y-83610000D02*
X116620000Y-83610000D01*
%TO.C,R616*%
X117355000Y-80660000D02*
X117805000Y-80660000D01*
X117355000Y-81310000D02*
X117355000Y-80660000D01*
X117805000Y-81310000D02*
X117355000Y-81310000D01*
X118135000Y-81310000D02*
X118585000Y-81310000D01*
X118575000Y-80650000D02*
X118125000Y-80650000D01*
X118585000Y-81310000D02*
X118575000Y-80650000D01*
%TO.C,R620*%
X117365000Y-88560000D02*
X117815000Y-88560000D01*
X117365000Y-89210000D02*
X117365000Y-88560000D01*
X117815000Y-89210000D02*
X117365000Y-89210000D01*
X118145000Y-89210000D02*
X118595000Y-89210000D01*
X118585000Y-88550000D02*
X118135000Y-88550000D01*
X118595000Y-89210000D02*
X118585000Y-88550000D01*
%TO.C,C207*%
X151890000Y-96520000D02*
X152500000Y-96520000D01*
X151890000Y-96880000D02*
X151890000Y-96520000D01*
X151890000Y-97210000D02*
X151890000Y-97570000D01*
X151890000Y-97570000D02*
X152510000Y-97570000D01*
X152500000Y-96520000D02*
X152500000Y-96880000D01*
X152510000Y-97570000D02*
X152510000Y-97210000D01*
D12*
%TO.C,C235*%
X137000000Y-64036252D02*
X137000000Y-62613748D01*
X138820000Y-64036252D02*
X138820000Y-62613748D01*
D17*
%TO.C,X400*%
X142205000Y-79151520D02*
X142205000Y-78190000D01*
X143260670Y-78190000D02*
X142205000Y-78190000D01*
D11*
%TO.C,R618*%
X117365000Y-82230000D02*
X117815000Y-82230000D01*
X117365000Y-82880000D02*
X117365000Y-82230000D01*
X117815000Y-82880000D02*
X117365000Y-82880000D01*
X118145000Y-82880000D02*
X118595000Y-82880000D01*
X118585000Y-82220000D02*
X118135000Y-82220000D01*
X118595000Y-82880000D02*
X118585000Y-82220000D01*
D12*
%TO.C,C205*%
X153130000Y-97187836D02*
X153130000Y-96972164D01*
X153850000Y-97187836D02*
X153850000Y-96972164D01*
D11*
%TO.C,R602*%
X126480000Y-79505000D02*
X127130000Y-79505000D01*
X126480000Y-79955000D02*
X126480000Y-79505000D01*
X126480000Y-80285000D02*
X126480000Y-80735000D01*
X126480000Y-80735000D02*
X127140000Y-80725000D01*
X127130000Y-79505000D02*
X127130000Y-79955000D01*
X127140000Y-80725000D02*
X127140000Y-80275000D01*
D12*
%TO.C,R333*%
X173393641Y-94420000D02*
X173086359Y-94420000D01*
X173393641Y-95180000D02*
X173086359Y-95180000D01*
%TO.C,C221*%
X192423748Y-114060000D02*
X193846252Y-114060000D01*
X192423748Y-115880000D02*
X193846252Y-115880000D01*
D11*
%TO.C,C700*%
X125940000Y-88190000D02*
X125940000Y-88810000D01*
X125940000Y-88810000D02*
X126300000Y-88810000D01*
X126300000Y-88190000D02*
X125940000Y-88190000D01*
X126630000Y-88190000D02*
X126990000Y-88190000D01*
X126990000Y-88190000D02*
X126990000Y-88800000D01*
X126990000Y-88800000D02*
X126630000Y-88800000D01*
%TO.C,R626*%
X146100000Y-88165000D02*
X146100000Y-88615000D01*
X146110000Y-89385000D02*
X146110000Y-88935000D01*
X146760000Y-88155000D02*
X146100000Y-88165000D01*
X146760000Y-88605000D02*
X146760000Y-88155000D01*
X146760000Y-88935000D02*
X146760000Y-89385000D01*
X146760000Y-89385000D02*
X146110000Y-89385000D01*
%TO.C,C243*%
X155040000Y-97000000D02*
X155400000Y-97000000D01*
X155040000Y-97610000D02*
X155040000Y-97000000D01*
X155400000Y-97610000D02*
X155040000Y-97610000D01*
X155730000Y-97610000D02*
X156090000Y-97610000D01*
X156090000Y-96990000D02*
X155730000Y-96990000D01*
X156090000Y-97610000D02*
X156090000Y-96990000D01*
%TO.C,C707*%
X131270000Y-80970000D02*
X131630000Y-80970000D01*
X131270000Y-81580000D02*
X131270000Y-80970000D01*
X131630000Y-81580000D02*
X131270000Y-81580000D01*
X131960000Y-81580000D02*
X132320000Y-81580000D01*
X132320000Y-80960000D02*
X131960000Y-80960000D01*
X132320000Y-81580000D02*
X132320000Y-80960000D01*
%TO.C,R605*%
X127310000Y-79505000D02*
X127960000Y-79505000D01*
X127310000Y-79955000D02*
X127310000Y-79505000D01*
X127310000Y-80285000D02*
X127310000Y-80735000D01*
X127310000Y-80735000D02*
X127970000Y-80725000D01*
X127960000Y-79505000D02*
X127960000Y-79955000D01*
X127970000Y-80725000D02*
X127970000Y-80275000D01*
D12*
%TO.C,R128*%
X201573748Y-81220000D02*
X202996252Y-81220000D01*
X201573748Y-83040000D02*
X202996252Y-83040000D01*
%TO.C,C130*%
X201593748Y-78240000D02*
X203016252Y-78240000D01*
X201593748Y-80060000D02*
X203016252Y-80060000D01*
%TO.C,C902*%
X189870000Y-95177836D02*
X189870000Y-94962164D01*
X190590000Y-95177836D02*
X190590000Y-94962164D01*
D11*
%TO.C,C202*%
X151440000Y-90930000D02*
X152050000Y-90930000D01*
X151440000Y-91290000D02*
X151440000Y-90930000D01*
X151440000Y-91620000D02*
X151440000Y-91980000D01*
X151440000Y-91980000D02*
X152060000Y-91980000D01*
X152050000Y-90930000D02*
X152050000Y-91290000D01*
X152060000Y-91980000D02*
X152060000Y-91620000D01*
%TO.C,C208*%
X153120000Y-94170000D02*
X153120000Y-94530000D01*
X153130000Y-95220000D02*
X153130000Y-94860000D01*
X153740000Y-94170000D02*
X153120000Y-94170000D01*
X153740000Y-94530000D02*
X153740000Y-94170000D01*
X153740000Y-94860000D02*
X153740000Y-95220000D01*
X153740000Y-95220000D02*
X153130000Y-95220000D01*
D12*
%TO.C,C734*%
X122592164Y-106070000D02*
X122807836Y-106070000D01*
X122592164Y-106790000D02*
X122807836Y-106790000D01*
%TO.C,C201*%
X153367836Y-91410000D02*
X153152164Y-91410000D01*
X153367836Y-92130000D02*
X153152164Y-92130000D01*
D11*
%TO.C,C214*%
X148740000Y-93800000D02*
X148740000Y-94420000D01*
X148740000Y-94420000D02*
X149100000Y-94420000D01*
X149100000Y-93800000D02*
X148740000Y-93800000D01*
X149430000Y-93800000D02*
X149790000Y-93800000D01*
X149790000Y-93800000D02*
X149790000Y-94410000D01*
X149790000Y-94410000D02*
X149430000Y-94410000D01*
D17*
%TO.C,SW301*%
X127060490Y-62864960D02*
X131810490Y-62864960D01*
X127060490Y-63864950D02*
X127060490Y-62864960D01*
X127060490Y-63864950D02*
X131810490Y-63864950D01*
X127060490Y-65364960D02*
X131810490Y-65364960D01*
X127060490Y-66364960D02*
X127060490Y-65364960D01*
X127060490Y-66364960D02*
X131810490Y-66364960D01*
X127060490Y-67864960D02*
X131810490Y-67864960D01*
X127060490Y-68864960D02*
X127060490Y-67864960D01*
X127060490Y-68864960D02*
X131810490Y-68864960D01*
X131810490Y-63864950D02*
X131810490Y-62864960D01*
X131810490Y-66364960D02*
X131810490Y-65364960D01*
X131810490Y-68864960D02*
X131810490Y-67864960D01*
D18*
G36*
X129435490Y-63864950D02*
G01*
X127060490Y-63864950D01*
X127060490Y-62864960D01*
X129435490Y-62864960D01*
X129435490Y-63864950D01*
G37*
G36*
X129435490Y-66364960D02*
G01*
X127060490Y-66364960D01*
X127060490Y-65364960D01*
X129435490Y-65364960D01*
X129435490Y-66364960D01*
G37*
G36*
X129435490Y-68864960D02*
G01*
X127060490Y-68864960D01*
X127060490Y-67864960D01*
X129435490Y-67864960D01*
X129435490Y-68864960D01*
G37*
D19*
X127118679Y-59270947D02*
X127118679Y-59461423D01*
X127118679Y-59461423D02*
X127166298Y-59556661D01*
X127166298Y-59556661D02*
X127261536Y-59651899D01*
X127261536Y-59651899D02*
X127452012Y-59699518D01*
X127452012Y-59699518D02*
X127785345Y-59699518D01*
X127785345Y-59699518D02*
X127975821Y-59651899D01*
X127975821Y-59651899D02*
X128071060Y-59556661D01*
X128071060Y-59556661D02*
X128118679Y-59461423D01*
X128118679Y-59461423D02*
X128118679Y-59270947D01*
X128118679Y-59270947D02*
X128071060Y-59175709D01*
X128071060Y-59175709D02*
X127975821Y-59080471D01*
X127975821Y-59080471D02*
X127785345Y-59032852D01*
X127785345Y-59032852D02*
X127452012Y-59032852D01*
X127452012Y-59032852D02*
X127261536Y-59080471D01*
X127261536Y-59080471D02*
X127166298Y-59175709D01*
X127166298Y-59175709D02*
X127118679Y-59270947D01*
X128118679Y-60128090D02*
X127118679Y-60128090D01*
X127118679Y-60128090D02*
X128118679Y-60699518D01*
X128118679Y-60699518D02*
X127118679Y-60699518D01*
D12*
%TO.C,C814*%
X181620000Y-89182164D02*
X181620000Y-89397836D01*
X182340000Y-89182164D02*
X182340000Y-89397836D01*
%TO.C,C220*%
X151610000Y-93802164D02*
X151610000Y-94017836D01*
X152330000Y-93802164D02*
X152330000Y-94017836D01*
%TO.C,C406*%
X159320000Y-69652164D02*
X159320000Y-69867836D01*
X160040000Y-69652164D02*
X160040000Y-69867836D01*
D11*
%TO.C,R603*%
X117375000Y-86980000D02*
X117825000Y-86980000D01*
X117375000Y-87630000D02*
X117375000Y-86980000D01*
X117825000Y-87630000D02*
X117375000Y-87630000D01*
X118155000Y-87630000D02*
X118605000Y-87630000D01*
X118595000Y-86970000D02*
X118145000Y-86970000D01*
X118605000Y-87630000D02*
X118595000Y-86970000D01*
D12*
%TO.C,C806*%
X179730000Y-83512164D02*
X179730000Y-83727836D01*
X180450000Y-83512164D02*
X180450000Y-83727836D01*
%TO.C,C610*%
X116122164Y-86680000D02*
X116337836Y-86680000D01*
X116122164Y-87400000D02*
X116337836Y-87400000D01*
D11*
%TO.C,C605*%
X115920000Y-90210000D02*
X115920000Y-90830000D01*
X115920000Y-90830000D02*
X116280000Y-90830000D01*
X116280000Y-90210000D02*
X115920000Y-90210000D01*
X116610000Y-90210000D02*
X116970000Y-90210000D01*
X116970000Y-90210000D02*
X116970000Y-90820000D01*
X116970000Y-90820000D02*
X116610000Y-90820000D01*
%TO.C,C723*%
X129520000Y-96660000D02*
X129880000Y-96660000D01*
X129520000Y-97270000D02*
X129520000Y-96660000D01*
X129880000Y-97270000D02*
X129520000Y-97270000D01*
X130210000Y-97270000D02*
X130570000Y-97270000D01*
X130570000Y-96650000D02*
X130210000Y-96650000D01*
X130570000Y-97270000D02*
X130570000Y-96650000D01*
D10*
%TO.C,D900*%
X196840000Y-98700000D02*
X196840000Y-97910000D01*
X196840000Y-99160000D02*
X196840000Y-99950000D01*
X196990000Y-97760000D02*
X197690000Y-97760000D01*
X196990000Y-100100000D02*
X197690000Y-100100000D01*
X197840000Y-97910000D02*
X197840000Y-98700000D01*
X197840000Y-99950000D02*
X197840000Y-99160000D01*
X196840000Y-97910000D02*
G75*
G02*
X196990000Y-97760000I150000J0D01*
G01*
X196990000Y-100100000D02*
G75*
G02*
X196840000Y-99950000I0J150000D01*
G01*
X197690000Y-97760000D02*
G75*
G02*
X197840000Y-97910000I0J-150000D01*
G01*
X197840000Y-99950000D02*
G75*
G02*
X197690000Y-100100000I-150000J0D01*
G01*
D12*
%TO.C,C210*%
X146752164Y-86000000D02*
X146967836Y-86000000D01*
X146752164Y-86720000D02*
X146967836Y-86720000D01*
%TO.C,C609*%
X116102164Y-78790000D02*
X116317836Y-78790000D01*
X116102164Y-79510000D02*
X116317836Y-79510000D01*
D11*
%TO.C,C240*%
X158710000Y-87810000D02*
X159320000Y-87810000D01*
X158710000Y-88170000D02*
X158710000Y-87810000D01*
X158710000Y-88500000D02*
X158710000Y-88860000D01*
X158710000Y-88860000D02*
X159330000Y-88860000D01*
X159320000Y-87810000D02*
X159320000Y-88170000D01*
X159330000Y-88860000D02*
X159330000Y-88500000D01*
%TD*%
%LPC*%
D20*
%TO.C,H3*%
X116250000Y-121000000D03*
%TD*%
%TO.C,H1*%
X203800000Y-61200000D03*
%TD*%
%TO.C,H4*%
X204200000Y-120900000D03*
%TD*%
D21*
%TO.C,J300*%
X181600000Y-64740000D03*
X184140000Y-64740000D03*
X186680000Y-64740000D03*
X189220000Y-64740000D03*
X191760000Y-64740000D03*
X194300000Y-64740000D03*
%TD*%
D22*
%TO.C,J800*%
X197650000Y-75065000D03*
X197650000Y-86495000D03*
D23*
X188760000Y-86500000D03*
X191300000Y-85230000D03*
X188760000Y-83960000D03*
X191300000Y-82690000D03*
X188760000Y-81420000D03*
X191300000Y-80150000D03*
X188760000Y-78880000D03*
X191300000Y-77610000D03*
X188760000Y-76340000D03*
X191300000Y-75070000D03*
D24*
X202550000Y-87405000D03*
X202550000Y-84865000D03*
X202550000Y-76695000D03*
X202550000Y-74155000D03*
D25*
X194600000Y-73035000D03*
X194600000Y-88525000D03*
%TD*%
D26*
%TO.C,J900*%
X198550000Y-98980000D03*
X199750000Y-98180000D03*
X198550000Y-97380000D03*
X199750000Y-96580000D03*
X198550000Y-95780000D03*
D27*
X204050000Y-101030000D03*
X204050000Y-93730000D03*
%TD*%
D20*
%TO.C,H2*%
X116560000Y-61680000D03*
%TD*%
D28*
%TO.C,J100*%
X194390000Y-110567500D03*
X200590000Y-110567500D03*
D29*
X197640000Y-105867500D03*
%TD*%
D30*
%TO.C,C718*%
X133430000Y-90120000D03*
X133970000Y-90120000D03*
%TD*%
D31*
%TO.C,R326*%
X178050000Y-107160000D03*
X179070000Y-107160000D03*
%TD*%
D32*
%TO.C,C226*%
X146400000Y-98590000D03*
X146400000Y-98050000D03*
%TD*%
D33*
%TO.C,R606*%
X125990000Y-79890000D03*
X125990000Y-80370000D03*
%TD*%
D32*
%TO.C,C612*%
X148030000Y-91630000D03*
X148030000Y-92170000D03*
%TD*%
D34*
%TO.C,U301*%
X176365000Y-105365000D03*
X176365000Y-106645000D03*
X176365000Y-107905000D03*
X176365000Y-109175000D03*
X170945000Y-109175000D03*
X170945000Y-107905000D03*
X170945000Y-106645000D03*
X170945000Y-105365000D03*
%TD*%
D35*
%TO.C,R609*%
X117720000Y-91310000D03*
X118200000Y-91310000D03*
%TD*%
%TO.C,R623*%
X117740000Y-88090000D03*
X118220000Y-88090000D03*
%TD*%
D36*
%TO.C,C405*%
X142870000Y-81380000D03*
X141910000Y-81380000D03*
%TD*%
D30*
%TO.C,C227*%
X146940000Y-97520000D03*
X147480000Y-97520000D03*
%TD*%
%TO.C,C701*%
X129880000Y-81280000D03*
X130420000Y-81280000D03*
%TD*%
%TO.C,C244*%
X156720000Y-98950000D03*
X156180000Y-98950000D03*
%TD*%
D37*
%TO.C,C409*%
X159570000Y-73310000D03*
X159570000Y-74270000D03*
%TD*%
D38*
%TO.C,C737*%
X127280000Y-104800000D03*
X127920000Y-104800000D03*
%TD*%
D35*
%TO.C,R608*%
X117740000Y-84130000D03*
X118220000Y-84130000D03*
%TD*%
D30*
%TO.C,C709*%
X135170000Y-81290000D03*
X134630000Y-81290000D03*
%TD*%
%TO.C,C228*%
X145260000Y-87110000D03*
X145800000Y-87110000D03*
%TD*%
D39*
%TO.C,C231*%
X147888162Y-93641838D03*
X148270000Y-93260000D03*
%TD*%
D40*
%TO.C,C733*%
X134150000Y-99435000D03*
X134150000Y-100075000D03*
%TD*%
D35*
%TO.C,R619*%
X117740000Y-84930000D03*
X118220000Y-84930000D03*
%TD*%
D30*
%TO.C,C217*%
X149810000Y-90560000D03*
X150350000Y-90560000D03*
%TD*%
D41*
%TO.C,C739*%
X131940000Y-105770000D03*
X131300000Y-105770000D03*
%TD*%
D42*
%TO.C,C215*%
X148990919Y-89720919D03*
X148609081Y-89339081D03*
%TD*%
D35*
%TO.C,R610*%
X117740000Y-90530000D03*
X118220000Y-90530000D03*
%TD*%
D43*
%TO.C,C212*%
X170900000Y-111000000D03*
X167950000Y-111000000D03*
%TD*%
D37*
%TO.C,C903*%
X188190000Y-94620000D03*
X188190000Y-95580000D03*
%TD*%
D30*
%TO.C,C218*%
X149810000Y-92110000D03*
X150350000Y-92110000D03*
%TD*%
D44*
%TO.C,C408*%
X156520000Y-74330000D03*
X156520000Y-73370000D03*
%TD*%
D38*
%TO.C,C740*%
X133240000Y-105750000D03*
X133880000Y-105750000D03*
%TD*%
D30*
%TO.C,C242*%
X151110000Y-99830000D03*
X150570000Y-99830000D03*
%TD*%
D38*
%TO.C,C743*%
X132180000Y-103620000D03*
X132820000Y-103620000D03*
%TD*%
D45*
%TO.C,C816*%
X185260000Y-76790000D03*
X186220000Y-76790000D03*
%TD*%
D41*
%TO.C,C726*%
X124650000Y-96970000D03*
X124010000Y-96970000D03*
%TD*%
%TO.C,C732*%
X132680000Y-99100000D03*
X132040000Y-99100000D03*
%TD*%
D35*
%TO.C,R621*%
X117720000Y-86520000D03*
X118200000Y-86520000D03*
%TD*%
D30*
%TO.C,C607*%
X116720000Y-85700000D03*
X116180000Y-85700000D03*
%TD*%
D46*
%TO.C,R324*%
X179140000Y-109210000D03*
X179140000Y-108190000D03*
%TD*%
D35*
%TO.C,R617*%
X117740000Y-89720000D03*
X118220000Y-89720000D03*
%TD*%
D47*
%TO.C,FB800*%
X185170000Y-89690000D03*
X184170000Y-89690000D03*
%TD*%
D36*
%TO.C,C804*%
X182430000Y-81700000D03*
X181470000Y-81700000D03*
%TD*%
D41*
%TO.C,C736*%
X124670000Y-105580000D03*
X124030000Y-105580000D03*
%TD*%
D48*
%TO.C,J301*%
X204170000Y-107690000D03*
X204170000Y-111690000D03*
D49*
X206320000Y-105940000D03*
D50*
X206320000Y-108390000D03*
X206320000Y-110990000D03*
D49*
X206320000Y-113440000D03*
D51*
X203540000Y-108390000D03*
X203540000Y-109040000D03*
X203540000Y-109690000D03*
X203540000Y-110340000D03*
X203540000Y-110990000D03*
%TD*%
D32*
%TO.C,C206*%
X153410000Y-93350000D03*
X153410000Y-92810000D03*
%TD*%
D41*
%TO.C,C735*%
X123060000Y-105570000D03*
X122420000Y-105570000D03*
%TD*%
D37*
%TO.C,C316*%
X169360000Y-105250000D03*
X169360000Y-106210000D03*
%TD*%
D52*
%TO.C,C248*%
X176120000Y-111120000D03*
X173170000Y-111120000D03*
%TD*%
D30*
%TO.C,C703*%
X122840000Y-81220000D03*
X122300000Y-81220000D03*
%TD*%
D32*
%TO.C,C601*%
X127650000Y-79130000D03*
X127650000Y-78590000D03*
%TD*%
D30*
%TO.C,C717*%
X131980000Y-90010000D03*
X131440000Y-90010000D03*
%TD*%
D45*
%TO.C,C817*%
X185230000Y-75850000D03*
X186190000Y-75850000D03*
%TD*%
D47*
%TO.C,FB300*%
X198270000Y-114550000D03*
X197270000Y-114550000D03*
%TD*%
D46*
%TO.C,R328*%
X177050000Y-99930000D03*
X177050000Y-98910000D03*
%TD*%
D45*
%TO.C,C236*%
X155930000Y-95050000D03*
X156890000Y-95050000D03*
%TD*%
%TO.C,C801*%
X176150000Y-82860000D03*
X177110000Y-82860000D03*
%TD*%
D36*
%TO.C,C901*%
X192760000Y-97650000D03*
X191800000Y-97650000D03*
%TD*%
D32*
%TO.C,C720*%
X129880000Y-87840000D03*
X129880000Y-88380000D03*
%TD*%
D53*
%TO.C,D901*%
X197340000Y-97300000D03*
X197340000Y-96200000D03*
%TD*%
D36*
%TO.C,C247*%
X153660000Y-99210000D03*
X152700000Y-99210000D03*
%TD*%
D30*
%TO.C,C715*%
X127440000Y-89070000D03*
X127980000Y-89070000D03*
%TD*%
D54*
%TO.C,U100*%
X186890000Y-105840000D03*
X186890000Y-106340000D03*
X186890000Y-106840000D03*
X186890000Y-107340000D03*
X186890000Y-107840000D03*
X184070000Y-107840000D03*
X184070000Y-107340000D03*
X184070000Y-106840000D03*
X184070000Y-106340000D03*
X184070000Y-105840000D03*
D55*
X185480000Y-106840000D03*
%TD*%
D44*
%TO.C,C216*%
X146140000Y-84090000D03*
X146140000Y-83130000D03*
%TD*%
D56*
%TO.C,R101*%
X187070000Y-109310000D03*
X187070000Y-110330000D03*
%TD*%
D39*
%TO.C,C613*%
X147819081Y-95330919D03*
X148200919Y-94949081D03*
%TD*%
D35*
%TO.C,R604*%
X117700000Y-85740000D03*
X118180000Y-85740000D03*
%TD*%
D30*
%TO.C,C245*%
X148770000Y-98060000D03*
X148230000Y-98060000D03*
%TD*%
%TO.C,C710*%
X132670000Y-83460000D03*
X132130000Y-83460000D03*
%TD*%
D52*
%TO.C,C224*%
X194480000Y-117780000D03*
X191530000Y-117780000D03*
%TD*%
D32*
%TO.C,C719*%
X135770000Y-88610000D03*
X135770000Y-89150000D03*
%TD*%
D56*
%TO.C,R427*%
X151190000Y-86180000D03*
X151190000Y-87200000D03*
%TD*%
D57*
%TO.C,C103*%
X184650000Y-104470000D03*
X186650000Y-104470000D03*
%TD*%
D56*
%TO.C,R400*%
X148980000Y-83150000D03*
X148980000Y-84170000D03*
%TD*%
D30*
%TO.C,C708*%
X133600000Y-81290000D03*
X133060000Y-81290000D03*
%TD*%
D31*
%TO.C,R403*%
X182160000Y-118170000D03*
X183180000Y-118170000D03*
%TD*%
D41*
%TO.C,C725*%
X122890000Y-97000000D03*
X122250000Y-97000000D03*
%TD*%
%TO.C,C728*%
X128660000Y-97970000D03*
X128020000Y-97970000D03*
%TD*%
D58*
%TO.C,D306*%
X202032500Y-103320000D03*
X203002500Y-103320000D03*
%TD*%
D32*
%TO.C,C239*%
X158170000Y-90400000D03*
X158170000Y-90940000D03*
%TD*%
D44*
%TO.C,C608*%
X129270000Y-79070000D03*
X129270000Y-78110000D03*
%TD*%
D31*
%TO.C,R903*%
X194760000Y-98790000D03*
X195780000Y-98790000D03*
%TD*%
D37*
%TO.C,C413*%
X160660000Y-73330000D03*
X160660000Y-74290000D03*
%TD*%
D45*
%TO.C,C802*%
X176140000Y-81670000D03*
X177100000Y-81670000D03*
%TD*%
D44*
%TO.C,C815*%
X183170000Y-89730000D03*
X183170000Y-88770000D03*
%TD*%
D32*
%TO.C,C603*%
X126010000Y-79090000D03*
X126010000Y-78550000D03*
%TD*%
D30*
%TO.C,C241*%
X155870000Y-93270000D03*
X155330000Y-93270000D03*
%TD*%
D35*
%TO.C,R600*%
X127410000Y-86000000D03*
X127890000Y-86000000D03*
%TD*%
D59*
%TO.C,C211*%
X147590919Y-101169081D03*
X147209081Y-101550919D03*
%TD*%
D52*
%TO.C,C200*%
X140410000Y-111930000D03*
X137460000Y-111930000D03*
%TD*%
D44*
%TO.C,C407*%
X155430000Y-74320000D03*
X155430000Y-73360000D03*
%TD*%
D36*
%TO.C,C805*%
X182440000Y-80350000D03*
X181480000Y-80350000D03*
%TD*%
D60*
%TO.C,FB200*%
X145070000Y-84100000D03*
X145070000Y-83100000D03*
%TD*%
%TO.C,FB801*%
X184200000Y-77990000D03*
X184200000Y-76990000D03*
%TD*%
D52*
%TO.C,C233*%
X137420000Y-108990000D03*
X140370000Y-108990000D03*
%TD*%
D35*
%TO.C,R622*%
X117750000Y-83330000D03*
X118230000Y-83330000D03*
%TD*%
D32*
%TO.C,C711*%
X134290000Y-83850000D03*
X134290000Y-84390000D03*
%TD*%
D30*
%TO.C,C238*%
X153510000Y-100530000D03*
X152970000Y-100530000D03*
%TD*%
D40*
%TO.C,C741*%
X134630000Y-104330000D03*
X134630000Y-104970000D03*
%TD*%
D33*
%TO.C,R404*%
X146950000Y-83260000D03*
X146950000Y-83740000D03*
%TD*%
D61*
%TO.C,D305*%
X196810000Y-108430000D03*
X196810000Y-110770000D03*
%TD*%
D33*
%TO.C,R624*%
X128420000Y-79880000D03*
X128420000Y-80360000D03*
%TD*%
D62*
%TO.C,C100*%
X189190000Y-106300000D03*
X189190000Y-104300000D03*
%TD*%
D36*
%TO.C,C402*%
X183150000Y-116900000D03*
X182190000Y-116900000D03*
%TD*%
D30*
%TO.C,C713*%
X123070000Y-89950000D03*
X122530000Y-89950000D03*
%TD*%
D46*
%TO.C,R325*%
X178030000Y-109220000D03*
X178030000Y-108200000D03*
%TD*%
D36*
%TO.C,C611*%
X116740000Y-95300000D03*
X115780000Y-95300000D03*
%TD*%
D41*
%TO.C,C730*%
X133650000Y-96950000D03*
X133010000Y-96950000D03*
%TD*%
D52*
%TO.C,C204*%
X140320000Y-106490000D03*
X137370000Y-106490000D03*
%TD*%
D63*
%TO.C,R334*%
X170790000Y-96080000D03*
X169770000Y-96080000D03*
%TD*%
D30*
%TO.C,C721*%
X132170000Y-88030000D03*
X132710000Y-88030000D03*
%TD*%
D45*
%TO.C,C232*%
X149670000Y-95900000D03*
X148710000Y-95900000D03*
%TD*%
D44*
%TO.C,C302*%
X197280000Y-113550000D03*
X197280000Y-112590000D03*
%TD*%
D63*
%TO.C,R100*%
X184250000Y-111370000D03*
X183230000Y-111370000D03*
%TD*%
D35*
%TO.C,R611*%
X117740000Y-81760000D03*
X118220000Y-81760000D03*
%TD*%
D45*
%TO.C,C403*%
X180380000Y-113470000D03*
X181340000Y-113470000D03*
%TD*%
D37*
%TO.C,C237*%
X158990000Y-90030000D03*
X158990000Y-90990000D03*
%TD*%
D41*
%TO.C,C727*%
X127060000Y-97950000D03*
X126420000Y-97950000D03*
%TD*%
D30*
%TO.C,C722*%
X126640000Y-104130000D03*
X126100000Y-104130000D03*
%TD*%
D64*
%TO.C,J1001*%
X174840000Y-115480000D03*
X174840000Y-119880000D03*
X174040000Y-115480000D03*
X174040000Y-119880000D03*
X173240000Y-115480000D03*
X173240000Y-119880000D03*
X172440000Y-115480000D03*
X172440000Y-119880000D03*
X171640000Y-115480000D03*
X171640000Y-119880000D03*
X170840000Y-115480000D03*
X170840000Y-119880000D03*
X170040000Y-115480000D03*
X170040000Y-119880000D03*
X169240000Y-115480000D03*
X169240000Y-119880000D03*
X168440000Y-115480000D03*
X168440000Y-119880000D03*
X167640000Y-115480000D03*
X167640000Y-119880000D03*
X166840000Y-115480000D03*
X166840000Y-119880000D03*
X166040000Y-115480000D03*
X166040000Y-119880000D03*
X165240000Y-115480000D03*
X165240000Y-119880000D03*
X164440000Y-115480000D03*
X164440000Y-119880000D03*
X163640000Y-115480000D03*
X163640000Y-119880000D03*
X162840000Y-115480000D03*
X162840000Y-119880000D03*
X162040000Y-115480000D03*
X162040000Y-119880000D03*
X161240000Y-115480000D03*
X161240000Y-119880000D03*
X160440000Y-115480000D03*
X160440000Y-119880000D03*
X159640000Y-115480000D03*
X159640000Y-119880000D03*
X158840000Y-115480000D03*
X158840000Y-119880000D03*
X158040000Y-115480000D03*
X158040000Y-119880000D03*
X157240000Y-115480000D03*
X157240000Y-119880000D03*
X156440000Y-115480000D03*
X156440000Y-119880000D03*
X155640000Y-115480000D03*
X155640000Y-119880000D03*
X154840000Y-115480000D03*
X154840000Y-119880000D03*
X154040000Y-115480000D03*
X154040000Y-119880000D03*
X153240000Y-115480000D03*
X153240000Y-119880000D03*
X152440000Y-115480000D03*
X152440000Y-119880000D03*
X151640000Y-115480000D03*
X151640000Y-119880000D03*
X150840000Y-115480000D03*
X150840000Y-119880000D03*
X150040000Y-115480000D03*
X150040000Y-119880000D03*
X149240000Y-115480000D03*
X149240000Y-119880000D03*
X148440000Y-115480000D03*
X148440000Y-119880000D03*
X147640000Y-115480000D03*
X147640000Y-119880000D03*
X146840000Y-115480000D03*
X146840000Y-119880000D03*
X146040000Y-115480000D03*
X146040000Y-119880000D03*
X145240000Y-115480000D03*
X145240000Y-119880000D03*
X144440000Y-115480000D03*
X144440000Y-119880000D03*
X143640000Y-115480000D03*
X143640000Y-119880000D03*
%TD*%
D30*
%TO.C,C706*%
X128780000Y-82320000D03*
X128240000Y-82320000D03*
%TD*%
%TO.C,C714*%
X124750000Y-89940000D03*
X124210000Y-89940000D03*
%TD*%
D63*
%TO.C,R420*%
X146910000Y-80220000D03*
X145890000Y-80220000D03*
%TD*%
D30*
%TO.C,C705*%
X127140000Y-82340000D03*
X126600000Y-82340000D03*
%TD*%
D38*
%TO.C,C738*%
X129690000Y-105790000D03*
X130330000Y-105790000D03*
%TD*%
D44*
%TO.C,C813*%
X187380000Y-89690000D03*
X187380000Y-88730000D03*
%TD*%
D45*
%TO.C,C819*%
X185250000Y-78070000D03*
X186210000Y-78070000D03*
%TD*%
D33*
%TO.C,R612*%
X125220000Y-79890000D03*
X125220000Y-80370000D03*
%TD*%
D36*
%TO.C,C410*%
X156660000Y-71180000D03*
X155700000Y-71180000D03*
%TD*%
D44*
%TO.C,C301*%
X198290000Y-113530000D03*
X198290000Y-112570000D03*
%TD*%
D45*
%TO.C,C803*%
X176110000Y-79420000D03*
X177070000Y-79420000D03*
%TD*%
D30*
%TO.C,C600*%
X116710000Y-80990000D03*
X116170000Y-80990000D03*
%TD*%
%TO.C,C219*%
X150960000Y-95900000D03*
X151500000Y-95900000D03*
%TD*%
D46*
%TO.C,R401*%
X147910000Y-84150000D03*
X147910000Y-83130000D03*
%TD*%
D63*
%TO.C,R335*%
X170810000Y-97350000D03*
X169790000Y-97350000D03*
%TD*%
D30*
%TO.C,C606*%
X116690000Y-88160000D03*
X116150000Y-88160000D03*
%TD*%
D45*
%TO.C,C818*%
X185240000Y-79030000D03*
X186200000Y-79030000D03*
%TD*%
D36*
%TO.C,C213*%
X155330000Y-86370000D03*
X154370000Y-86370000D03*
%TD*%
D46*
%TO.C,R102*%
X185940000Y-110320000D03*
X185940000Y-109300000D03*
%TD*%
D65*
%TO.C,U400*%
X181720000Y-114640000D03*
X181720000Y-115140000D03*
X181720000Y-115640000D03*
X180280000Y-115640000D03*
X180280000Y-114640000D03*
%TD*%
D66*
%TO.C,D307*%
X200985000Y-103340000D03*
X200015000Y-103340000D03*
%TD*%
D36*
%TO.C,C223*%
X150530000Y-98210000D03*
X149570000Y-98210000D03*
%TD*%
D35*
%TO.C,R601*%
X117740000Y-94460000D03*
X118220000Y-94460000D03*
%TD*%
D36*
%TO.C,C229*%
X144630000Y-95240000D03*
X143670000Y-95240000D03*
%TD*%
D42*
%TO.C,C203*%
X153071838Y-90541838D03*
X152690000Y-90160000D03*
%TD*%
D30*
%TO.C,C704*%
X124740000Y-81600000D03*
X124200000Y-81600000D03*
%TD*%
D35*
%TO.C,R614*%
X117720000Y-80160000D03*
X118200000Y-80160000D03*
%TD*%
D31*
%TO.C,R327*%
X178780000Y-105930000D03*
X179800000Y-105930000D03*
%TD*%
D44*
%TO.C,C400*%
X151230000Y-90370000D03*
X151230000Y-89410000D03*
%TD*%
D36*
%TO.C,C800*%
X174820000Y-82850000D03*
X173860000Y-82850000D03*
%TD*%
D37*
%TO.C,C102*%
X184790000Y-109320000D03*
X184790000Y-110280000D03*
%TD*%
D64*
%TO.C,J1000*%
X174720000Y-62110000D03*
X174720000Y-66510000D03*
X173920000Y-62110000D03*
X173920000Y-66510000D03*
X173120000Y-62110000D03*
X173120000Y-66510000D03*
X172320000Y-62110000D03*
X172320000Y-66510000D03*
X171520000Y-62110000D03*
X171520000Y-66510000D03*
X170720000Y-62110000D03*
X170720000Y-66510000D03*
X169920000Y-62110000D03*
X169920000Y-66510000D03*
X169120000Y-62110000D03*
X169120000Y-66510000D03*
X168320000Y-62110000D03*
X168320000Y-66510000D03*
X167520000Y-62110000D03*
X167520000Y-66510000D03*
X166720000Y-62110000D03*
X166720000Y-66510000D03*
X165920000Y-62110000D03*
X165920000Y-66510000D03*
X165120000Y-62110000D03*
X165120000Y-66510000D03*
X164320000Y-62110000D03*
X164320000Y-66510000D03*
X163520000Y-62110000D03*
X163520000Y-66510000D03*
X162720000Y-62110000D03*
X162720000Y-66510000D03*
X161920000Y-62110000D03*
X161920000Y-66510000D03*
X161120000Y-62110000D03*
X161120000Y-66510000D03*
X160320000Y-62110000D03*
X160320000Y-66510000D03*
X159520000Y-62110000D03*
X159520000Y-66510000D03*
X158720000Y-62110000D03*
X158720000Y-66510000D03*
X157920000Y-62110000D03*
X157920000Y-66510000D03*
X157120000Y-62110000D03*
X157120000Y-66510000D03*
X156320000Y-62110000D03*
X156320000Y-66510000D03*
X155520000Y-62110000D03*
X155520000Y-66510000D03*
X154720000Y-62110000D03*
X154720000Y-66510000D03*
X153920000Y-62110000D03*
X153920000Y-66510000D03*
X153120000Y-62110000D03*
X153120000Y-66510000D03*
X152320000Y-62110000D03*
X152320000Y-66510000D03*
X151520000Y-62110000D03*
X151520000Y-66510000D03*
X150720000Y-62110000D03*
X150720000Y-66510000D03*
X149920000Y-62110000D03*
X149920000Y-66510000D03*
X149120000Y-62110000D03*
X149120000Y-66510000D03*
X148320000Y-62110000D03*
X148320000Y-66510000D03*
X147520000Y-62110000D03*
X147520000Y-66510000D03*
X146720000Y-62110000D03*
X146720000Y-66510000D03*
X145920000Y-62110000D03*
X145920000Y-66510000D03*
X145120000Y-62110000D03*
X145120000Y-66510000D03*
X144320000Y-62110000D03*
X144320000Y-66510000D03*
X143520000Y-62110000D03*
X143520000Y-66510000D03*
%TD*%
D35*
%TO.C,R405*%
X170000000Y-95040000D03*
X170480000Y-95040000D03*
%TD*%
D42*
%TO.C,C225*%
X145110919Y-93810919D03*
X144729081Y-93429081D03*
%TD*%
D37*
%TO.C,C904*%
X189200000Y-94610000D03*
X189200000Y-95570000D03*
%TD*%
%TO.C,C101*%
X183760000Y-109290000D03*
X183760000Y-110250000D03*
%TD*%
D35*
%TO.C,R615*%
X117730000Y-92070000D03*
X118210000Y-92070000D03*
%TD*%
D30*
%TO.C,C222*%
X150270000Y-97430000D03*
X149730000Y-97430000D03*
%TD*%
D35*
%TO.C,R613*%
X117720000Y-92860000D03*
X118200000Y-92860000D03*
%TD*%
%TO.C,R607*%
X117740000Y-93670000D03*
X118220000Y-93670000D03*
%TD*%
D45*
%TO.C,C246*%
X156760000Y-100680000D03*
X157720000Y-100680000D03*
%TD*%
D44*
%TO.C,C812*%
X186340000Y-89700000D03*
X186340000Y-88740000D03*
%TD*%
D33*
%TO.C,R627*%
X144940000Y-91690000D03*
X144940000Y-92170000D03*
%TD*%
D40*
%TO.C,C742*%
X129790000Y-103470000D03*
X129790000Y-104110000D03*
%TD*%
D30*
%TO.C,C604*%
X116690000Y-92900000D03*
X116150000Y-92900000D03*
%TD*%
%TO.C,C716*%
X129780000Y-89990000D03*
X130320000Y-89990000D03*
%TD*%
D61*
%TO.C,D903*%
X194280000Y-105450000D03*
X194280000Y-103110000D03*
%TD*%
D30*
%TO.C,C602*%
X116720000Y-83310000D03*
X116180000Y-83310000D03*
%TD*%
D35*
%TO.C,R616*%
X117730000Y-80980000D03*
X118210000Y-80980000D03*
%TD*%
%TO.C,R620*%
X117740000Y-88880000D03*
X118220000Y-88880000D03*
%TD*%
D32*
%TO.C,C207*%
X152200000Y-96780000D03*
X152200000Y-97320000D03*
%TD*%
D67*
%TO.C,C235*%
X137910000Y-61850000D03*
X137910000Y-64800000D03*
%TD*%
D68*
%TO.C,X400*%
X142880000Y-78790000D03*
X144730000Y-78790000D03*
X144730000Y-80240000D03*
X142880000Y-80240000D03*
%TD*%
D35*
%TO.C,R618*%
X117740000Y-82550000D03*
X118220000Y-82550000D03*
%TD*%
D37*
%TO.C,C205*%
X153490000Y-96600000D03*
X153490000Y-97560000D03*
%TD*%
D33*
%TO.C,R602*%
X126810000Y-79880000D03*
X126810000Y-80360000D03*
%TD*%
D31*
%TO.C,R333*%
X172730000Y-94800000D03*
X173750000Y-94800000D03*
%TD*%
D52*
%TO.C,C221*%
X194610000Y-114970000D03*
X191660000Y-114970000D03*
%TD*%
D30*
%TO.C,C700*%
X126730000Y-88500000D03*
X126190000Y-88500000D03*
%TD*%
D33*
%TO.C,R626*%
X146430000Y-89010000D03*
X146430000Y-88530000D03*
%TD*%
D30*
%TO.C,C243*%
X155300000Y-97300000D03*
X155840000Y-97300000D03*
%TD*%
D38*
%TO.C,C729*%
X131380000Y-96940000D03*
X132020000Y-96940000D03*
%TD*%
D30*
%TO.C,C707*%
X131530000Y-81270000D03*
X132070000Y-81270000D03*
%TD*%
D33*
%TO.C,R605*%
X127640000Y-79880000D03*
X127640000Y-80360000D03*
%TD*%
D52*
%TO.C,R128*%
X203760000Y-82130000D03*
X200810000Y-82130000D03*
%TD*%
%TO.C,C130*%
X203780000Y-79150000D03*
X200830000Y-79150000D03*
%TD*%
D37*
%TO.C,C902*%
X190230000Y-94590000D03*
X190230000Y-95550000D03*
%TD*%
D32*
%TO.C,C202*%
X151750000Y-91190000D03*
X151750000Y-91730000D03*
%TD*%
%TO.C,C208*%
X153430000Y-94960000D03*
X153430000Y-94420000D03*
%TD*%
D36*
%TO.C,C734*%
X123180000Y-106430000D03*
X122220000Y-106430000D03*
%TD*%
D45*
%TO.C,C201*%
X152780000Y-91770000D03*
X153740000Y-91770000D03*
%TD*%
D30*
%TO.C,C214*%
X149530000Y-94110000D03*
X148990000Y-94110000D03*
%TD*%
D69*
%TO.C,SW301*%
X133730000Y-63350000D03*
X133730000Y-65890000D03*
X133730000Y-68430000D03*
X125120000Y-68430000D03*
X125120000Y-65890000D03*
X125120000Y-63350000D03*
%TD*%
D44*
%TO.C,C814*%
X181980000Y-89770000D03*
X181980000Y-88810000D03*
%TD*%
%TO.C,C220*%
X151970000Y-94390000D03*
X151970000Y-93430000D03*
%TD*%
%TO.C,C406*%
X159680000Y-70240000D03*
X159680000Y-69280000D03*
%TD*%
D35*
%TO.C,R603*%
X117750000Y-87300000D03*
X118230000Y-87300000D03*
%TD*%
D44*
%TO.C,C806*%
X180090000Y-84100000D03*
X180090000Y-83140000D03*
%TD*%
D36*
%TO.C,C610*%
X116710000Y-87040000D03*
X115750000Y-87040000D03*
%TD*%
D30*
%TO.C,C605*%
X116710000Y-90520000D03*
X116170000Y-90520000D03*
%TD*%
%TO.C,C723*%
X129780000Y-96960000D03*
X130320000Y-96960000D03*
%TD*%
D53*
%TO.C,D900*%
X197340000Y-98380000D03*
X197340000Y-99480000D03*
%TD*%
D36*
%TO.C,C210*%
X147340000Y-86360000D03*
X146380000Y-86360000D03*
%TD*%
%TO.C,C609*%
X116690000Y-79150000D03*
X115730000Y-79150000D03*
%TD*%
D32*
%TO.C,C240*%
X159020000Y-88070000D03*
X159020000Y-88610000D03*
%TD*%
D41*
%TO.C,C731*%
X135190000Y-96950000D03*
X134550000Y-96950000D03*
%TD*%
%LPD*%
M02*
