%TF.GenerationSoftware,KiCad,Pcbnew,8.0.6*%
%TF.CreationDate,2025-01-12T20:29:38+06:00*%
%TF.ProjectId,zynq_soc_board_v1,7a796e71-5f73-46f6-935f-626f6172645f,rev?*%
%TF.SameCoordinates,Original*%
%TF.FileFunction,Soldermask,Bot*%
%TF.FilePolarity,Negative*%
%FSLAX46Y46*%
G04 Gerber Fmt 4.6, Leading zero omitted, Abs format (unit mm)*
G04 Created by KiCad (PCBNEW 8.0.6) date 2025-01-12 20:29:38*
%MOMM*%
%LPD*%
G01*
G04 APERTURE LIST*
G04 Aperture macros list*
%AMRoundRect*
0 Rectangle with rounded corners*
0 $1 Rounding radius*
0 $2 $3 $4 $5 $6 $7 $8 $9 X,Y pos of 4 corners*
0 Add a 4 corners polygon primitive as box body*
4,1,4,$2,$3,$4,$5,$6,$7,$8,$9,$2,$3,0*
0 Add four circle primitives for the rounded corners*
1,1,$1+$1,$2,$3*
1,1,$1+$1,$4,$5*
1,1,$1+$1,$6,$7*
1,1,$1+$1,$8,$9*
0 Add four rect primitives between the rounded corners*
20,1,$1+$1,$2,$3,$4,$5,0*
20,1,$1+$1,$4,$5,$6,$7,0*
20,1,$1+$1,$6,$7,$8,$9,0*
20,1,$1+$1,$8,$9,$2,$3,0*%
%AMRotRect*
0 Rectangle, with rotation*
0 The origin of the aperture is its center*
0 $1 length*
0 $2 width*
0 $3 Rotation angle, in degrees counterclockwise*
0 Add horizontal line*
21,1,$1,$2,0,0,$3*%
G04 Aperture macros list end*
%ADD10C,3.200000*%
%ADD11C,2.000000*%
%ADD12C,3.250000*%
%ADD13C,1.750000*%
%ADD14C,1.900000*%
%ADD15C,2.700000*%
%ADD16C,1.100000*%
%ADD17O,2.100000X1.100000*%
%ADD18O,2.000000X4.600000*%
%ADD19O,4.600000X2.000000*%
%ADD20R,0.370000X0.320000*%
%ADD21RoundRect,0.135000X-0.135000X-0.185000X0.135000X-0.185000X0.135000X0.185000X-0.135000X0.185000X0*%
%ADD22R,0.320000X0.370000*%
%ADD23R,0.320000X0.300000*%
%ADD24O,1.950000X0.570000*%
%ADD25R,0.300000X0.320000*%
%ADD26RoundRect,0.140000X0.140000X0.170000X-0.140000X0.170000X-0.140000X-0.170000X0.140000X-0.170000X0*%
%ADD27RoundRect,0.140000X-0.170000X0.140000X-0.170000X-0.140000X0.170000X-0.140000X0.170000X0.140000X0*%
%ADD28RoundRect,0.100000X-0.130000X-0.100000X0.130000X-0.100000X0.130000X0.100000X-0.130000X0.100000X0*%
%ADD29RotRect,0.370000X0.320000X45.000000*%
%ADD30RoundRect,0.100000X-0.100000X0.130000X-0.100000X-0.130000X0.100000X-0.130000X0.100000X0.130000X0*%
%ADD31RoundRect,0.100000X0.130000X0.100000X-0.130000X0.100000X-0.130000X-0.100000X0.130000X-0.100000X0*%
%ADD32RotRect,0.370000X0.320000X135.000000*%
%ADD33RoundRect,0.250000X-0.325000X-0.650000X0.325000X-0.650000X0.325000X0.650000X-0.325000X0.650000X0*%
%ADD34RoundRect,0.140000X0.170000X-0.140000X0.170000X0.140000X-0.170000X0.140000X-0.170000X-0.140000X0*%
%ADD35RoundRect,0.140000X-0.140000X-0.170000X0.140000X-0.170000X0.140000X0.170000X-0.140000X0.170000X0*%
%ADD36RoundRect,0.135000X0.185000X-0.135000X0.185000X0.135000X-0.185000X0.135000X-0.185000X-0.135000X0*%
%ADD37RoundRect,0.075000X0.225000X0.275000X-0.225000X0.275000X-0.225000X-0.275000X0.225000X-0.275000X0*%
%ADD38C,0.650000*%
%ADD39R,1.900000X1.500000*%
%ADD40R,1.900000X1.900000*%
%ADD41R,1.350000X0.400000*%
%ADD42RoundRect,0.250000X0.325000X0.650000X-0.325000X0.650000X-0.325000X-0.650000X0.325000X-0.650000X0*%
%ADD43R,0.540000X0.790000*%
%ADD44R,0.660000X0.280000*%
%ADD45R,1.500000X2.300000*%
%ADD46RoundRect,0.135000X-0.185000X0.135000X-0.185000X-0.135000X0.185000X-0.135000X0.185000X0.135000X0*%
%ADD47R,1.410000X1.350000*%
%ADD48RoundRect,0.147500X-0.147500X-0.172500X0.147500X-0.172500X0.147500X0.172500X-0.147500X0.172500X0*%
%ADD49RotRect,0.370000X0.320000X225.000000*%
%ADD50RoundRect,0.075000X0.275000X-0.225000X0.275000X0.225000X-0.275000X0.225000X-0.275000X-0.225000X0*%
%ADD51R,0.750000X1.000000*%
%ADD52R,1.350000X1.410000*%
%ADD53RoundRect,0.135000X0.135000X0.185000X-0.135000X0.185000X-0.135000X-0.185000X0.135000X-0.185000X0*%
%ADD54R,0.500000X2.000000*%
%ADD55R,0.580000X0.280000*%
%ADD56RoundRect,0.147500X0.147500X0.172500X-0.147500X0.172500X-0.147500X-0.172500X0.147500X-0.172500X0*%
%ADD57RoundRect,0.250000X-0.650000X0.325000X-0.650000X-0.325000X0.650000X-0.325000X0.650000X0.325000X0*%
%ADD58RoundRect,0.040000X-0.410000X-0.360000X0.410000X-0.360000X0.410000X0.360000X-0.410000X0.360000X0*%
%ADD59RoundRect,0.056500X-1.163500X0.508500X-1.163500X-0.508500X1.163500X-0.508500X1.163500X0.508500X0*%
G04 APERTURE END LIST*
D10*
%TO.C,H3*%
X116250000Y-121000000D03*
%TD*%
%TO.C,H1*%
X203800000Y-61200000D03*
%TD*%
%TO.C,H4*%
X204200000Y-120900000D03*
%TD*%
D11*
%TO.C,J300*%
X181600000Y-64740000D03*
X184140000Y-64740000D03*
X186680000Y-64740000D03*
X189220000Y-64740000D03*
X191760000Y-64740000D03*
X194300000Y-64740000D03*
%TD*%
D12*
%TO.C,J800*%
X197650000Y-75065000D03*
X197650000Y-86495000D03*
D13*
X188760000Y-86500000D03*
X191300000Y-85230000D03*
X188760000Y-83960000D03*
X191300000Y-82690000D03*
X188760000Y-81420000D03*
X191300000Y-80150000D03*
X188760000Y-78880000D03*
X191300000Y-77610000D03*
X188760000Y-76340000D03*
X191300000Y-75070000D03*
D14*
X202550000Y-87405000D03*
X202550000Y-84865000D03*
X202550000Y-76695000D03*
X202550000Y-74155000D03*
D15*
X194600000Y-73035000D03*
X194600000Y-88525000D03*
%TD*%
D16*
%TO.C,J900*%
X198550000Y-98980000D03*
X199750000Y-98180000D03*
X198550000Y-97380000D03*
X199750000Y-96580000D03*
X198550000Y-95780000D03*
D17*
X204050000Y-101030000D03*
X204050000Y-93730000D03*
%TD*%
D10*
%TO.C,H2*%
X116560000Y-61680000D03*
%TD*%
D18*
%TO.C,J100*%
X194390000Y-110567500D03*
X200590000Y-110567500D03*
D19*
X197640000Y-105867500D03*
%TD*%
D20*
%TO.C,C718*%
X133430000Y-90120000D03*
X133970000Y-90120000D03*
%TD*%
D21*
%TO.C,R326*%
X178050000Y-107160000D03*
X179070000Y-107160000D03*
%TD*%
D22*
%TO.C,C226*%
X146400000Y-98590000D03*
X146400000Y-98050000D03*
%TD*%
D23*
%TO.C,R606*%
X125990000Y-79890000D03*
X125990000Y-80370000D03*
%TD*%
D22*
%TO.C,C612*%
X148030000Y-91630000D03*
X148030000Y-92170000D03*
%TD*%
D24*
%TO.C,U301*%
X176365000Y-105365000D03*
X176365000Y-106645000D03*
X176365000Y-107905000D03*
X176365000Y-109175000D03*
X170945000Y-109175000D03*
X170945000Y-107905000D03*
X170945000Y-106645000D03*
X170945000Y-105365000D03*
%TD*%
D25*
%TO.C,R609*%
X117720000Y-91310000D03*
X118200000Y-91310000D03*
%TD*%
%TO.C,R623*%
X117740000Y-88090000D03*
X118220000Y-88090000D03*
%TD*%
D26*
%TO.C,C405*%
X142870000Y-81380000D03*
X141910000Y-81380000D03*
%TD*%
D20*
%TO.C,C227*%
X146940000Y-97520000D03*
X147480000Y-97520000D03*
%TD*%
%TO.C,C701*%
X129880000Y-81280000D03*
X130420000Y-81280000D03*
%TD*%
%TO.C,C244*%
X156720000Y-98950000D03*
X156180000Y-98950000D03*
%TD*%
D27*
%TO.C,C409*%
X159570000Y-73310000D03*
X159570000Y-74270000D03*
%TD*%
D28*
%TO.C,C737*%
X127280000Y-104800000D03*
X127920000Y-104800000D03*
%TD*%
D25*
%TO.C,R608*%
X117740000Y-84130000D03*
X118220000Y-84130000D03*
%TD*%
D20*
%TO.C,C709*%
X135170000Y-81290000D03*
X134630000Y-81290000D03*
%TD*%
%TO.C,C228*%
X145260000Y-87110000D03*
X145800000Y-87110000D03*
%TD*%
D29*
%TO.C,C231*%
X147888162Y-93641838D03*
X148270000Y-93260000D03*
%TD*%
D30*
%TO.C,C733*%
X134150000Y-99435000D03*
X134150000Y-100075000D03*
%TD*%
D25*
%TO.C,R619*%
X117740000Y-84930000D03*
X118220000Y-84930000D03*
%TD*%
D20*
%TO.C,C217*%
X149810000Y-90560000D03*
X150350000Y-90560000D03*
%TD*%
D31*
%TO.C,C739*%
X131940000Y-105770000D03*
X131300000Y-105770000D03*
%TD*%
D32*
%TO.C,C215*%
X148990919Y-89720919D03*
X148609081Y-89339081D03*
%TD*%
D25*
%TO.C,R610*%
X117740000Y-90530000D03*
X118220000Y-90530000D03*
%TD*%
D33*
%TO.C,C212*%
X170900000Y-111000000D03*
X167950000Y-111000000D03*
%TD*%
D27*
%TO.C,C903*%
X188190000Y-94620000D03*
X188190000Y-95580000D03*
%TD*%
D20*
%TO.C,C218*%
X149810000Y-92110000D03*
X150350000Y-92110000D03*
%TD*%
D34*
%TO.C,C408*%
X156520000Y-74330000D03*
X156520000Y-73370000D03*
%TD*%
D28*
%TO.C,C740*%
X133240000Y-105750000D03*
X133880000Y-105750000D03*
%TD*%
D20*
%TO.C,C242*%
X151110000Y-99830000D03*
X150570000Y-99830000D03*
%TD*%
D28*
%TO.C,C743*%
X132180000Y-103620000D03*
X132820000Y-103620000D03*
%TD*%
D35*
%TO.C,C816*%
X185260000Y-76790000D03*
X186220000Y-76790000D03*
%TD*%
D31*
%TO.C,C726*%
X124650000Y-96970000D03*
X124010000Y-96970000D03*
%TD*%
%TO.C,C732*%
X132680000Y-99100000D03*
X132040000Y-99100000D03*
%TD*%
D25*
%TO.C,R621*%
X117720000Y-86520000D03*
X118200000Y-86520000D03*
%TD*%
D20*
%TO.C,C607*%
X116720000Y-85700000D03*
X116180000Y-85700000D03*
%TD*%
D36*
%TO.C,R324*%
X179140000Y-109210000D03*
X179140000Y-108190000D03*
%TD*%
D25*
%TO.C,R617*%
X117740000Y-89720000D03*
X118220000Y-89720000D03*
%TD*%
D37*
%TO.C,FB800*%
X185170000Y-89690000D03*
X184170000Y-89690000D03*
%TD*%
D26*
%TO.C,C804*%
X182430000Y-81700000D03*
X181470000Y-81700000D03*
%TD*%
D31*
%TO.C,C736*%
X124670000Y-105580000D03*
X124030000Y-105580000D03*
%TD*%
D38*
%TO.C,J301*%
X204170000Y-107690000D03*
X204170000Y-111690000D03*
D39*
X206320000Y-105940000D03*
D40*
X206320000Y-108390000D03*
X206320000Y-110990000D03*
D39*
X206320000Y-113440000D03*
D41*
X203540000Y-108390000D03*
X203540000Y-109040000D03*
X203540000Y-109690000D03*
X203540000Y-110340000D03*
X203540000Y-110990000D03*
%TD*%
D22*
%TO.C,C206*%
X153410000Y-93350000D03*
X153410000Y-92810000D03*
%TD*%
D31*
%TO.C,C735*%
X123060000Y-105570000D03*
X122420000Y-105570000D03*
%TD*%
D27*
%TO.C,C316*%
X169360000Y-105250000D03*
X169360000Y-106210000D03*
%TD*%
D42*
%TO.C,C248*%
X176120000Y-111120000D03*
X173170000Y-111120000D03*
%TD*%
D20*
%TO.C,C703*%
X122840000Y-81220000D03*
X122300000Y-81220000D03*
%TD*%
D22*
%TO.C,C601*%
X127650000Y-79130000D03*
X127650000Y-78590000D03*
%TD*%
D20*
%TO.C,C717*%
X131980000Y-90010000D03*
X131440000Y-90010000D03*
%TD*%
D35*
%TO.C,C817*%
X185230000Y-75850000D03*
X186190000Y-75850000D03*
%TD*%
D37*
%TO.C,FB300*%
X198270000Y-114550000D03*
X197270000Y-114550000D03*
%TD*%
D36*
%TO.C,R328*%
X177050000Y-99930000D03*
X177050000Y-98910000D03*
%TD*%
D35*
%TO.C,C236*%
X155930000Y-95050000D03*
X156890000Y-95050000D03*
%TD*%
%TO.C,C801*%
X176150000Y-82860000D03*
X177110000Y-82860000D03*
%TD*%
D26*
%TO.C,C901*%
X192760000Y-97650000D03*
X191800000Y-97650000D03*
%TD*%
D22*
%TO.C,C720*%
X129880000Y-87840000D03*
X129880000Y-88380000D03*
%TD*%
D43*
%TO.C,D901*%
X197340000Y-97300000D03*
X197340000Y-96200000D03*
%TD*%
D26*
%TO.C,C247*%
X153660000Y-99210000D03*
X152700000Y-99210000D03*
%TD*%
D20*
%TO.C,C715*%
X127440000Y-89070000D03*
X127980000Y-89070000D03*
%TD*%
D44*
%TO.C,U100*%
X186890000Y-105840000D03*
X186890000Y-106340000D03*
X186890000Y-106840000D03*
X186890000Y-107340000D03*
X186890000Y-107840000D03*
X184070000Y-107840000D03*
X184070000Y-107340000D03*
X184070000Y-106840000D03*
X184070000Y-106340000D03*
X184070000Y-105840000D03*
D45*
X185480000Y-106840000D03*
%TD*%
D34*
%TO.C,C216*%
X146140000Y-84090000D03*
X146140000Y-83130000D03*
%TD*%
D46*
%TO.C,R101*%
X187070000Y-109310000D03*
X187070000Y-110330000D03*
%TD*%
D29*
%TO.C,C613*%
X147819081Y-95330919D03*
X148200919Y-94949081D03*
%TD*%
D25*
%TO.C,R604*%
X117700000Y-85740000D03*
X118180000Y-85740000D03*
%TD*%
D20*
%TO.C,C245*%
X148770000Y-98060000D03*
X148230000Y-98060000D03*
%TD*%
%TO.C,C710*%
X132670000Y-83460000D03*
X132130000Y-83460000D03*
%TD*%
D42*
%TO.C,C224*%
X194480000Y-117780000D03*
X191530000Y-117780000D03*
%TD*%
D22*
%TO.C,C719*%
X135770000Y-88610000D03*
X135770000Y-89150000D03*
%TD*%
D46*
%TO.C,R427*%
X151190000Y-86180000D03*
X151190000Y-87200000D03*
%TD*%
D47*
%TO.C,C103*%
X184650000Y-104470000D03*
X186650000Y-104470000D03*
%TD*%
D46*
%TO.C,R400*%
X148980000Y-83150000D03*
X148980000Y-84170000D03*
%TD*%
D20*
%TO.C,C708*%
X133600000Y-81290000D03*
X133060000Y-81290000D03*
%TD*%
D21*
%TO.C,R403*%
X182160000Y-118170000D03*
X183180000Y-118170000D03*
%TD*%
D31*
%TO.C,C725*%
X122890000Y-97000000D03*
X122250000Y-97000000D03*
%TD*%
%TO.C,C728*%
X128660000Y-97970000D03*
X128020000Y-97970000D03*
%TD*%
D48*
%TO.C,D306*%
X202032500Y-103320000D03*
X203002500Y-103320000D03*
%TD*%
D22*
%TO.C,C239*%
X158170000Y-90400000D03*
X158170000Y-90940000D03*
%TD*%
D34*
%TO.C,C608*%
X129270000Y-79070000D03*
X129270000Y-78110000D03*
%TD*%
D21*
%TO.C,R903*%
X194760000Y-98790000D03*
X195780000Y-98790000D03*
%TD*%
D27*
%TO.C,C413*%
X160660000Y-73330000D03*
X160660000Y-74290000D03*
%TD*%
D35*
%TO.C,C802*%
X176140000Y-81670000D03*
X177100000Y-81670000D03*
%TD*%
D34*
%TO.C,C815*%
X183170000Y-89730000D03*
X183170000Y-88770000D03*
%TD*%
D22*
%TO.C,C603*%
X126010000Y-79090000D03*
X126010000Y-78550000D03*
%TD*%
D20*
%TO.C,C241*%
X155870000Y-93270000D03*
X155330000Y-93270000D03*
%TD*%
D25*
%TO.C,R600*%
X127410000Y-86000000D03*
X127890000Y-86000000D03*
%TD*%
D49*
%TO.C,C211*%
X147590919Y-101169081D03*
X147209081Y-101550919D03*
%TD*%
D42*
%TO.C,C200*%
X140410000Y-111930000D03*
X137460000Y-111930000D03*
%TD*%
D34*
%TO.C,C407*%
X155430000Y-74320000D03*
X155430000Y-73360000D03*
%TD*%
D26*
%TO.C,C805*%
X182440000Y-80350000D03*
X181480000Y-80350000D03*
%TD*%
D50*
%TO.C,FB200*%
X145070000Y-84100000D03*
X145070000Y-83100000D03*
%TD*%
%TO.C,FB801*%
X184200000Y-77990000D03*
X184200000Y-76990000D03*
%TD*%
D42*
%TO.C,C233*%
X137420000Y-108990000D03*
X140370000Y-108990000D03*
%TD*%
D25*
%TO.C,R622*%
X117750000Y-83330000D03*
X118230000Y-83330000D03*
%TD*%
D22*
%TO.C,C711*%
X134290000Y-83850000D03*
X134290000Y-84390000D03*
%TD*%
D20*
%TO.C,C238*%
X153510000Y-100530000D03*
X152970000Y-100530000D03*
%TD*%
D30*
%TO.C,C741*%
X134630000Y-104330000D03*
X134630000Y-104970000D03*
%TD*%
D23*
%TO.C,R404*%
X146950000Y-83260000D03*
X146950000Y-83740000D03*
%TD*%
D51*
%TO.C,D305*%
X196810000Y-108430000D03*
X196810000Y-110770000D03*
%TD*%
D23*
%TO.C,R624*%
X128420000Y-79880000D03*
X128420000Y-80360000D03*
%TD*%
D52*
%TO.C,C100*%
X189190000Y-106300000D03*
X189190000Y-104300000D03*
%TD*%
D26*
%TO.C,C402*%
X183150000Y-116900000D03*
X182190000Y-116900000D03*
%TD*%
D20*
%TO.C,C713*%
X123070000Y-89950000D03*
X122530000Y-89950000D03*
%TD*%
D36*
%TO.C,R325*%
X178030000Y-109220000D03*
X178030000Y-108200000D03*
%TD*%
D26*
%TO.C,C611*%
X116740000Y-95300000D03*
X115780000Y-95300000D03*
%TD*%
D31*
%TO.C,C730*%
X133650000Y-96950000D03*
X133010000Y-96950000D03*
%TD*%
D42*
%TO.C,C204*%
X140320000Y-106490000D03*
X137370000Y-106490000D03*
%TD*%
D53*
%TO.C,R334*%
X170790000Y-96080000D03*
X169770000Y-96080000D03*
%TD*%
D20*
%TO.C,C721*%
X132170000Y-88030000D03*
X132710000Y-88030000D03*
%TD*%
D35*
%TO.C,C232*%
X149670000Y-95900000D03*
X148710000Y-95900000D03*
%TD*%
D34*
%TO.C,C302*%
X197280000Y-113550000D03*
X197280000Y-112590000D03*
%TD*%
D53*
%TO.C,R100*%
X184250000Y-111370000D03*
X183230000Y-111370000D03*
%TD*%
D25*
%TO.C,R611*%
X117740000Y-81760000D03*
X118220000Y-81760000D03*
%TD*%
D35*
%TO.C,C403*%
X180380000Y-113470000D03*
X181340000Y-113470000D03*
%TD*%
D27*
%TO.C,C237*%
X158990000Y-90030000D03*
X158990000Y-90990000D03*
%TD*%
D31*
%TO.C,C727*%
X127060000Y-97950000D03*
X126420000Y-97950000D03*
%TD*%
D20*
%TO.C,C722*%
X126640000Y-104130000D03*
X126100000Y-104130000D03*
%TD*%
D54*
%TO.C,J1001*%
X174840000Y-115480000D03*
X174840000Y-119880000D03*
X174040000Y-115480000D03*
X174040000Y-119880000D03*
X173240000Y-115480000D03*
X173240000Y-119880000D03*
X172440000Y-115480000D03*
X172440000Y-119880000D03*
X171640000Y-115480000D03*
X171640000Y-119880000D03*
X170840000Y-115480000D03*
X170840000Y-119880000D03*
X170040000Y-115480000D03*
X170040000Y-119880000D03*
X169240000Y-115480000D03*
X169240000Y-119880000D03*
X168440000Y-115480000D03*
X168440000Y-119880000D03*
X167640000Y-115480000D03*
X167640000Y-119880000D03*
X166840000Y-115480000D03*
X166840000Y-119880000D03*
X166040000Y-115480000D03*
X166040000Y-119880000D03*
X165240000Y-115480000D03*
X165240000Y-119880000D03*
X164440000Y-115480000D03*
X164440000Y-119880000D03*
X163640000Y-115480000D03*
X163640000Y-119880000D03*
X162840000Y-115480000D03*
X162840000Y-119880000D03*
X162040000Y-115480000D03*
X162040000Y-119880000D03*
X161240000Y-115480000D03*
X161240000Y-119880000D03*
X160440000Y-115480000D03*
X160440000Y-119880000D03*
X159640000Y-115480000D03*
X159640000Y-119880000D03*
X158840000Y-115480000D03*
X158840000Y-119880000D03*
X158040000Y-115480000D03*
X158040000Y-119880000D03*
X157240000Y-115480000D03*
X157240000Y-119880000D03*
X156440000Y-115480000D03*
X156440000Y-119880000D03*
X155640000Y-115480000D03*
X155640000Y-119880000D03*
X154840000Y-115480000D03*
X154840000Y-119880000D03*
X154040000Y-115480000D03*
X154040000Y-119880000D03*
X153240000Y-115480000D03*
X153240000Y-119880000D03*
X152440000Y-115480000D03*
X152440000Y-119880000D03*
X151640000Y-115480000D03*
X151640000Y-119880000D03*
X150840000Y-115480000D03*
X150840000Y-119880000D03*
X150040000Y-115480000D03*
X150040000Y-119880000D03*
X149240000Y-115480000D03*
X149240000Y-119880000D03*
X148440000Y-115480000D03*
X148440000Y-119880000D03*
X147640000Y-115480000D03*
X147640000Y-119880000D03*
X146840000Y-115480000D03*
X146840000Y-119880000D03*
X146040000Y-115480000D03*
X146040000Y-119880000D03*
X145240000Y-115480000D03*
X145240000Y-119880000D03*
X144440000Y-115480000D03*
X144440000Y-119880000D03*
X143640000Y-115480000D03*
X143640000Y-119880000D03*
%TD*%
D20*
%TO.C,C706*%
X128780000Y-82320000D03*
X128240000Y-82320000D03*
%TD*%
%TO.C,C714*%
X124750000Y-89940000D03*
X124210000Y-89940000D03*
%TD*%
D53*
%TO.C,R420*%
X146910000Y-80220000D03*
X145890000Y-80220000D03*
%TD*%
D20*
%TO.C,C705*%
X127140000Y-82340000D03*
X126600000Y-82340000D03*
%TD*%
D28*
%TO.C,C738*%
X129690000Y-105790000D03*
X130330000Y-105790000D03*
%TD*%
D34*
%TO.C,C813*%
X187380000Y-89690000D03*
X187380000Y-88730000D03*
%TD*%
D35*
%TO.C,C819*%
X185250000Y-78070000D03*
X186210000Y-78070000D03*
%TD*%
D23*
%TO.C,R612*%
X125220000Y-79890000D03*
X125220000Y-80370000D03*
%TD*%
D26*
%TO.C,C410*%
X156660000Y-71180000D03*
X155700000Y-71180000D03*
%TD*%
D34*
%TO.C,C301*%
X198290000Y-113530000D03*
X198290000Y-112570000D03*
%TD*%
D35*
%TO.C,C803*%
X176110000Y-79420000D03*
X177070000Y-79420000D03*
%TD*%
D20*
%TO.C,C600*%
X116710000Y-80990000D03*
X116170000Y-80990000D03*
%TD*%
%TO.C,C219*%
X150960000Y-95900000D03*
X151500000Y-95900000D03*
%TD*%
D36*
%TO.C,R401*%
X147910000Y-84150000D03*
X147910000Y-83130000D03*
%TD*%
D53*
%TO.C,R335*%
X170810000Y-97350000D03*
X169790000Y-97350000D03*
%TD*%
D20*
%TO.C,C606*%
X116690000Y-88160000D03*
X116150000Y-88160000D03*
%TD*%
D35*
%TO.C,C818*%
X185240000Y-79030000D03*
X186200000Y-79030000D03*
%TD*%
D26*
%TO.C,C213*%
X155330000Y-86370000D03*
X154370000Y-86370000D03*
%TD*%
D36*
%TO.C,R102*%
X185940000Y-110320000D03*
X185940000Y-109300000D03*
%TD*%
D55*
%TO.C,U400*%
X181720000Y-114640000D03*
X181720000Y-115140000D03*
X181720000Y-115640000D03*
X180280000Y-115640000D03*
X180280000Y-114640000D03*
%TD*%
D56*
%TO.C,D307*%
X200985000Y-103340000D03*
X200015000Y-103340000D03*
%TD*%
D26*
%TO.C,C223*%
X150530000Y-98210000D03*
X149570000Y-98210000D03*
%TD*%
D25*
%TO.C,R601*%
X117740000Y-94460000D03*
X118220000Y-94460000D03*
%TD*%
D26*
%TO.C,C229*%
X144630000Y-95240000D03*
X143670000Y-95240000D03*
%TD*%
D32*
%TO.C,C203*%
X153071838Y-90541838D03*
X152690000Y-90160000D03*
%TD*%
D20*
%TO.C,C704*%
X124740000Y-81600000D03*
X124200000Y-81600000D03*
%TD*%
D25*
%TO.C,R614*%
X117720000Y-80160000D03*
X118200000Y-80160000D03*
%TD*%
D21*
%TO.C,R327*%
X178780000Y-105930000D03*
X179800000Y-105930000D03*
%TD*%
D34*
%TO.C,C400*%
X151230000Y-90370000D03*
X151230000Y-89410000D03*
%TD*%
D26*
%TO.C,C800*%
X174820000Y-82850000D03*
X173860000Y-82850000D03*
%TD*%
D27*
%TO.C,C102*%
X184790000Y-109320000D03*
X184790000Y-110280000D03*
%TD*%
D54*
%TO.C,J1000*%
X174720000Y-62110000D03*
X174720000Y-66510000D03*
X173920000Y-62110000D03*
X173920000Y-66510000D03*
X173120000Y-62110000D03*
X173120000Y-66510000D03*
X172320000Y-62110000D03*
X172320000Y-66510000D03*
X171520000Y-62110000D03*
X171520000Y-66510000D03*
X170720000Y-62110000D03*
X170720000Y-66510000D03*
X169920000Y-62110000D03*
X169920000Y-66510000D03*
X169120000Y-62110000D03*
X169120000Y-66510000D03*
X168320000Y-62110000D03*
X168320000Y-66510000D03*
X167520000Y-62110000D03*
X167520000Y-66510000D03*
X166720000Y-62110000D03*
X166720000Y-66510000D03*
X165920000Y-62110000D03*
X165920000Y-66510000D03*
X165120000Y-62110000D03*
X165120000Y-66510000D03*
X164320000Y-62110000D03*
X164320000Y-66510000D03*
X163520000Y-62110000D03*
X163520000Y-66510000D03*
X162720000Y-62110000D03*
X162720000Y-66510000D03*
X161920000Y-62110000D03*
X161920000Y-66510000D03*
X161120000Y-62110000D03*
X161120000Y-66510000D03*
X160320000Y-62110000D03*
X160320000Y-66510000D03*
X159520000Y-62110000D03*
X159520000Y-66510000D03*
X158720000Y-62110000D03*
X158720000Y-66510000D03*
X157920000Y-62110000D03*
X157920000Y-66510000D03*
X157120000Y-62110000D03*
X157120000Y-66510000D03*
X156320000Y-62110000D03*
X156320000Y-66510000D03*
X155520000Y-62110000D03*
X155520000Y-66510000D03*
X154720000Y-62110000D03*
X154720000Y-66510000D03*
X153920000Y-62110000D03*
X153920000Y-66510000D03*
X153120000Y-62110000D03*
X153120000Y-66510000D03*
X152320000Y-62110000D03*
X152320000Y-66510000D03*
X151520000Y-62110000D03*
X151520000Y-66510000D03*
X150720000Y-62110000D03*
X150720000Y-66510000D03*
X149920000Y-62110000D03*
X149920000Y-66510000D03*
X149120000Y-62110000D03*
X149120000Y-66510000D03*
X148320000Y-62110000D03*
X148320000Y-66510000D03*
X147520000Y-62110000D03*
X147520000Y-66510000D03*
X146720000Y-62110000D03*
X146720000Y-66510000D03*
X145920000Y-62110000D03*
X145920000Y-66510000D03*
X145120000Y-62110000D03*
X145120000Y-66510000D03*
X144320000Y-62110000D03*
X144320000Y-66510000D03*
X143520000Y-62110000D03*
X143520000Y-66510000D03*
%TD*%
D25*
%TO.C,R405*%
X170000000Y-95040000D03*
X170480000Y-95040000D03*
%TD*%
D32*
%TO.C,C225*%
X145110919Y-93810919D03*
X144729081Y-93429081D03*
%TD*%
D27*
%TO.C,C904*%
X189200000Y-94610000D03*
X189200000Y-95570000D03*
%TD*%
%TO.C,C101*%
X183760000Y-109290000D03*
X183760000Y-110250000D03*
%TD*%
D25*
%TO.C,R615*%
X117730000Y-92070000D03*
X118210000Y-92070000D03*
%TD*%
D20*
%TO.C,C222*%
X150270000Y-97430000D03*
X149730000Y-97430000D03*
%TD*%
D25*
%TO.C,R613*%
X117720000Y-92860000D03*
X118200000Y-92860000D03*
%TD*%
%TO.C,R607*%
X117740000Y-93670000D03*
X118220000Y-93670000D03*
%TD*%
D35*
%TO.C,C246*%
X156760000Y-100680000D03*
X157720000Y-100680000D03*
%TD*%
D34*
%TO.C,C812*%
X186340000Y-89700000D03*
X186340000Y-88740000D03*
%TD*%
D23*
%TO.C,R627*%
X144940000Y-91690000D03*
X144940000Y-92170000D03*
%TD*%
D30*
%TO.C,C742*%
X129790000Y-103470000D03*
X129790000Y-104110000D03*
%TD*%
D20*
%TO.C,C604*%
X116690000Y-92900000D03*
X116150000Y-92900000D03*
%TD*%
%TO.C,C716*%
X129780000Y-89990000D03*
X130320000Y-89990000D03*
%TD*%
D51*
%TO.C,D903*%
X194280000Y-105450000D03*
X194280000Y-103110000D03*
%TD*%
D20*
%TO.C,C602*%
X116720000Y-83310000D03*
X116180000Y-83310000D03*
%TD*%
D25*
%TO.C,R616*%
X117730000Y-80980000D03*
X118210000Y-80980000D03*
%TD*%
%TO.C,R620*%
X117740000Y-88880000D03*
X118220000Y-88880000D03*
%TD*%
D22*
%TO.C,C207*%
X152200000Y-96780000D03*
X152200000Y-97320000D03*
%TD*%
D57*
%TO.C,C235*%
X137910000Y-61850000D03*
X137910000Y-64800000D03*
%TD*%
D58*
%TO.C,X400*%
X142880000Y-78790000D03*
X144730000Y-78790000D03*
X144730000Y-80240000D03*
X142880000Y-80240000D03*
%TD*%
D25*
%TO.C,R618*%
X117740000Y-82550000D03*
X118220000Y-82550000D03*
%TD*%
D27*
%TO.C,C205*%
X153490000Y-96600000D03*
X153490000Y-97560000D03*
%TD*%
D23*
%TO.C,R602*%
X126810000Y-79880000D03*
X126810000Y-80360000D03*
%TD*%
D21*
%TO.C,R333*%
X172730000Y-94800000D03*
X173750000Y-94800000D03*
%TD*%
D42*
%TO.C,C221*%
X194610000Y-114970000D03*
X191660000Y-114970000D03*
%TD*%
D20*
%TO.C,C700*%
X126730000Y-88500000D03*
X126190000Y-88500000D03*
%TD*%
D23*
%TO.C,R626*%
X146430000Y-89010000D03*
X146430000Y-88530000D03*
%TD*%
D20*
%TO.C,C243*%
X155300000Y-97300000D03*
X155840000Y-97300000D03*
%TD*%
D28*
%TO.C,C729*%
X131380000Y-96940000D03*
X132020000Y-96940000D03*
%TD*%
D20*
%TO.C,C707*%
X131530000Y-81270000D03*
X132070000Y-81270000D03*
%TD*%
D23*
%TO.C,R605*%
X127640000Y-79880000D03*
X127640000Y-80360000D03*
%TD*%
D42*
%TO.C,R128*%
X203760000Y-82130000D03*
X200810000Y-82130000D03*
%TD*%
%TO.C,C130*%
X203780000Y-79150000D03*
X200830000Y-79150000D03*
%TD*%
D27*
%TO.C,C902*%
X190230000Y-94590000D03*
X190230000Y-95550000D03*
%TD*%
D22*
%TO.C,C202*%
X151750000Y-91190000D03*
X151750000Y-91730000D03*
%TD*%
%TO.C,C208*%
X153430000Y-94960000D03*
X153430000Y-94420000D03*
%TD*%
D26*
%TO.C,C734*%
X123180000Y-106430000D03*
X122220000Y-106430000D03*
%TD*%
D35*
%TO.C,C201*%
X152780000Y-91770000D03*
X153740000Y-91770000D03*
%TD*%
D20*
%TO.C,C214*%
X149530000Y-94110000D03*
X148990000Y-94110000D03*
%TD*%
D59*
%TO.C,SW301*%
X133730000Y-63350000D03*
X133730000Y-65890000D03*
X133730000Y-68430000D03*
X125120000Y-68430000D03*
X125120000Y-65890000D03*
X125120000Y-63350000D03*
%TD*%
D34*
%TO.C,C814*%
X181980000Y-89770000D03*
X181980000Y-88810000D03*
%TD*%
%TO.C,C220*%
X151970000Y-94390000D03*
X151970000Y-93430000D03*
%TD*%
%TO.C,C406*%
X159680000Y-70240000D03*
X159680000Y-69280000D03*
%TD*%
D25*
%TO.C,R603*%
X117750000Y-87300000D03*
X118230000Y-87300000D03*
%TD*%
D34*
%TO.C,C806*%
X180090000Y-84100000D03*
X180090000Y-83140000D03*
%TD*%
D26*
%TO.C,C610*%
X116710000Y-87040000D03*
X115750000Y-87040000D03*
%TD*%
D20*
%TO.C,C605*%
X116710000Y-90520000D03*
X116170000Y-90520000D03*
%TD*%
%TO.C,C723*%
X129780000Y-96960000D03*
X130320000Y-96960000D03*
%TD*%
D43*
%TO.C,D900*%
X197340000Y-98380000D03*
X197340000Y-99480000D03*
%TD*%
D26*
%TO.C,C210*%
X147340000Y-86360000D03*
X146380000Y-86360000D03*
%TD*%
%TO.C,C609*%
X116690000Y-79150000D03*
X115730000Y-79150000D03*
%TD*%
D22*
%TO.C,C240*%
X159020000Y-88070000D03*
X159020000Y-88610000D03*
%TD*%
D31*
%TO.C,C731*%
X135190000Y-96950000D03*
X134550000Y-96950000D03*
%TD*%
M02*
