%TF.GenerationSoftware,KiCad,Pcbnew,8.0.6*%
%TF.CreationDate,2025-01-12T20:29:37+06:00*%
%TF.ProjectId,zynq_soc_board_v1,7a796e71-5f73-46f6-935f-626f6172645f,rev?*%
%TF.SameCoordinates,Original*%
%TF.FileFunction,Soldermask,Top*%
%TF.FilePolarity,Negative*%
%FSLAX46Y46*%
G04 Gerber Fmt 4.6, Leading zero omitted, Abs format (unit mm)*
G04 Created by KiCad (PCBNEW 8.0.6) date 2025-01-12 20:29:37*
%MOMM*%
%LPD*%
G01*
G04 APERTURE LIST*
G04 Aperture macros list*
%AMRoundRect*
0 Rectangle with rounded corners*
0 $1 Rounding radius*
0 $2 $3 $4 $5 $6 $7 $8 $9 X,Y pos of 4 corners*
0 Add a 4 corners polygon primitive as box body*
4,1,4,$2,$3,$4,$5,$6,$7,$8,$9,$2,$3,0*
0 Add four circle primitives for the rounded corners*
1,1,$1+$1,$2,$3*
1,1,$1+$1,$4,$5*
1,1,$1+$1,$6,$7*
1,1,$1+$1,$8,$9*
0 Add four rect primitives between the rounded corners*
20,1,$1+$1,$2,$3,$4,$5,0*
20,1,$1+$1,$4,$5,$6,$7,0*
20,1,$1+$1,$6,$7,$8,$9,0*
20,1,$1+$1,$8,$9,$2,$3,0*%
G04 Aperture macros list end*
%ADD10R,2.300000X1.650000*%
%ADD11RoundRect,0.147500X0.172500X-0.147500X0.172500X0.147500X-0.172500X0.147500X-0.172500X-0.147500X0*%
%ADD12RoundRect,0.135000X0.135000X0.185000X-0.135000X0.185000X-0.135000X-0.185000X0.135000X-0.185000X0*%
%ADD13RoundRect,0.135000X-0.135000X-0.185000X0.135000X-0.185000X0.135000X0.185000X-0.135000X0.185000X0*%
%ADD14RoundRect,0.135000X-0.185000X0.135000X-0.185000X-0.135000X0.185000X-0.135000X0.185000X0.135000X0*%
%ADD15RoundRect,0.250000X0.325000X0.650000X-0.325000X0.650000X-0.325000X-0.650000X0.325000X-0.650000X0*%
%ADD16RoundRect,0.140000X0.170000X-0.140000X0.170000X0.140000X-0.170000X0.140000X-0.170000X-0.140000X0*%
%ADD17RoundRect,0.135000X0.185000X-0.135000X0.185000X0.135000X-0.185000X0.135000X-0.185000X-0.135000X0*%
%ADD18RoundRect,0.140000X-0.140000X-0.170000X0.140000X-0.170000X0.140000X0.170000X-0.140000X0.170000X0*%
%ADD19O,0.800000X0.200000*%
%ADD20O,0.200000X0.800000*%
%ADD21R,3.800000X3.800000*%
%ADD22RoundRect,0.150000X0.150000X-0.587500X0.150000X0.587500X-0.150000X0.587500X-0.150000X-0.587500X0*%
%ADD23RoundRect,0.075000X-0.225000X-0.275000X0.225000X-0.275000X0.225000X0.275000X-0.225000X0.275000X0*%
%ADD24RoundRect,0.140000X0.140000X0.170000X-0.140000X0.170000X-0.140000X-0.170000X0.140000X-0.170000X0*%
%ADD25R,0.540000X0.790000*%
%ADD26R,1.350000X1.410000*%
%ADD27C,0.250000*%
%ADD28R,0.650000X1.050000*%
%ADD29R,0.510000X0.280000*%
%ADD30R,0.800000X1.200000*%
%ADD31R,1.200000X0.600000*%
%ADD32R,3.400000X4.300000*%
%ADD33R,1.410000X1.350000*%
%ADD34R,0.280000X0.580000*%
%ADD35RoundRect,0.150000X-0.587500X-0.150000X0.587500X-0.150000X0.587500X0.150000X-0.587500X0.150000X0*%
%ADD36RoundRect,0.075000X-0.275000X0.225000X-0.275000X-0.225000X0.275000X-0.225000X0.275000X0.225000X0*%
%ADD37RoundRect,0.075000X0.225000X0.275000X-0.225000X0.275000X-0.225000X-0.275000X0.225000X-0.275000X0*%
%ADD38R,0.300000X0.320000*%
%ADD39C,3.200000*%
%ADD40R,0.800000X0.280000*%
%ADD41R,0.280000X0.800000*%
%ADD42R,3.400000X3.400000*%
%ADD43R,1.200000X0.500000*%
%ADD44C,0.390000*%
%ADD45RoundRect,0.040000X0.360000X-0.410000X0.360000X0.410000X-0.360000X0.410000X-0.360000X-0.410000X0*%
%ADD46RoundRect,0.140000X-0.170000X0.140000X-0.170000X-0.140000X0.170000X-0.140000X0.170000X0.140000X0*%
%ADD47O,1.100000X0.400000*%
%ADD48C,2.000000*%
%ADD49RoundRect,0.040000X0.410000X0.360000X-0.410000X0.360000X-0.410000X-0.360000X0.410000X-0.360000X0*%
%ADD50C,3.250000*%
%ADD51C,1.750000*%
%ADD52C,1.900000*%
%ADD53C,2.700000*%
%ADD54C,1.100000*%
%ADD55O,2.100000X1.100000*%
%ADD56RoundRect,0.250000X0.650000X-0.325000X0.650000X0.325000X-0.650000X0.325000X-0.650000X-0.325000X0*%
%ADD57O,2.000000X4.600000*%
%ADD58O,4.600000X2.000000*%
%ADD59R,1.000000X0.750000*%
%ADD60RoundRect,0.250000X-0.325000X-0.650000X0.325000X-0.650000X0.325000X0.650000X-0.325000X0.650000X0*%
%ADD61RoundRect,0.218750X0.256250X-0.218750X0.256250X0.218750X-0.256250X0.218750X-0.256250X-0.218750X0*%
%ADD62R,0.370000X0.320000*%
%ADD63C,0.500000*%
%ADD64O,1.800000X0.280000*%
%ADD65O,0.280000X1.800000*%
%ADD66C,0.650000*%
G04 APERTURE END LIST*
D10*
%TO.C,L100*%
X140510000Y-115140000D03*
X140510000Y-111280000D03*
%TD*%
D11*
%TO.C,D303*%
X190780000Y-68410000D03*
X190780000Y-67440000D03*
%TD*%
D12*
%TO.C,R406*%
X165050000Y-84870000D03*
X164030000Y-84870000D03*
%TD*%
D13*
%TO.C,R900*%
X190670000Y-91490000D03*
X191690000Y-91490000D03*
%TD*%
D12*
%TO.C,R904*%
X195680000Y-99560000D03*
X194660000Y-99560000D03*
%TD*%
D10*
%TO.C,L101*%
X158610000Y-114890000D03*
X158610000Y-111030000D03*
%TD*%
D14*
%TO.C,R300*%
X184440000Y-69500000D03*
X184440000Y-70520000D03*
%TD*%
D13*
%TO.C,R124*%
X191130000Y-114150000D03*
X192150000Y-114150000D03*
%TD*%
D14*
%TO.C,R813*%
X172010000Y-86180000D03*
X172010000Y-87200000D03*
%TD*%
D13*
%TO.C,R806*%
X168730000Y-80280000D03*
X169750000Y-80280000D03*
%TD*%
D14*
%TO.C,R902*%
X194120000Y-94550000D03*
X194120000Y-95570000D03*
%TD*%
D15*
%TO.C,C230*%
X121500000Y-92000000D03*
X118550000Y-92000000D03*
%TD*%
D16*
%TO.C,C304*%
X180570000Y-97770000D03*
X180570000Y-96810000D03*
%TD*%
D17*
%TO.C,R808*%
X173440000Y-76420000D03*
X173440000Y-75400000D03*
%TD*%
%TO.C,R306*%
X187150000Y-68425000D03*
X187150000Y-67405000D03*
%TD*%
%TO.C,R810*%
X176300000Y-76450000D03*
X176300000Y-75430000D03*
%TD*%
D18*
%TO.C,C115*%
X132450000Y-117320000D03*
X133410000Y-117320000D03*
%TD*%
D19*
%TO.C,U800*%
X181790000Y-82720000D03*
X181790000Y-82320000D03*
X181790000Y-81920000D03*
X181790000Y-81520000D03*
X181790000Y-81120000D03*
X181790000Y-80720000D03*
X181790000Y-80320000D03*
X181790000Y-79920000D03*
X181790000Y-79520000D03*
X181790000Y-79120000D03*
D20*
X181090000Y-78420000D03*
X180690000Y-78420000D03*
X180290000Y-78420000D03*
X179890000Y-78420000D03*
X179490000Y-78420000D03*
X179090000Y-78420000D03*
X178690000Y-78420000D03*
X178290000Y-78420000D03*
X177890000Y-78420000D03*
X177490000Y-78420000D03*
D19*
X176790000Y-79120000D03*
X176790000Y-79520000D03*
X176790000Y-79920000D03*
X176790000Y-80320000D03*
X176790000Y-80720000D03*
X176790000Y-81120000D03*
X176790000Y-81520000D03*
X176790000Y-81920000D03*
X176790000Y-82320000D03*
X176790000Y-82720000D03*
D20*
X177490000Y-83420000D03*
X177890000Y-83420000D03*
X178290000Y-83420000D03*
X178690000Y-83420000D03*
X179090000Y-83420000D03*
X179490000Y-83420000D03*
X179890000Y-83420000D03*
X180290000Y-83420000D03*
X180690000Y-83420000D03*
X181090000Y-83420000D03*
D21*
X179290000Y-80920000D03*
%TD*%
D12*
%TO.C,R811*%
X171900000Y-79080000D03*
X170880000Y-79080000D03*
%TD*%
D22*
%TO.C,Q500*%
X158320000Y-106390000D03*
X160220000Y-106390000D03*
X159270000Y-104515000D03*
%TD*%
D18*
%TO.C,C116*%
X129470000Y-119470000D03*
X130430000Y-119470000D03*
%TD*%
D23*
%TO.C,D300*%
X153130000Y-107020000D03*
X154130000Y-107020000D03*
%TD*%
D18*
%TO.C,C125*%
X129200000Y-64800000D03*
X130160000Y-64800000D03*
%TD*%
D14*
%TO.C,R816*%
X178740000Y-86140000D03*
X178740000Y-87160000D03*
%TD*%
D16*
%TO.C,C808*%
X183470000Y-78260000D03*
X183470000Y-77300000D03*
%TD*%
D13*
%TO.C,R118*%
X185290000Y-119510000D03*
X186310000Y-119510000D03*
%TD*%
D14*
%TO.C,R336*%
X164830000Y-105350000D03*
X164830000Y-106370000D03*
%TD*%
D24*
%TO.C,C702*%
X123020000Y-80370000D03*
X122060000Y-80370000D03*
%TD*%
D12*
%TO.C,R106*%
X146900000Y-118520000D03*
X145880000Y-118520000D03*
%TD*%
D24*
%TO.C,C310*%
X173890000Y-90450000D03*
X172930000Y-90450000D03*
%TD*%
D17*
%TO.C,R425*%
X164140000Y-70800000D03*
X164140000Y-69780000D03*
%TD*%
D16*
%TO.C,C905*%
X196090000Y-102240000D03*
X196090000Y-101280000D03*
%TD*%
D25*
%TO.C,D301*%
X185740000Y-68480000D03*
X185740000Y-67380000D03*
%TD*%
D26*
%TO.C,C114*%
X133950000Y-114590000D03*
X133950000Y-112590000D03*
%TD*%
D14*
%TO.C,R817*%
X177410000Y-86150000D03*
X177410000Y-87170000D03*
%TD*%
%TO.C,R426*%
X165320000Y-69780000D03*
X165320000Y-70800000D03*
%TD*%
D12*
%TO.C,R807*%
X171930000Y-77810000D03*
X170910000Y-77810000D03*
%TD*%
D27*
%TO.C,U403*%
X160670000Y-75830000D03*
X160170000Y-75830000D03*
X159670000Y-75830000D03*
X159170000Y-75830000D03*
X158670000Y-75830000D03*
X158170000Y-75830000D03*
X157670000Y-75830000D03*
X157170000Y-75830000D03*
X156670000Y-75830000D03*
X156170000Y-75830000D03*
X155670000Y-75830000D03*
X155170000Y-75830000D03*
X154670000Y-75830000D03*
X154170000Y-75830000D03*
X160170000Y-75330000D03*
X159670000Y-75330000D03*
X159170000Y-75330000D03*
X158670000Y-75330000D03*
X158170000Y-75330000D03*
X157670000Y-75330000D03*
X157170000Y-75330000D03*
X156670000Y-75330000D03*
X156170000Y-75330000D03*
X155670000Y-75330000D03*
X155170000Y-75330000D03*
X154670000Y-75330000D03*
X154170000Y-75330000D03*
X160170000Y-74830000D03*
X159670000Y-74830000D03*
X159170000Y-74830000D03*
X158670000Y-74830000D03*
X158170000Y-74830000D03*
X157670000Y-74830000D03*
X157170000Y-74830000D03*
X156670000Y-74830000D03*
X156170000Y-74830000D03*
X155670000Y-74830000D03*
X155170000Y-74830000D03*
X154670000Y-74830000D03*
X154170000Y-74830000D03*
X160670000Y-74330000D03*
X160170000Y-74330000D03*
X159670000Y-74330000D03*
X159170000Y-74330000D03*
X155170000Y-74330000D03*
X154670000Y-74330000D03*
X154170000Y-74330000D03*
X160670000Y-73830000D03*
X160170000Y-73830000D03*
X159670000Y-73830000D03*
X158670000Y-73830000D03*
X158170000Y-73830000D03*
X157670000Y-73830000D03*
X157170000Y-73830000D03*
X156670000Y-73830000D03*
X156170000Y-73830000D03*
X155170000Y-73830000D03*
X154670000Y-73830000D03*
X154170000Y-73830000D03*
X160670000Y-73330000D03*
X160170000Y-73330000D03*
X159670000Y-73330000D03*
X158670000Y-73330000D03*
X156170000Y-73330000D03*
X155170000Y-73330000D03*
X154670000Y-73330000D03*
X154170000Y-73330000D03*
X160670000Y-72830000D03*
X160170000Y-72830000D03*
X159670000Y-72830000D03*
X158670000Y-72830000D03*
X156170000Y-72830000D03*
X155170000Y-72830000D03*
X154670000Y-72830000D03*
X154170000Y-72830000D03*
X160670000Y-72330000D03*
X160170000Y-72330000D03*
X159670000Y-72330000D03*
X158670000Y-72330000D03*
X156170000Y-72330000D03*
X155170000Y-72330000D03*
X154670000Y-72330000D03*
X154170000Y-72330000D03*
X160670000Y-71830000D03*
X160170000Y-71830000D03*
X159670000Y-71830000D03*
X158670000Y-71830000D03*
X156170000Y-71830000D03*
X155170000Y-71830000D03*
X154670000Y-71830000D03*
X154170000Y-71830000D03*
X160670000Y-71330000D03*
X160170000Y-71330000D03*
X159670000Y-71330000D03*
X158670000Y-71330000D03*
X158170000Y-71330000D03*
X157670000Y-71330000D03*
X157170000Y-71330000D03*
X156670000Y-71330000D03*
X156170000Y-71330000D03*
X155170000Y-71330000D03*
X154670000Y-71330000D03*
X154170000Y-71330000D03*
X160670000Y-70830000D03*
X160170000Y-70830000D03*
X159670000Y-70830000D03*
X155170000Y-70830000D03*
X154670000Y-70830000D03*
X154170000Y-70830000D03*
X160670000Y-70330000D03*
X160170000Y-70330000D03*
X159670000Y-70330000D03*
X159170000Y-70330000D03*
X158670000Y-70330000D03*
X158170000Y-70330000D03*
X157670000Y-70330000D03*
X157170000Y-70330000D03*
X156670000Y-70330000D03*
X156170000Y-70330000D03*
X155670000Y-70330000D03*
X155170000Y-70330000D03*
X154670000Y-70330000D03*
X154170000Y-70330000D03*
X160670000Y-69830000D03*
X160170000Y-69830000D03*
X159670000Y-69830000D03*
X159170000Y-69830000D03*
X158670000Y-69830000D03*
X158170000Y-69830000D03*
X157670000Y-69830000D03*
X157170000Y-69830000D03*
X156670000Y-69830000D03*
X156170000Y-69830000D03*
X155670000Y-69830000D03*
X155170000Y-69830000D03*
X154670000Y-69830000D03*
X154170000Y-69830000D03*
X160170000Y-69330000D03*
X159670000Y-69330000D03*
X159170000Y-69330000D03*
X158670000Y-69330000D03*
X158170000Y-69330000D03*
X157670000Y-69330000D03*
X157170000Y-69330000D03*
X156670000Y-69330000D03*
X156170000Y-69330000D03*
X155670000Y-69330000D03*
X155170000Y-69330000D03*
X154670000Y-69330000D03*
X154170000Y-69330000D03*
%TD*%
D28*
%TO.C,SW400*%
X119240000Y-108835000D03*
X119240000Y-112985000D03*
X117090000Y-108835000D03*
X117090000Y-112985000D03*
%TD*%
D12*
%TO.C,R127*%
X130170000Y-63730000D03*
X129150000Y-63730000D03*
%TD*%
D29*
%TO.C,U102*%
X165140000Y-116110000D03*
X165140000Y-115610000D03*
X165140000Y-115110000D03*
X165140000Y-114610000D03*
X163280000Y-114610000D03*
X163280000Y-115110000D03*
X163280000Y-115610000D03*
X163280000Y-116110000D03*
D30*
X164210000Y-115360000D03*
%TD*%
D31*
%TO.C,U402*%
X139700000Y-72460000D03*
X139700000Y-73730000D03*
X139700000Y-75000000D03*
X139700000Y-76270000D03*
X147300000Y-76270000D03*
X147300000Y-75000000D03*
X147300000Y-73730000D03*
X147300000Y-72460000D03*
D32*
X143500000Y-74370000D03*
%TD*%
D12*
%TO.C,R317*%
X150370000Y-78570000D03*
X149350000Y-78570000D03*
%TD*%
D13*
%TO.C,R503*%
X161600000Y-102430000D03*
X162620000Y-102430000D03*
%TD*%
D24*
%TO.C,C300*%
X193440000Y-67410000D03*
X192480000Y-67410000D03*
%TD*%
D16*
%TO.C,C126*%
X127400000Y-67750000D03*
X127400000Y-66790000D03*
%TD*%
%TO.C,C906*%
X197230000Y-102250000D03*
X197230000Y-101290000D03*
%TD*%
D33*
%TO.C,C122*%
X181270000Y-112240000D03*
X183270000Y-112240000D03*
%TD*%
D17*
%TO.C,R123*%
X189600000Y-119710000D03*
X189600000Y-118690000D03*
%TD*%
D12*
%TO.C,R823*%
X203300000Y-91370000D03*
X202280000Y-91370000D03*
%TD*%
D34*
%TO.C,U401*%
X178887500Y-69255000D03*
X178387500Y-69255000D03*
X177887500Y-69255000D03*
X177887500Y-70695000D03*
X178887500Y-70695000D03*
%TD*%
D12*
%TO.C,R114*%
X133450000Y-118350000D03*
X132430000Y-118350000D03*
%TD*%
D14*
%TO.C,R332*%
X175900000Y-89300000D03*
X175900000Y-90320000D03*
%TD*%
%TO.C,R322*%
X186050000Y-91990000D03*
X186050000Y-93010000D03*
%TD*%
D17*
%TO.C,R804*%
X176300000Y-74290000D03*
X176300000Y-73270000D03*
%TD*%
D12*
%TO.C,R126*%
X135800000Y-65420000D03*
X134780000Y-65420000D03*
%TD*%
D35*
%TO.C,Q300*%
X149345000Y-106600000D03*
X149345000Y-108500000D03*
X151220000Y-107550000D03*
%TD*%
D14*
%TO.C,R320*%
X142830000Y-79420000D03*
X142830000Y-80440000D03*
%TD*%
D16*
%TO.C,C306*%
X180580000Y-99990000D03*
X180580000Y-99030000D03*
%TD*%
D17*
%TO.C,R501*%
X156880000Y-104960000D03*
X156880000Y-103940000D03*
%TD*%
%TO.C,R416*%
X177080000Y-67590000D03*
X177080000Y-66570000D03*
%TD*%
D33*
%TO.C,C117*%
X128800000Y-110280000D03*
X130800000Y-110280000D03*
%TD*%
D18*
%TO.C,C318*%
X180730000Y-106640000D03*
X181690000Y-106640000D03*
%TD*%
D29*
%TO.C,U104*%
X183640000Y-116130000D03*
X183640000Y-115630000D03*
X183640000Y-115130000D03*
X183640000Y-114630000D03*
X181780000Y-114630000D03*
X181780000Y-115130000D03*
X181780000Y-115630000D03*
X181780000Y-116130000D03*
D30*
X182710000Y-115380000D03*
%TD*%
D14*
%TO.C,R338*%
X180590000Y-101240000D03*
X180590000Y-102260000D03*
%TD*%
D13*
%TO.C,R337*%
X163930000Y-107870000D03*
X164950000Y-107870000D03*
%TD*%
D17*
%TO.C,R814*%
X180350000Y-76210000D03*
X180350000Y-75190000D03*
%TD*%
D14*
%TO.C,R402*%
X120870000Y-108810000D03*
X120870000Y-109830000D03*
%TD*%
D36*
%TO.C,FB301*%
X182750000Y-96810000D03*
X182750000Y-97810000D03*
%TD*%
D17*
%TO.C,R115*%
X127470000Y-117890000D03*
X127470000Y-116870000D03*
%TD*%
D37*
%TO.C,D400*%
X135360000Y-73300000D03*
X134360000Y-73300000D03*
%TD*%
D13*
%TO.C,R309*%
X153100000Y-109560000D03*
X154120000Y-109560000D03*
%TD*%
%TO.C,R302*%
X150470000Y-104800000D03*
X151490000Y-104800000D03*
%TD*%
%TO.C,R112*%
X163820000Y-117350000D03*
X164840000Y-117350000D03*
%TD*%
D16*
%TO.C,C305*%
X181730000Y-100000000D03*
X181730000Y-99040000D03*
%TD*%
D17*
%TO.C,R305*%
X184420000Y-68440000D03*
X184420000Y-67420000D03*
%TD*%
%TO.C,R105*%
X143980000Y-117880000D03*
X143980000Y-116860000D03*
%TD*%
D33*
%TO.C,C127*%
X129840000Y-71380000D03*
X131840000Y-71380000D03*
%TD*%
D38*
%TO.C,R319*%
X144270000Y-79410000D03*
X144750000Y-79410000D03*
%TD*%
D13*
%TO.C,R701*%
X124680000Y-106700000D03*
X125700000Y-106700000D03*
%TD*%
D39*
%TO.C,H3*%
X116250000Y-121000000D03*
%TD*%
D29*
%TO.C,U101*%
X147270000Y-116290000D03*
X147270000Y-115790000D03*
X147270000Y-115290000D03*
X147270000Y-114790000D03*
X145410000Y-114790000D03*
X145410000Y-115290000D03*
X145410000Y-115790000D03*
X145410000Y-116290000D03*
D30*
X146340000Y-115540000D03*
%TD*%
D39*
%TO.C,H1*%
X203800000Y-61200000D03*
%TD*%
%TO.C,H4*%
X204200000Y-120900000D03*
%TD*%
D40*
%TO.C,U900*%
X187400000Y-95760000D03*
X187400000Y-96260000D03*
X187400000Y-96760000D03*
X187400000Y-97260000D03*
X187400000Y-97760000D03*
X187400000Y-98260000D03*
X187400000Y-98760000D03*
X187400000Y-99260000D03*
D41*
X188150000Y-100010000D03*
X188650000Y-100010000D03*
X189150000Y-100010000D03*
X189650000Y-100010000D03*
X190150000Y-100010000D03*
X190650000Y-100010000D03*
X191150000Y-100010000D03*
X191650000Y-100010000D03*
D40*
X192400000Y-99260000D03*
X192400000Y-98760000D03*
X192400000Y-98260000D03*
X192400000Y-97760000D03*
X192400000Y-97260000D03*
X192400000Y-96760000D03*
X192400000Y-96260000D03*
X192400000Y-95760000D03*
D41*
X191650000Y-95010000D03*
X191150000Y-95010000D03*
X190650000Y-95010000D03*
X190150000Y-95010000D03*
X189650000Y-95010000D03*
X189150000Y-95010000D03*
X188650000Y-95010000D03*
X188150000Y-95010000D03*
D42*
X189900000Y-97510000D03*
%TD*%
D33*
%TO.C,C107*%
X144980000Y-110310000D03*
X146980000Y-110310000D03*
%TD*%
D13*
%TO.C,R625*%
X119840000Y-80340000D03*
X120860000Y-80340000D03*
%TD*%
D24*
%TO.C,C724*%
X123060000Y-96000000D03*
X122100000Y-96000000D03*
%TD*%
D34*
%TO.C,U901*%
X193460000Y-102640000D03*
X192960000Y-102640000D03*
X192460000Y-102640000D03*
X192460000Y-104180000D03*
X192960000Y-104180000D03*
X193460000Y-104180000D03*
D43*
X192960000Y-103410000D03*
%TD*%
D16*
%TO.C,C907*%
X194820000Y-104360000D03*
X194820000Y-103400000D03*
%TD*%
D14*
%TO.C,R815*%
X180070000Y-86130000D03*
X180070000Y-87150000D03*
%TD*%
D44*
%TO.C,U701*%
X134765900Y-98130000D03*
X134765900Y-98930000D03*
X134765900Y-99730000D03*
X134765900Y-102930000D03*
X134765900Y-103730000D03*
X134765900Y-104530000D03*
X133965900Y-98130000D03*
X133965900Y-98930000D03*
X133965900Y-99730000D03*
X133965900Y-102930000D03*
X133965900Y-103730000D03*
X133965900Y-104530000D03*
X133165900Y-98130000D03*
X133165900Y-98930000D03*
X133165900Y-99730000D03*
X133165900Y-102930000D03*
X133165900Y-103730000D03*
X133165900Y-104530000D03*
X132365900Y-98130000D03*
X132365900Y-98930000D03*
X132365900Y-99730000D03*
X132365900Y-102930000D03*
X132365900Y-103730000D03*
X132365900Y-104530000D03*
X131565900Y-98130000D03*
X131565900Y-98930000D03*
X131565900Y-99730000D03*
X131565900Y-102930000D03*
X131565900Y-103730000D03*
X131565900Y-104530000D03*
X130765900Y-98130000D03*
X130765900Y-98930000D03*
X130765900Y-99730000D03*
X130765900Y-102930000D03*
X130765900Y-103730000D03*
X130765900Y-104530000D03*
X129965900Y-98130000D03*
X129965900Y-98930000D03*
X129965900Y-99730000D03*
X129965900Y-102930000D03*
X129965900Y-103730000D03*
X129965900Y-104530000D03*
X129165900Y-98130000D03*
X129165900Y-98930000D03*
X129165900Y-99730000D03*
X129165900Y-102930000D03*
X129165900Y-103730000D03*
X129165900Y-104530000D03*
X128365900Y-98130000D03*
X128365900Y-98930000D03*
X128365900Y-99730000D03*
X128365900Y-102930000D03*
X128365900Y-103730000D03*
X128365900Y-104530000D03*
X127565900Y-98130000D03*
X127565900Y-98930000D03*
X127565900Y-99730000D03*
X127565900Y-102930000D03*
X127565900Y-103730000D03*
X127565900Y-104530000D03*
X126765900Y-98130000D03*
X126765900Y-98930000D03*
X126765900Y-99730000D03*
X126765900Y-102930000D03*
X126765900Y-103730000D03*
X126765900Y-104530000D03*
X125965900Y-98130000D03*
X125965900Y-98930000D03*
X125965900Y-99730000D03*
X125965900Y-102930000D03*
X125965900Y-103730000D03*
X125965900Y-104530000D03*
X125165900Y-98130000D03*
X125165900Y-98930000D03*
X125165900Y-99730000D03*
X125165900Y-102930000D03*
X125165900Y-103730000D03*
X125165900Y-104530000D03*
X124365900Y-98130000D03*
X124365900Y-98930000D03*
X124365900Y-99730000D03*
X124365900Y-102930000D03*
X124365900Y-103730000D03*
X124365900Y-104530000D03*
X123565900Y-98130000D03*
X123565900Y-98930000D03*
X123565900Y-99730000D03*
X123565900Y-102930000D03*
X123565900Y-103730000D03*
X123565900Y-104530000D03*
X122765900Y-98130000D03*
X122765900Y-98930000D03*
X122765900Y-99730000D03*
X122765900Y-102930000D03*
X122765900Y-103730000D03*
X122765900Y-104530000D03*
%TD*%
D12*
%TO.C,R315*%
X138260000Y-76330000D03*
X137240000Y-76330000D03*
%TD*%
%TO.C,R408*%
X165070000Y-83600000D03*
X164050000Y-83600000D03*
%TD*%
D36*
%TO.C,FB302*%
X182780000Y-99020000D03*
X182780000Y-100020000D03*
%TD*%
D18*
%TO.C,C111*%
X163860000Y-119530000D03*
X164820000Y-119530000D03*
%TD*%
D12*
%TO.C,R330*%
X181430000Y-91810000D03*
X180410000Y-91810000D03*
%TD*%
D16*
%TO.C,C900*%
X197230000Y-92850000D03*
X197230000Y-91890000D03*
%TD*%
D45*
%TO.C,X800*%
X182875000Y-90055000D03*
X182875000Y-88205000D03*
X181425000Y-88205000D03*
X181425000Y-90055000D03*
%TD*%
D46*
%TO.C,C312*%
X164880000Y-99220000D03*
X164880000Y-100180000D03*
%TD*%
D47*
%TO.C,U105*%
X133070000Y-69055000D03*
X133070000Y-68405000D03*
X133070000Y-67755000D03*
X133070000Y-67105000D03*
X129270000Y-67105000D03*
X129270000Y-67755000D03*
X129270000Y-68415000D03*
X129270000Y-69065000D03*
%TD*%
D17*
%TO.C,R820*%
X176070000Y-87170000D03*
X176070000Y-86150000D03*
%TD*%
D18*
%TO.C,C314*%
X168400000Y-105340000D03*
X169360000Y-105340000D03*
%TD*%
D24*
%TO.C,C307*%
X167150000Y-105350000D03*
X166190000Y-105350000D03*
%TD*%
D17*
%TO.C,R110*%
X161850000Y-117640000D03*
X161850000Y-116620000D03*
%TD*%
D33*
%TO.C,C123*%
X181270000Y-110160000D03*
X183270000Y-110160000D03*
%TD*%
D23*
%TO.C,D101*%
X191110000Y-115490000D03*
X192110000Y-115490000D03*
%TD*%
D13*
%TO.C,R122*%
X182260000Y-117390000D03*
X183280000Y-117390000D03*
%TD*%
D16*
%TO.C,C401*%
X120920000Y-113000000D03*
X120920000Y-112040000D03*
%TD*%
D18*
%TO.C,C121*%
X182290000Y-119510000D03*
X183250000Y-119510000D03*
%TD*%
D17*
%TO.C,R301*%
X181760000Y-70590000D03*
X181760000Y-69570000D03*
%TD*%
D13*
%TO.C,R103*%
X149100000Y-119560000D03*
X150120000Y-119560000D03*
%TD*%
D10*
%TO.C,L103*%
X176730000Y-114950000D03*
X176730000Y-111090000D03*
%TD*%
D12*
%TO.C,R125*%
X135780000Y-64250000D03*
X134760000Y-64250000D03*
%TD*%
D17*
%TO.C,R323*%
X184880000Y-93010000D03*
X184880000Y-91990000D03*
%TD*%
D18*
%TO.C,C106*%
X145910000Y-119600000D03*
X146870000Y-119600000D03*
%TD*%
D12*
%TO.C,R116*%
X130480000Y-118410000D03*
X129460000Y-118410000D03*
%TD*%
D38*
%TO.C,R312*%
X137220000Y-73780000D03*
X137700000Y-73780000D03*
%TD*%
D13*
%TO.C,R901*%
X191560000Y-92920000D03*
X192580000Y-92920000D03*
%TD*%
D12*
%TO.C,R409*%
X165070000Y-86150000D03*
X164050000Y-86150000D03*
%TD*%
%TO.C,R119*%
X186320000Y-118430000D03*
X185300000Y-118430000D03*
%TD*%
D17*
%TO.C,R809*%
X174880000Y-76420000D03*
X174880000Y-75400000D03*
%TD*%
D12*
%TO.C,R121*%
X183280000Y-118440000D03*
X182260000Y-118440000D03*
%TD*%
D48*
%TO.C,J300*%
X181600000Y-64740000D03*
X184140000Y-64740000D03*
X186680000Y-64740000D03*
X189220000Y-64740000D03*
X191760000Y-64740000D03*
X194300000Y-64740000D03*
%TD*%
D16*
%TO.C,C412*%
X164110000Y-74830000D03*
X164110000Y-73870000D03*
%TD*%
D14*
%TO.C,R419*%
X146060000Y-79490000D03*
X146060000Y-80510000D03*
%TD*%
D13*
%TO.C,R422*%
X158020000Y-79810000D03*
X159040000Y-79810000D03*
%TD*%
%TO.C,R418*%
X137170000Y-70730000D03*
X138190000Y-70730000D03*
%TD*%
D14*
%TO.C,R331*%
X177120000Y-89280000D03*
X177120000Y-90300000D03*
%TD*%
D10*
%TO.C,L102*%
X124450000Y-115050000D03*
X124450000Y-111190000D03*
%TD*%
D13*
%TO.C,R107*%
X145900000Y-117420000D03*
X146920000Y-117420000D03*
%TD*%
%TO.C,R805*%
X168720000Y-79080000D03*
X169740000Y-79080000D03*
%TD*%
D12*
%TO.C,R411*%
X165160000Y-88740000D03*
X164140000Y-88740000D03*
%TD*%
D33*
%TO.C,C112*%
X163100000Y-112430000D03*
X165100000Y-112430000D03*
%TD*%
D49*
%TO.C,X900*%
X195750000Y-91460000D03*
X193900000Y-91460000D03*
X193900000Y-92910000D03*
X195750000Y-92910000D03*
%TD*%
D50*
%TO.C,J800*%
X197650000Y-75065000D03*
X197650000Y-86495000D03*
D51*
X188760000Y-86500000D03*
X191300000Y-85230000D03*
X188760000Y-83960000D03*
X191300000Y-82690000D03*
X188760000Y-81420000D03*
X191300000Y-80150000D03*
X188760000Y-78880000D03*
X191300000Y-77610000D03*
X188760000Y-76340000D03*
X191300000Y-75070000D03*
D52*
X202550000Y-87405000D03*
X202550000Y-84865000D03*
X202550000Y-76695000D03*
X202550000Y-74155000D03*
D53*
X194600000Y-73035000D03*
X194600000Y-88525000D03*
%TD*%
D13*
%TO.C,R700*%
X125260000Y-91060000D03*
X126280000Y-91060000D03*
%TD*%
D17*
%TO.C,R120*%
X180030000Y-117870000D03*
X180030000Y-116850000D03*
%TD*%
D18*
%TO.C,C120*%
X185320000Y-117380000D03*
X186280000Y-117380000D03*
%TD*%
D46*
%TO.C,C807*%
X182710000Y-84300000D03*
X182710000Y-85260000D03*
%TD*%
D12*
%TO.C,R800*%
X169800000Y-77810000D03*
X168780000Y-77810000D03*
%TD*%
D25*
%TO.C,D302*%
X188360000Y-68500000D03*
X188360000Y-67400000D03*
%TD*%
D24*
%TO.C,C129*%
X133150000Y-65680000D03*
X132190000Y-65680000D03*
%TD*%
D54*
%TO.C,J900*%
X198550000Y-98980000D03*
X199750000Y-98180000D03*
X198550000Y-97380000D03*
X199750000Y-96580000D03*
X198550000Y-95780000D03*
D55*
X204050000Y-101030000D03*
X204050000Y-93730000D03*
%TD*%
D12*
%TO.C,R313*%
X138240000Y-72490000D03*
X137220000Y-72490000D03*
%TD*%
%TO.C,R421*%
X161760000Y-79840000D03*
X160740000Y-79840000D03*
%TD*%
D45*
%TO.C,X300*%
X182020000Y-105240000D03*
X182020000Y-103390000D03*
X180570000Y-103390000D03*
X180570000Y-105240000D03*
%TD*%
D56*
%TO.C,C209*%
X137810000Y-68870000D03*
X137810000Y-65920000D03*
%TD*%
D23*
%TO.C,D308*%
X161610000Y-107830000D03*
X162610000Y-107830000D03*
%TD*%
D18*
%TO.C,C308*%
X176230000Y-105320000D03*
X177190000Y-105320000D03*
%TD*%
D14*
%TO.C,R821*%
X181400000Y-86130000D03*
X181400000Y-87150000D03*
%TD*%
D12*
%TO.C,R109*%
X167620000Y-118420000D03*
X166600000Y-118420000D03*
%TD*%
D17*
%TO.C,R428*%
X164140000Y-72830000D03*
X164140000Y-71810000D03*
%TD*%
D11*
%TO.C,D304*%
X183040000Y-68430000D03*
X183040000Y-67460000D03*
%TD*%
D17*
%TO.C,R307*%
X189640000Y-68415000D03*
X189640000Y-67395000D03*
%TD*%
D33*
%TO.C,C108*%
X144960000Y-112470000D03*
X146960000Y-112470000D03*
%TD*%
D14*
%TO.C,R801*%
X172300000Y-75410000D03*
X172300000Y-76430000D03*
%TD*%
D16*
%TO.C,C309*%
X180530000Y-95450000D03*
X180530000Y-94490000D03*
%TD*%
D44*
%TO.C,U700*%
X134860000Y-82520000D03*
X134860000Y-83320000D03*
X134860000Y-84120000D03*
X134860000Y-87320000D03*
X134860000Y-88120000D03*
X134860000Y-88920000D03*
X134060000Y-82520000D03*
X134060000Y-83320000D03*
X134060000Y-84120000D03*
X134060000Y-87320000D03*
X134060000Y-88120000D03*
X134060000Y-88920000D03*
X133260000Y-82520000D03*
X133260000Y-83320000D03*
X133260000Y-84120000D03*
X133260000Y-87320000D03*
X133260000Y-88120000D03*
X133260000Y-88920000D03*
X132460000Y-82520000D03*
X132460000Y-83320000D03*
X132460000Y-84120000D03*
X132460000Y-87320000D03*
X132460000Y-88120000D03*
X132460000Y-88920000D03*
X131660000Y-82520000D03*
X131660000Y-83320000D03*
X131660000Y-84120000D03*
X131660000Y-87320000D03*
X131660000Y-88120000D03*
X131660000Y-88920000D03*
X130860000Y-82520000D03*
X130860000Y-83320000D03*
X130860000Y-84120000D03*
X130860000Y-87320000D03*
X130860000Y-88120000D03*
X130860000Y-88920000D03*
X130060000Y-82520000D03*
X130060000Y-83320000D03*
X130060000Y-84120000D03*
X130060000Y-87320000D03*
X130060000Y-88120000D03*
X130060000Y-88920000D03*
X129260000Y-82520000D03*
X129260000Y-83320000D03*
X129260000Y-84120000D03*
X129260000Y-87320000D03*
X129260000Y-88120000D03*
X129260000Y-88920000D03*
X128460000Y-82520000D03*
X128460000Y-83320000D03*
X128460000Y-84120000D03*
X128460000Y-87320000D03*
X128460000Y-88120000D03*
X128460000Y-88920000D03*
X127660000Y-82520000D03*
X127660000Y-83320000D03*
X127660000Y-84120000D03*
X127660000Y-87320000D03*
X127660000Y-88120000D03*
X127660000Y-88920000D03*
X126860000Y-82520000D03*
X126860000Y-83320000D03*
X126860000Y-84120000D03*
X126860000Y-87320000D03*
X126860000Y-88120000D03*
X126860000Y-88920000D03*
X126060000Y-82520000D03*
X126060000Y-83320000D03*
X126060000Y-84120000D03*
X126060000Y-87320000D03*
X126060000Y-88120000D03*
X126060000Y-88920000D03*
X125260000Y-82520000D03*
X125260000Y-83320000D03*
X125260000Y-84120000D03*
X125260000Y-87320000D03*
X125260000Y-88120000D03*
X125260000Y-88920000D03*
X124460000Y-82520000D03*
X124460000Y-83320000D03*
X124460000Y-84120000D03*
X124460000Y-87320000D03*
X124460000Y-88120000D03*
X124460000Y-88920000D03*
X123660000Y-82520000D03*
X123660000Y-83320000D03*
X123660000Y-84120000D03*
X123660000Y-87320000D03*
X123660000Y-88120000D03*
X123660000Y-88920000D03*
X122860000Y-82520000D03*
X122860000Y-83320000D03*
X122860000Y-84120000D03*
X122860000Y-87320000D03*
X122860000Y-88120000D03*
X122860000Y-88920000D03*
%TD*%
D12*
%TO.C,R407*%
X165150000Y-87420000D03*
X164130000Y-87420000D03*
%TD*%
D24*
%TO.C,C313*%
X171770000Y-105360000D03*
X170810000Y-105360000D03*
%TD*%
D17*
%TO.C,R818*%
X173380000Y-87190000D03*
X173380000Y-86170000D03*
%TD*%
D16*
%TO.C,C315*%
X164860000Y-95960000D03*
X164860000Y-95000000D03*
%TD*%
D26*
%TO.C,C124*%
X125150000Y-68370000D03*
X125150000Y-66370000D03*
%TD*%
D46*
%TO.C,C128*%
X127400000Y-69060000D03*
X127400000Y-70020000D03*
%TD*%
D13*
%TO.C,R113*%
X132430000Y-119410000D03*
X133450000Y-119410000D03*
%TD*%
D16*
%TO.C,C404*%
X149350000Y-72480000D03*
X149350000Y-71520000D03*
%TD*%
D33*
%TO.C,C113*%
X163100000Y-110280000D03*
X165100000Y-110280000D03*
%TD*%
D12*
%TO.C,R111*%
X164860000Y-118460000D03*
X163840000Y-118460000D03*
%TD*%
D22*
%TO.C,Q100*%
X191320000Y-119150000D03*
X193220000Y-119150000D03*
X192270000Y-117275000D03*
%TD*%
D14*
%TO.C,R424*%
X164080000Y-75980000D03*
X164080000Y-77000000D03*
%TD*%
D39*
%TO.C,H2*%
X116560000Y-61680000D03*
%TD*%
D23*
%TO.C,FB900*%
X196260000Y-103370000D03*
X197260000Y-103370000D03*
%TD*%
D16*
%TO.C,C303*%
X181710000Y-97800000D03*
X181710000Y-96840000D03*
%TD*%
D12*
%TO.C,R822*%
X203270000Y-90180000D03*
X202250000Y-90180000D03*
%TD*%
D28*
%TO.C,SW300*%
X118855000Y-76655000D03*
X118855000Y-72505000D03*
X121005000Y-76655000D03*
X121005000Y-72505000D03*
%TD*%
D12*
%TO.C,R905*%
X193370000Y-101370000D03*
X192350000Y-101370000D03*
%TD*%
D24*
%TO.C,C311*%
X169230000Y-90410000D03*
X168270000Y-90410000D03*
%TD*%
D37*
%TO.C,D309*%
X163810000Y-106280000D03*
X162810000Y-106280000D03*
%TD*%
D16*
%TO.C,C811*%
X180070000Y-90110000D03*
X180070000Y-89150000D03*
%TD*%
D13*
%TO.C,R500*%
X155590000Y-109530000D03*
X156610000Y-109530000D03*
%TD*%
D57*
%TO.C,J100*%
X194390000Y-110567500D03*
X200590000Y-110567500D03*
D58*
X197640000Y-105867500D03*
%TD*%
D12*
%TO.C,R812*%
X171900000Y-80280000D03*
X170880000Y-80280000D03*
%TD*%
D17*
%TO.C,R802*%
X174870000Y-74280000D03*
X174870000Y-73260000D03*
%TD*%
D38*
%TO.C,R316*%
X150370000Y-76310000D03*
X149890000Y-76310000D03*
%TD*%
D46*
%TO.C,C809*%
X171890000Y-81830000D03*
X171890000Y-82790000D03*
%TD*%
D38*
%TO.C,R310*%
X150370000Y-74240000D03*
X149890000Y-74240000D03*
%TD*%
D12*
%TO.C,R104*%
X150130000Y-118420000D03*
X149110000Y-118420000D03*
%TD*%
D59*
%TO.C,D100*%
X189940000Y-110380000D03*
X192280000Y-110380000D03*
%TD*%
D26*
%TO.C,C104*%
X150190000Y-114730000D03*
X150190000Y-112730000D03*
%TD*%
D60*
%TO.C,C234*%
X169020000Y-69760000D03*
X171970000Y-69760000D03*
%TD*%
D61*
%TO.C,L800*%
X173610000Y-83457500D03*
X173610000Y-81882500D03*
%TD*%
D36*
%TO.C,D500*%
X161590000Y-103500000D03*
X161590000Y-104500000D03*
%TD*%
D29*
%TO.C,U103*%
X130910000Y-116210000D03*
X130910000Y-115710000D03*
X130910000Y-115210000D03*
X130910000Y-114710000D03*
X129050000Y-114710000D03*
X129050000Y-115210000D03*
X129050000Y-115710000D03*
X129050000Y-116210000D03*
D30*
X129980000Y-115460000D03*
%TD*%
D62*
%TO.C,C712*%
X123220000Y-91050000D03*
X123760000Y-91050000D03*
%TD*%
D13*
%TO.C,R413*%
X136060000Y-77680000D03*
X137080000Y-77680000D03*
%TD*%
D26*
%TO.C,C109*%
X168370000Y-114420000D03*
X168370000Y-112420000D03*
%TD*%
D12*
%TO.C,R414*%
X137100000Y-78860000D03*
X136080000Y-78860000D03*
%TD*%
%TO.C,R410*%
X165070000Y-82360000D03*
X164050000Y-82360000D03*
%TD*%
D22*
%TO.C,Q400*%
X131950000Y-76970000D03*
X133850000Y-76970000D03*
X132900000Y-75095000D03*
%TD*%
D63*
%TO.C,U6*%
X143620000Y-85910000D03*
X144420000Y-85910000D03*
X145220000Y-85910000D03*
X146020000Y-85910000D03*
X146820000Y-85910000D03*
X147620000Y-85910000D03*
X148420000Y-85910000D03*
X149220000Y-85910000D03*
X150020000Y-85910000D03*
X150820000Y-85910000D03*
X151620000Y-85910000D03*
X152420000Y-85910000D03*
X153220000Y-85910000D03*
X154020000Y-85910000D03*
X154820000Y-85910000D03*
X155620000Y-85910000D03*
X156420000Y-85910000D03*
X157220000Y-85910000D03*
X158020000Y-85910000D03*
X158820000Y-85910000D03*
X143620000Y-86710000D03*
X144420000Y-86710000D03*
X145220000Y-86710000D03*
X146020000Y-86710000D03*
X146820000Y-86710000D03*
X147620000Y-86710000D03*
X148420000Y-86710000D03*
X149220000Y-86710000D03*
X150020000Y-86710000D03*
X150820000Y-86710000D03*
X151620000Y-86710000D03*
X152420000Y-86710000D03*
X153220000Y-86710000D03*
X154020000Y-86710000D03*
X154820000Y-86710000D03*
X155620000Y-86710000D03*
X156420000Y-86710000D03*
X157220000Y-86710000D03*
X158020000Y-86710000D03*
X158820000Y-86710000D03*
X143620000Y-87510000D03*
X144420000Y-87510000D03*
X145220000Y-87510000D03*
X146020000Y-87510000D03*
X146820000Y-87510000D03*
X147620000Y-87510000D03*
X148420000Y-87510000D03*
X149220000Y-87510000D03*
X150020000Y-87510000D03*
X150820000Y-87510000D03*
X151620000Y-87510000D03*
X152420000Y-87510000D03*
X153220000Y-87510000D03*
X154020000Y-87510000D03*
X154820000Y-87510000D03*
X155620000Y-87510000D03*
X156420000Y-87510000D03*
X157220000Y-87510000D03*
X158020000Y-87510000D03*
X158820000Y-87510000D03*
X143620000Y-88310000D03*
X144420000Y-88310000D03*
X145220000Y-88310000D03*
X146020000Y-88310000D03*
X146820000Y-88310000D03*
X147620000Y-88310000D03*
X148420000Y-88310000D03*
X149220000Y-88310000D03*
X150020000Y-88310000D03*
X150820000Y-88310000D03*
X151620000Y-88310000D03*
X152420000Y-88310000D03*
X153220000Y-88310000D03*
X154020000Y-88310000D03*
X154820000Y-88310000D03*
X155620000Y-88310000D03*
X156420000Y-88310000D03*
X157220000Y-88310000D03*
X158020000Y-88310000D03*
X158820000Y-88310000D03*
X143620000Y-89110000D03*
X144420000Y-89110000D03*
X145220000Y-89110000D03*
X146020000Y-89110000D03*
X146820000Y-89110000D03*
X147620000Y-89110000D03*
X148420000Y-89110000D03*
X149220000Y-89110000D03*
X150020000Y-89110000D03*
X150820000Y-89110000D03*
X151620000Y-89110000D03*
X152420000Y-89110000D03*
X153220000Y-89110000D03*
X154020000Y-89110000D03*
X154820000Y-89110000D03*
X155620000Y-89110000D03*
X156420000Y-89110000D03*
X157220000Y-89110000D03*
X158020000Y-89110000D03*
X158820000Y-89110000D03*
X143620000Y-89910000D03*
X144420000Y-89910000D03*
X145220000Y-89910000D03*
X146020000Y-89910000D03*
X146820000Y-89910000D03*
X147620000Y-89910000D03*
X148420000Y-89910000D03*
X149220000Y-89910000D03*
X150020000Y-89910000D03*
X150820000Y-89910000D03*
X151620000Y-89910000D03*
X152420000Y-89910000D03*
X153220000Y-89910000D03*
X154020000Y-89910000D03*
X154820000Y-89910000D03*
X155620000Y-89910000D03*
X156420000Y-89910000D03*
X157220000Y-89910000D03*
X158020000Y-89910000D03*
X158820000Y-89910000D03*
X143620000Y-90710000D03*
X144420000Y-90710000D03*
X145220000Y-90710000D03*
X146020000Y-90710000D03*
X146820000Y-90710000D03*
X147620000Y-90710000D03*
X148420000Y-90710000D03*
X149220000Y-90710000D03*
X150020000Y-90710000D03*
X150820000Y-90710000D03*
X151620000Y-90710000D03*
X152420000Y-90710000D03*
X153220000Y-90710000D03*
X154020000Y-90710000D03*
X154820000Y-90710000D03*
X155620000Y-90710000D03*
X156420000Y-90710000D03*
X157220000Y-90710000D03*
X158020000Y-90710000D03*
X158820000Y-90710000D03*
X143620000Y-91510000D03*
X144420000Y-91510000D03*
X145220000Y-91510000D03*
X146020000Y-91510000D03*
X146820000Y-91510000D03*
X147620000Y-91510000D03*
X148420000Y-91510000D03*
X149220000Y-91510000D03*
X150020000Y-91510000D03*
X150820000Y-91510000D03*
X151620000Y-91510000D03*
X152420000Y-91510000D03*
X153220000Y-91510000D03*
X154020000Y-91510000D03*
X154820000Y-91510000D03*
X155620000Y-91510000D03*
X156420000Y-91510000D03*
X157220000Y-91510000D03*
X158020000Y-91510000D03*
X158820000Y-91510000D03*
X143620000Y-92310000D03*
X144420000Y-92310000D03*
X145220000Y-92310000D03*
X146020000Y-92310000D03*
X146820000Y-92310000D03*
X147620000Y-92310000D03*
X148420000Y-92310000D03*
X149220000Y-92310000D03*
X150020000Y-92310000D03*
X150820000Y-92310000D03*
X151620000Y-92310000D03*
X152420000Y-92310000D03*
X153220000Y-92310000D03*
X154020000Y-92310000D03*
X154820000Y-92310000D03*
X155620000Y-92310000D03*
X156420000Y-92310000D03*
X157220000Y-92310000D03*
X158020000Y-92310000D03*
X158820000Y-92310000D03*
X143620000Y-93110000D03*
X144420000Y-93110000D03*
X145220000Y-93110000D03*
X146020000Y-93110000D03*
X146820000Y-93110000D03*
X147620000Y-93110000D03*
X148420000Y-93110000D03*
X149220000Y-93110000D03*
X150020000Y-93110000D03*
X150820000Y-93110000D03*
X151620000Y-93110000D03*
X152420000Y-93110000D03*
X153220000Y-93110000D03*
X154020000Y-93110000D03*
X154820000Y-93110000D03*
X155620000Y-93110000D03*
X156420000Y-93110000D03*
X157220000Y-93110000D03*
X158020000Y-93110000D03*
X158820000Y-93110000D03*
X143620000Y-93910000D03*
X144420000Y-93910000D03*
X145220000Y-93910000D03*
X146020000Y-93910000D03*
X146820000Y-93910000D03*
X147620000Y-93910000D03*
X148420000Y-93910000D03*
X149220000Y-93910000D03*
X150020000Y-93910000D03*
X150820000Y-93910000D03*
X151620000Y-93910000D03*
X152420000Y-93910000D03*
X153220000Y-93910000D03*
X154020000Y-93910000D03*
X154820000Y-93910000D03*
X155620000Y-93910000D03*
X156420000Y-93910000D03*
X157220000Y-93910000D03*
X158020000Y-93910000D03*
X158820000Y-93910000D03*
X143620000Y-94710000D03*
X144420000Y-94710000D03*
X145220000Y-94710000D03*
X146020000Y-94710000D03*
X146820000Y-94710000D03*
X147620000Y-94710000D03*
X148420000Y-94710000D03*
X149220000Y-94710000D03*
X150020000Y-94710000D03*
X150820000Y-94710000D03*
X151620000Y-94710000D03*
X152420000Y-94710000D03*
X153220000Y-94710000D03*
X154020000Y-94710000D03*
X154820000Y-94710000D03*
X155620000Y-94710000D03*
X156420000Y-94710000D03*
X157220000Y-94710000D03*
X158020000Y-94710000D03*
X158820000Y-94710000D03*
X143620000Y-95510000D03*
X144420000Y-95510000D03*
X145220000Y-95510000D03*
X146020000Y-95510000D03*
X146820000Y-95510000D03*
X147620000Y-95510000D03*
X148420000Y-95510000D03*
X149220000Y-95510000D03*
X150020000Y-95510000D03*
X150820000Y-95510000D03*
X151620000Y-95510000D03*
X152420000Y-95510000D03*
X153220000Y-95510000D03*
X154020000Y-95510000D03*
X154820000Y-95510000D03*
X155620000Y-95510000D03*
X156420000Y-95510000D03*
X157220000Y-95510000D03*
X158020000Y-95510000D03*
X158820000Y-95510000D03*
X143620000Y-96310000D03*
X144420000Y-96310000D03*
X145220000Y-96310000D03*
X146020000Y-96310000D03*
X146820000Y-96310000D03*
X147620000Y-96310000D03*
X148420000Y-96310000D03*
X149220000Y-96310000D03*
X150020000Y-96310000D03*
X150820000Y-96310000D03*
X151620000Y-96310000D03*
X152420000Y-96310000D03*
X153220000Y-96310000D03*
X154020000Y-96310000D03*
X154820000Y-96310000D03*
X155620000Y-96310000D03*
X156420000Y-96310000D03*
X157220000Y-96310000D03*
X158020000Y-96310000D03*
X158820000Y-96310000D03*
X143620000Y-97110000D03*
X144420000Y-97110000D03*
X145220000Y-97110000D03*
X146020000Y-97110000D03*
X146820000Y-97110000D03*
X147620000Y-97110000D03*
X148420000Y-97110000D03*
X149220000Y-97110000D03*
X150020000Y-97110000D03*
X150820000Y-97110000D03*
X151620000Y-97110000D03*
X152420000Y-97110000D03*
X153220000Y-97110000D03*
X154020000Y-97110000D03*
X154820000Y-97110000D03*
X155620000Y-97110000D03*
X156420000Y-97110000D03*
X157220000Y-97110000D03*
X158020000Y-97110000D03*
X158820000Y-97110000D03*
X143620000Y-97910000D03*
X144420000Y-97910000D03*
X145220000Y-97910000D03*
X146020000Y-97910000D03*
X146820000Y-97910000D03*
X147620000Y-97910000D03*
X148420000Y-97910000D03*
X149220000Y-97910000D03*
X150020000Y-97910000D03*
X150820000Y-97910000D03*
X151620000Y-97910000D03*
X152420000Y-97910000D03*
X153220000Y-97910000D03*
X154020000Y-97910000D03*
X154820000Y-97910000D03*
X155620000Y-97910000D03*
X156420000Y-97910000D03*
X157220000Y-97910000D03*
X158020000Y-97910000D03*
X158820000Y-97910000D03*
X143620000Y-98710000D03*
X144420000Y-98710000D03*
X145220000Y-98710000D03*
X146020000Y-98710000D03*
X146820000Y-98710000D03*
X147620000Y-98710000D03*
X148420000Y-98710000D03*
X149220000Y-98710000D03*
X150020000Y-98710000D03*
X150820000Y-98710000D03*
X151620000Y-98710000D03*
X152420000Y-98710000D03*
X153220000Y-98710000D03*
X154020000Y-98710000D03*
X154820000Y-98710000D03*
X155620000Y-98710000D03*
X156420000Y-98710000D03*
X157220000Y-98710000D03*
X158020000Y-98710000D03*
X158820000Y-98710000D03*
X143620000Y-99510000D03*
X144420000Y-99510000D03*
X145220000Y-99510000D03*
X146020000Y-99510000D03*
X146820000Y-99510000D03*
X147620000Y-99510000D03*
X148420000Y-99510000D03*
X149220000Y-99510000D03*
X150020000Y-99510000D03*
X150820000Y-99510000D03*
X151620000Y-99510000D03*
X152420000Y-99510000D03*
X153220000Y-99510000D03*
X154020000Y-99510000D03*
X154820000Y-99510000D03*
X155620000Y-99510000D03*
X156420000Y-99510000D03*
X157220000Y-99510000D03*
X158020000Y-99510000D03*
X158820000Y-99510000D03*
X143620000Y-100310000D03*
X144420000Y-100310000D03*
X145220000Y-100310000D03*
X146020000Y-100310000D03*
X146820000Y-100310000D03*
X147620000Y-100310000D03*
X148420000Y-100310000D03*
X149220000Y-100310000D03*
X150020000Y-100310000D03*
X150820000Y-100310000D03*
X151620000Y-100310000D03*
X152420000Y-100310000D03*
X153220000Y-100310000D03*
X154020000Y-100310000D03*
X154820000Y-100310000D03*
X155620000Y-100310000D03*
X156420000Y-100310000D03*
X157220000Y-100310000D03*
X158020000Y-100310000D03*
X158820000Y-100310000D03*
X143620000Y-101110000D03*
X144420000Y-101110000D03*
X145220000Y-101110000D03*
X146020000Y-101110000D03*
X146820000Y-101110000D03*
X147620000Y-101110000D03*
X148420000Y-101110000D03*
X149220000Y-101110000D03*
X150020000Y-101110000D03*
X150820000Y-101110000D03*
X151620000Y-101110000D03*
X152420000Y-101110000D03*
X153220000Y-101110000D03*
X154020000Y-101110000D03*
X154820000Y-101110000D03*
X155620000Y-101110000D03*
X156420000Y-101110000D03*
X157220000Y-101110000D03*
X158020000Y-101110000D03*
X158820000Y-101110000D03*
%TD*%
D13*
%TO.C,R108*%
X166600000Y-119500000D03*
X167620000Y-119500000D03*
%TD*%
D33*
%TO.C,C118*%
X128770000Y-112360000D03*
X130770000Y-112360000D03*
%TD*%
D16*
%TO.C,C908*%
X194990000Y-102240000D03*
X194990000Y-101280000D03*
%TD*%
D17*
%TO.C,R417*%
X182310000Y-76050000D03*
X182310000Y-75030000D03*
%TD*%
D13*
%TO.C,R117*%
X129470000Y-117310000D03*
X130490000Y-117310000D03*
%TD*%
D14*
%TO.C,R803*%
X173420000Y-73290000D03*
X173420000Y-74310000D03*
%TD*%
%TO.C,R304*%
X122530000Y-72430000D03*
X122530000Y-73450000D03*
%TD*%
D46*
%TO.C,C810*%
X170750000Y-81810000D03*
X170750000Y-82770000D03*
%TD*%
D25*
%TO.C,D902*%
X196060000Y-95420000D03*
X196060000Y-94320000D03*
%TD*%
D18*
%TO.C,C110*%
X166640000Y-117340000D03*
X167600000Y-117340000D03*
%TD*%
%TO.C,C105*%
X149130000Y-117330000D03*
X150090000Y-117330000D03*
%TD*%
D13*
%TO.C,R311*%
X149360000Y-75230000D03*
X150380000Y-75230000D03*
%TD*%
D17*
%TO.C,R321*%
X141470000Y-80470000D03*
X141470000Y-79450000D03*
%TD*%
D14*
%TO.C,R819*%
X174710000Y-86160000D03*
X174710000Y-87180000D03*
%TD*%
D12*
%TO.C,R303*%
X149480000Y-104790000D03*
X148460000Y-104790000D03*
%TD*%
%TO.C,R412*%
X135300000Y-70780000D03*
X134280000Y-70780000D03*
%TD*%
D64*
%TO.C,U300*%
X178030000Y-101490000D03*
X178030000Y-100990000D03*
X178030000Y-100490000D03*
X178030000Y-99990000D03*
X178030000Y-99490000D03*
X178030000Y-98990000D03*
X178030000Y-98490000D03*
X178030000Y-97990000D03*
X178030000Y-97490000D03*
X178030000Y-96990000D03*
X178030000Y-96490000D03*
X178030000Y-95990000D03*
X178030000Y-95490000D03*
X178030000Y-94990000D03*
X178030000Y-94490000D03*
X178030000Y-93990000D03*
D65*
X176230000Y-92190000D03*
X175730000Y-92190000D03*
X175230000Y-92190000D03*
X174730000Y-92190000D03*
X174230000Y-92190000D03*
X173730000Y-92190000D03*
X173230000Y-92190000D03*
X172730000Y-92190000D03*
X172230000Y-92190000D03*
X171730000Y-92190000D03*
X171230000Y-92190000D03*
X170730000Y-92190000D03*
X170230000Y-92190000D03*
X169730000Y-92190000D03*
X169230000Y-92190000D03*
X168730000Y-92190000D03*
D64*
X166930000Y-93990000D03*
X166930000Y-94490000D03*
X166930000Y-94990000D03*
X166930000Y-95490000D03*
X166930000Y-95990000D03*
X166930000Y-96490000D03*
X166930000Y-96990000D03*
X166930000Y-97490000D03*
X166930000Y-97990000D03*
X166930000Y-98490000D03*
X166930000Y-98990000D03*
X166930000Y-99490000D03*
X166930000Y-99990000D03*
X166930000Y-100490000D03*
X166930000Y-100990000D03*
X166930000Y-101490000D03*
D65*
X168730000Y-103290000D03*
X169230000Y-103290000D03*
X169730000Y-103290000D03*
X170230000Y-103290000D03*
X170730000Y-103290000D03*
X171230000Y-103290000D03*
X171730000Y-103290000D03*
X172230000Y-103290000D03*
X172730000Y-103290000D03*
X173230000Y-103290000D03*
X173730000Y-103290000D03*
X174230000Y-103290000D03*
X174730000Y-103290000D03*
X175230000Y-103290000D03*
X175730000Y-103290000D03*
X176230000Y-103290000D03*
%TD*%
D12*
%TO.C,R423*%
X156580000Y-79840000D03*
X155560000Y-79840000D03*
%TD*%
D13*
%TO.C,R318*%
X149350000Y-77340000D03*
X150370000Y-77340000D03*
%TD*%
D12*
%TO.C,R329*%
X181450000Y-93160000D03*
X180430000Y-93160000D03*
%TD*%
D26*
%TO.C,C119*%
X187350000Y-114630000D03*
X187350000Y-112630000D03*
%TD*%
D17*
%TO.C,R502*%
X156860000Y-106970000D03*
X156860000Y-105950000D03*
%TD*%
%TO.C,R308*%
X181760000Y-68440000D03*
X181760000Y-67420000D03*
%TD*%
D38*
%TO.C,R314*%
X137240000Y-74980000D03*
X137720000Y-74980000D03*
%TD*%
D66*
%TO.C,J301*%
X204170000Y-107690000D03*
X204170000Y-111690000D03*
%TD*%
M02*
